<svg xmlns="http://www.w3.org/2000/svg" width="104.482" height="116.311" viewBox="0 0 104.482 116.311">
  <g id="active_order" transform="translate(-24.004 0)">
    <g id="Group_1164" data-name="Group 1164" transform="translate(31.889 65.052)">
      <g id="Group_1163" data-name="Group 1163" transform="translate(0)">
        <path id="Path_822" data-name="Path 822" d="M57.975,264A1.971,1.971,0,0,0,56,265.973v7.885a1.971,1.971,0,1,0,3.943,0v-7.885A1.971,1.971,0,0,0,57.975,264Z" transform="translate(-56.004 -264.002)"/>
      </g>
    </g>
    <g id="Group_1166" data-name="Group 1166" transform="translate(39.774 68.995)">
      <g id="Group_1165" data-name="Group 1165">
        <path id="Path_823" data-name="Path 823" d="M89.975,280A1.971,1.971,0,0,0,88,281.973v7.885a1.971,1.971,0,1,0,3.943,0v-7.885A1.971,1.971,0,0,0,89.975,280Z" transform="translate(-88.004 -280.002)"/>
      </g>
    </g>
    <g id="Group_1168" data-name="Group 1168" transform="translate(89.059 76.88)">
      <g id="Group_1167" data-name="Group 1167" transform="translate(0)">
        <path id="Path_824" data-name="Path 824" d="M312.6,314.7a1.971,1.971,0,0,0-2.208,3.265,11.827,11.827,0,1,1-6.611-2.017,1.971,1.971,0,0,0,0-3.943A15.77,15.77,0,1,0,312.6,314.7Z" transform="translate(-288.016 -312.002)"/>
      </g>
    </g>
    <g id="Group_1170" data-name="Group 1170" transform="translate(24.004 0)">
      <g id="Group_1169" data-name="Group 1169" transform="translate(0 0)">
        <path id="Path_825" data-name="Path 825" d="M127.552,86.1a23.645,23.645,0,0,0-12.87-14.939V27.6a1.971,1.971,0,0,0-.968-1.7L70.346.275a1.971,1.971,0,0,0-2.007,0L24.972,25.9c-.041.024-.071.059-.11.087s-.077.059-.116.091a1.943,1.943,0,0,0-.436.481c0,.014-.024.022-.032.035v.014a1.971,1.971,0,0,0-.223.645,1.745,1.745,0,0,1-.024.173A1.724,1.724,0,0,0,24,27.6V78.851a1.971,1.971,0,0,0,.968,1.7L68.34,106.175a1.617,1.617,0,0,0,.16.067,1.551,1.551,0,0,0,.166.071,1.758,1.758,0,0,0,1.356,0,1.582,1.582,0,0,0,.168-.071c.051-.024.106-.037.158-.067l11.77-6.957A23.645,23.645,0,0,0,127.552,86.1ZM69.343,4.261l10.251,6.058L64.4,19.3A1.973,1.973,0,0,0,66.4,22.7L83.471,12.617l10.251,6.058L54.229,42,43.979,35.947l16.513-9.758a1.973,1.973,0,0,0-2.007-3.4L40.1,33.656,29.851,27.6ZM52.258,45.42V58.583L42.075,52.564V39.4ZM81.949,86.556A24.017,24.017,0,0,0,81.3,95.12l-9.986,5.9v-6.4a1.971,1.971,0,1,0-3.943,0v6.4l-39.425-23.3V31.054l10.186,6.018V53.688a1.971,1.971,0,0,0,.968,1.7l14.126,8.348a1.972,1.972,0,0,0,2.975-1.7V47.749l11.171,6.6V86.736a1.971,1.971,0,1,0,3.943,0V54.35l35.727-21.112a1.972,1.972,0,1,0-2.007-3.395L69.343,50.936,58.107,44.295,97.6,20.957l13.14,7.765V69.783A23.56,23.56,0,0,0,81.949,86.556Zm22.876,25.806A19.713,19.713,0,1,1,124.538,92.65,19.713,19.713,0,0,1,104.826,112.363Z" transform="translate(-24.004 0)"/>
      </g>
    </g>
    <g id="Group_1172" data-name="Group 1172" transform="translate(96.965 86.76)">
      <g id="Group_1171" data-name="Group 1171">
        <path id="Path_826" data-name="Path 826" d="M335.222,352.653a1.971,1.971,0,0,0-2.739,0l-7.477,7.477-1.563-1.563a1.971,1.971,0,0,0-2.787,2.787l2.957,2.957a1.971,1.971,0,0,0,2.787,0l8.871-8.87A1.971,1.971,0,0,0,335.222,352.653Z" transform="translate(-320.102 -352.1)"/>
      </g>
    </g>
  </g>
</svg>
