<svg xmlns="http://www.w3.org/2000/svg" width="140.21" height="114.163" viewBox="0 0 140.21 114.163">
  <g id="black_camera" transform="translate(0 -3.36)">
    <path id="Path_963" data-name="Path 963" d="M92.718,69.9A22.611,22.611,0,1,1,70.105,47.29,22.638,22.638,0,0,1,92.718,69.9ZM140.21,37.794v64.225a15.5,15.5,0,0,1-15.5,15.5H15.5A15.5,15.5,0,0,1,0,102.019V37.794a15.5,15.5,0,0,1,15.5-15.5h19.07V16.926A13.563,13.563,0,0,1,48.14,3.36H92.07a13.563,13.563,0,0,1,13.566,13.566v5.36h19.07A15.51,15.51,0,0,1,140.21,37.794ZM104.346,69.9a34.239,34.239,0,1,0-34.241,34.241A34.28,34.28,0,0,0,104.346,69.9Z" transform="translate(0 0)" fill="#202731"/>
  </g>
</svg>
