<svg xmlns="http://www.w3.org/2000/svg" xmlns:xlink="http://www.w3.org/1999/xlink" width="126" height="126" viewBox="0 0 126 126">
  <defs>
    <filter id="Rectangle_28" x="0" y="0" width="126" height="126" filterUnits="userSpaceOnUse">
      <feOffset dy="3" input="SourceAlpha"/>
      <feGaussianBlur stdDeviation="3" result="blur"/>
      <feFlood flood-opacity="0.161"/>
      <feComposite operator="in" in2="blur"/>
      <feComposite in="SourceGraphic"/>
    </filter>
  </defs>
  <g id="call_icon" transform="translate(-281.869 -743.869)">
    <g id="Group_1076" data-name="Group 1076" transform="translate(291 750)">
      <g transform="matrix(1, 0, 0, 1, -9.13, -6.13)" filter="url(#Rectangle_28)">
        <rect id="Rectangle_28-2" data-name="Rectangle 28" width="108" height="108" rx="5" transform="translate(9 6)" fill="#36d678"/>
      </g>
    </g>
    <g id="phone-call" transform="translate(322.641 781.641)">
      <g id="Group_1078" data-name="Group 1078">
        <path id="Path_326" data-name="Path 326" d="M40.946,29.27A25.415,25.415,0,0,1,32.972,28a3.417,3.417,0,0,0-3.47.735l-5.047,3.811A28.19,28.19,0,0,1,11.909,20l3.708-4.928a3.541,3.541,0,0,0,.868-3.58A25.4,25.4,0,0,1,15.208,3.51,3.514,3.514,0,0,0,11.7,0H3.51A3.514,3.514,0,0,0,0,3.51,40.994,40.994,0,0,0,40.946,44.455a3.514,3.514,0,0,0,3.51-3.51V32.78A3.514,3.514,0,0,0,40.946,29.27Z" fill="#fff"/>
      </g>
    </g>
  </g>
</svg>
