<svg xmlns="http://www.w3.org/2000/svg" width="761.488" height="390.314" viewBox="0 0 761.488 390.314">
  <g id="delivery_successful_icon" transform="translate(0 0)">
    <path id="Path_654" data-name="Path 654" d="M474.645,122.072l-.02.133-.054.384-5.6,40.186-34.29,12.581-.537-.257-19.2-9.117-9.927-38.088-.68-2.615.207-.079,42.47-15.956,27.6,12.813Z" transform="translate(-95.3 -25.748)" fill="#36d678"/>
    <path id="Path_655" data-name="Path 655" d="M434.144,180.02l-19.2-9.117-10.607-40.7.207-.079,27.669,11.673Z" transform="translate(-95.3 -30.668)" fill="#36d678"/>
    <path id="Path_656" data-name="Path 656" d="M437.084,180.516l-14.6-27.984,1.876-7.934-8.833-10.4-.752.639,8.51,10.021-6.357,26.893.961.228L422.135,154l14.075,26.972Z" transform="translate(-97.759 -31.629)" opacity="0.2"/>
    <path id="Path_657" data-name="Path 657" d="M474.645,122.565l-.074.024-42.356,14.777-27.2-9.473-.68-2.615.207-.079,42.47-15.956,27.6,12.813.005.148Z" transform="translate(-95.3 -25.748)" fill="#3f3d56"/>
    <path id="Path_658" data-name="Path 658" d="M439.116,139.932l-8.634-6.66,1.974-7.4,24.669-8.881,16.775.987,6.661,5.674.493,1.48Z" transform="translate(-101.461 -27.574)" fill="#36d678"/>
    <path id="Path_659" data-name="Path 659" d="M404.984,125.312l19.488-.741,10.557-3.583,16.46-5.791,3.079-4.44-7.681-1.375Z" transform="translate(-95.452 -25.781)" fill="#36d678"/>
    <rect id="Rectangle_84" data-name="Rectangle 84" width="10.769" height="0.987" transform="translate(338.196 95.158) rotate(-19.337)" fill="#ccc"/>
    <path id="Path_660" data-name="Path 660" d="M279.2,44.344l-4.764,23.818,22.231,16.673,10.322-30.964Z" transform="translate(-64.682 -10.452)" fill="#9f616a"/>
    <circle id="Ellipse_59" data-name="Ellipse 59" cx="21.437" cy="21.437" r="21.437" transform="translate(210.944 12.852)" fill="#9f616a"/>
    <path id="Path_661" data-name="Path 661" d="M343.4,451.1c.1,6.916,30.22,83.888,26.038,93.911-6.593,6.739-20.773,42.608-26.832,52.177-.794,0-4.763,11.909-4.763,11.909s9.528,15.085,19.849,8.733c12.978-30.524,45.481-47.548,46.055-87.332,1.569,12.568,6.2,93.237,6.2,93.237s-.888.377,19.108,2.293c3.1-46.819,15.791-126.474-12.611-176.516C407.713,445.547,343.4,451.1,343.4,451.1Z" transform="translate(-157.468 -254.393)" fill="#2f2e41"/>
    <path id="Path_662" data-name="Path 662" d="M430.934,675.852c-.928,1.785-7.585,18.262-1.527,19.914A24.34,24.34,0,0,0,443.164,695s12.229,3.822,19.713-1.035c3.493-3.493,2.7-6.668,1.032-8.97a9.724,9.724,0,0,0-7.214-3.888c-3.8-.271-5-.975-5.439-2.715C450.621,675.852,430.934,675.852,430.934,675.852Z" transform="translate(-178.455 -308.075)" fill="#2f2e41"/>
    <path id="Path_663" data-name="Path 663" d="M342.4,657.027s-17.064,5.389-13.472,11.676a23.627,23.627,0,0,0,9.812,9.048s3.559,14.672,13.438,14.672c4.94,0,6.624-2.807,7.073-5.613a9.724,9.724,0,0,0-2.351-7.851c-2.494-2.877-2.849-4.228-1.926-5.766C356.322,670.948,342.4,657.027,342.4,657.027Z" transform="translate(-155.249 -303.638)" fill="#2f2e41"/>
    <path id="Path_664" data-name="Path 664" d="M420.223,409.285s-3.18,6.351-15.882,3.967-62.719,0-62.719,0,2.774-56.765-3.577-90.907S356.7,268.751,356.7,268.751l7.941-7.941c7.941-.787,24.71,23.854,24.71,23.854,5.518.925,10.67,24.381,15.065,46.577.26,1.269.5,2.522.749,3.776,2.025,10.349,4.846,21.867,6.535,32.208.122.734.237,1.46.344,2.186a377.99,377.99,0,0,0,8.178,39.874Z" transform="translate(-157.271 -210.249)" fill="#e6e6e6"/>
    <path id="Path_665" data-name="Path 665" d="M372.695,215.6s-4.008-8.817,6.413-12.825c0,0,8.817-14.429,26.452-4.81,0,0,12.024,4.81,12.024,17.635s4.008,15.23,4.008,15.23-5.969-6.123-7.572-10.933-14.071-5.9-18.881-1.091-16.833,4.008-16.833,4.008l.8,17.635s-4.008-10.421-5.611-10.421S370.29,215.6,372.695,215.6Z" transform="translate(-165.393 -194.662)" fill="#2f2e41"/>
    <path id="Path_666" data-name="Path 666" d="M414.682,376.836c-18.94-10.3-49.619-32.873-59.517-45.086-13.047-16.089,1.185-28.318,1.185-28.318,16.135-10.181,35.426,24.748,35.426,24.748L407.4,340.853c.26,1.269.5,2.522.749,3.776C410.172,354.977,412.992,366.5,414.682,376.836Z" transform="translate(-160.252 -219.86)" opacity="0.2"/>
    <path id="Path_667" data-name="Path 667" d="M508.706,380.192s28.157,11.431,32.792-1.419-22.23-12.629-22.23-12.629l-10.547,1.494Z" transform="translate(-197.738 -235.079)" fill="#9f616a"/>
    <path id="Path_668" data-name="Path 668" d="M351.628,296.534s-14.224,12.236-1.187,28.319S423.395,375.3,423.395,375.3l39.028-10.551,11.045,2.021,2.082-20.736-16.271,1.588-41.3-8.794-26.338-21.371S367.758,286.359,351.628,296.534Z" transform="translate(-159.14 -218.191)" fill="#e6e6e6"/>
    <path id="Path_669" data-name="Path 669" d="M318.467,295.362l2.489,58.149-6.31-58.149Z" transform="translate(-74.16 -69.615)" opacity="0.2"/>
    <path id="Path_670" data-name="Path 670" d="M763.454,432.864,740.863,438.1a6.892,6.892,0,0,1-8.223-4.968h0a6.892,6.892,0,0,1,6.507-8.636l21.822-.508Z" transform="translate(-250.465 -248.712)" fill="#ffb9b9"/>
    <path id="Path_671" data-name="Path 671" d="M768.34,410.448,763.322,395.4l30.08-10.275-7.983-70.305h0c14.374,2.613,21.215,13.916,20.574,28.512l3.891,47.974Z" transform="translate(-257.75 -222.982)" fill="#3f3d56"/>
    <path id="Path_672" data-name="Path 672" d="M797.079,279.3h49.143V254.864a25.069,25.069,0,0,0-7.2-17.647,24.221,24.221,0,0,0-17.376-7.311,24.61,24.61,0,0,0-24.562,24.305c0,.224-.007.436-.007.653Z" transform="translate(-265.706 -202.969)" fill="#2f2e41"/>
    <path id="Path_673" data-name="Path 673" d="M860.387,605.966l-15.709-1.8L825.878,477.2,786.992,604.679l-17,.515,19.315-156.835-2.833-35.8,48.158-15.194C868.743,421.178,868.037,505.278,860.387,605.966Z" transform="translate(-259.322 -242.438)" fill="#2f2e41"/>
    <circle id="Ellipse_60" data-name="Ellipse 60" cx="18.542" cy="18.542" r="18.542" transform="translate(533.078 34.406)" fill="#ffb9b9"/>
    <path id="Path_674" data-name="Path 674" d="M838.14,300.434l-31.419,8.241c5.294-10.18,6.987-19.683,4.12-28.328l22.147-3.605A32.313,32.313,0,0,0,838.14,300.434Z" transform="translate(-267.979 -214.008)" fill="#ffb9b9"/>
    <path id="Path_675" data-name="Path 675" d="M842.018,381.449c-17.622,11.207-38.149,24.081-53.308,11.589L781.5,358.014c-5.731-5.1-3.19-20.857,4.558-43.309a9.932,9.932,0,0,1,6.157-6.15l11.948-4.107c5.3,4.453,13.975,1.8,24.208-4.12l11.846,3.09,5.151,38.629C837.932,353.187,839.23,368.02,842.018,381.449Z" transform="translate(-261.299 -219.567)" fill="#3f3d56"/>
    <path id="Path_676" data-name="Path 676" d="M832.864,423.428l-22.592,5.235a6.892,6.892,0,0,1-8.223-4.968h0a6.892,6.892,0,0,1,6.507-8.636l21.822-.508Z" transform="translate(-266.824 -246.489)" fill="#ffb9b9"/>
    <path id="Path_677" data-name="Path 677" d="M875.151,693.362c-2.638,1.2-4.848-6.259-7.074-4.072-6.225,6.117-21.159,4.746-21.159,4.746a3.891,3.891,0,0,1-2.453-5.071h0a3.891,3.891,0,0,1,2.7-2.409l6.62-1.655,10.395-18.281,11.329-1.434.286.468a29.21,29.21,0,0,1,3.13,23.885C877.984,692.559,876.7,692.655,875.151,693.362Z" transform="translate(-276.816 -305.562)" fill="#2f2e41"/>
    <path id="Path_678" data-name="Path 678" d="M777.437,693.362c-2.638,1.2-4.848-6.259-7.074-4.072-6.225,6.117-21.159,4.746-21.159,4.746a3.891,3.891,0,0,1-2.453-5.071h0a3.891,3.891,0,0,1,2.7-2.409l6.62-1.655,10.395-18.281,11.329-1.434.286.468a29.209,29.209,0,0,1,3.13,23.885C780.27,692.559,778.987,692.655,777.437,693.362Z" transform="translate(-253.786 -305.562)" fill="#2f2e41"/>
    <path id="Path_679" data-name="Path 679" d="M838.118,240.571l-4.67,14.858-40.376-.718a24.959,24.959,0,0,1,45.046-14.14Z" transform="translate(-264.762 -203.088)" fill="#2f2e41"/>
    <path id="Path_680" data-name="Path 680" d="M837.751,400.544l-5.017-15.052,30.08-10.274-11.378-71.829h0A29.225,29.225,0,0,1,875.4,333.423l3.891,47.974Z" transform="translate(-274.109 -220.288)" fill="#3f3d56"/>
    <path id="Path_681" data-name="Path 681" d="M631.836,169.833l-31.285,6.728-6.392-30.781,11.774-15.811,10.6-2.019L628.3,139.892Z" transform="translate(-140.039 -30.157)" fill="#ccc"/>
    <path id="Path_682" data-name="Path 682" d="M617.06,174.442H598.22l-2.568-12.68-2.812-13.9,4.2-6.053,8.079,2.522,8.744,12.114,2.194,12.344.153.879Z" transform="translate(-139.728 -33.425)" fill="#e6e6e6"/>
    <path id="Path_683" data-name="Path 683" d="M659.211,164.659l-21.7,2.523,3.869-27.585,8.746-7.906,7.569,1.85,5.047,11.606Z" transform="translate(-150.257 -31.039)" fill="#ccc"/>
    <path id="Path_684" data-name="Path 684" d="M652.393,151.763l-2.018,11.105-6.558,37.841-25.23,8.079-.871-.474-13.6-7.437-7.651-38.093.038.015,20.231,8.14.176-1.108.122-.8,1.552-9.86,6.894-7.406,23.044-5.549Z" transform="translate(-140.583 -34.462)" fill="#e6e6e6"/>
    <circle id="Ellipse_61" data-name="Ellipse 61" cx="5.382" cy="5.382" r="5.382" transform="translate(490.452 105.362)" fill="#e6e6e6"/>
    <rect id="Rectangle_85" data-name="Rectangle 85" width="12.472" height="0.336" transform="translate(470.322 115.707) rotate(-10.097)" fill="#fff"/>
    <path id="Path_685" data-name="Path 685" d="M616.861,207.277l-13.6-7.437-7.651-38.093.038.015-2.812-13.9,4.2-6.053,8.079,2.522,8.744,12.114,2.194,12.344.122-.8.031,1.681.084,4.769Z" transform="translate(-139.728 -33.425)" fill="#f2f2f2"/>
    <path id="Path_686" data-name="Path 686" d="M606.3,206.829l-.326-.087,6.707-25.15L605,171.466l.268-.2,7.779,10.255Z" transform="translate(-142.593 -40.366)" fill="#ccc"/>
    <rect id="Rectangle_86" data-name="Rectangle 86" width="0.336" height="24.582" transform="matrix(0.901, -0.434, 0.434, 0.901, 467.187, 152.254)" fill="#ccc"/>
    <path id="Path_687" data-name="Path 687" d="M752.75,356.824l-1.263,6.979-.064.007-5.655,32.624-25.23,8.074-.151.072-.1-.21L706.072,396.6l-.163-.044.088-.33L698.419,358.5l.039.015-.839-4.141.627-.9,1.939-2.792,8.074,2.523,8.747,12.111.128.72.918,5.167.368,2.076.779,4.385.74-4.711.266-1.7.669-4.259,6.9-7.4,3.066-.738,2.134-.515,2.937-.706a5.383,5.383,0,1,1,7.379-1.778l7.527-1.813,1.855,2.663Z" transform="translate(-242.264 -230.722)" opacity="0.2"/>
    <path id="Path_688" data-name="Path 688" d="M617.852,191.785H599.013l-5.382-26.576,4.205-6.056,8.073,2.523,8.747,12.11Z" transform="translate(-139.914 -37.512)" fill="#e6e6e6"/>
    <path id="Path_689" data-name="Path 689" d="M644.611,218.053l-25.23,8.073-14.465-7.905-7.653-38.1,20.269,8.157,1.85-11.774,6.9-7.4,23.044-5.55,3.869,5.55-2.019,11.1Z" transform="translate(-140.77 -38.549)" fill="#e6e6e6"/>
    <circle id="Ellipse_62" data-name="Ellipse 62" cx="5.382" cy="5.382" r="5.382" transform="translate(491.057 118.615)" fill="#e6e6e6"/>
    <path id="Path_690" data-name="Path 690" d="M617.671,224.277l-13.6-7.437-7.651-38.093.038.015-2.813-13.9,4.2-6.053,8.079,2.522,8.744,12.114,2.193,12.344.122-.8.031,1.681.084,4.769Z" transform="translate(-139.919 -37.431)" fill="#f2f2f2"/>
    <path id="Path_691" data-name="Path 691" d="M607.088,224.168l-.325-.086,6.707-25.151-7.681-10.125.268-.2,7.78,10.256Z" transform="translate(-142.78 -44.452)" fill="#ccc"/>
    <rect id="Rectangle_87" data-name="Rectangle 87" width="0.336" height="24.582" transform="matrix(0.901, -0.434, 0.434, 0.901, 467.793, 165.506)" fill="#ccc"/>
    <path id="Path_692" data-name="Path 692" d="M889.836,452.179l-31.285,6.728-6.392-30.781,11.774-15.811,10.6-2.018L886.3,422.238Z" transform="translate(-200.848 -96.704)" fill="#ccc"/>
    <path id="Path_693" data-name="Path 693" d="M875.06,456.788H856.22l-2.568-12.68-2.813-13.9,4.2-6.053,8.079,2.522,8.744,12.114,2.194,12.343.153.879Z" transform="translate(-200.537 -99.971)" fill="#e6e6e6"/>
    <path id="Path_694" data-name="Path 694" d="M917.211,447l-21.7,2.524,3.869-27.585,8.746-7.905,7.569,1.85,5.047,11.606Z" transform="translate(-211.066 -97.586)" fill="#ccc"/>
    <path id="Path_695" data-name="Path 695" d="M910.393,434.109l-2.018,11.105-6.558,37.841-25.23,8.079-.871-.474-13.6-7.437-7.651-38.093.038.015,20.231,8.14.176-1.108.122-.8,1.552-9.859,6.894-7.406,23.044-5.549Z" transform="translate(-201.392 -101.009)" fill="#e6e6e6"/>
    <circle id="Ellipse_63" data-name="Ellipse 63" cx="5.382" cy="5.382" r="5.382" transform="translate(687.643 321.162)" fill="#e6e6e6"/>
    <rect id="Rectangle_88" data-name="Rectangle 88" width="12.472" height="0.336" transform="translate(667.513 331.506) rotate(-10.097)" fill="#fff"/>
    <path id="Path_696" data-name="Path 696" d="M874.861,489.623l-13.6-7.437-7.651-38.093.038.015-2.813-13.9,4.2-6.053,8.079,2.522,8.744,12.114,2.194,12.343.122-.8.03,1.682.084,4.769Z" transform="translate(-200.537 -99.971)" fill="#f2f2f2"/>
    <path id="Path_697" data-name="Path 697" d="M864.3,489.174l-.326-.086,6.707-25.151L863,453.812l.268-.2,7.779,10.255Z" transform="translate(-203.402 -106.912)" fill="#ccc"/>
    <rect id="Rectangle_89" data-name="Rectangle 89" width="0.336" height="24.582" transform="matrix(0.901, -0.434, 0.434, 0.901, 664.378, 368.055)" fill="#ccc"/>
    <path id="Path_698" data-name="Path 698" d="M975.033,494.334H954.4l-3.057-39.744H978.09Z" transform="translate(-224.224 -107.144)" fill="#e6e6e6"/>
    <rect id="Rectangle_90" data-name="Rectangle 90" width="27.515" height="6.114" transform="translate(726.733 363.497)" fill="#f2f2f2"/>
    <path id="Path_699" data-name="Path 699" d="M986.194,455.651l-4.4-1.3-.057-1.61-19.551-5.759-.921,1.322-4.4-1.3-2.762,3.967,32.259,9.5Z" transform="translate(-224.876 -105.352)" fill="#ccc"/>
    <path id="Path_700" data-name="Path 700" d="M127.645,437l-.02.133-.054.385-5.6,40.186-34.29,12.581-.537-.257-19.2-9.117-9.927-38.089-.68-2.615.207-.079,42.469-15.956,27.6,12.813Z" transform="translate(-13.514 -99.975)" fill="#36d678"/>
    <path id="Path_701" data-name="Path 701" d="M87.144,494.952l-19.2-9.118-10.607-40.7.207-.079,27.669,11.673Z" transform="translate(-13.514 -104.896)" fill="#36d678"/>
    <path id="Path_702" data-name="Path 702" d="M90.084,495.447l-14.6-27.984,1.876-7.933-8.833-10.4-.752.639,8.51,10.022-6.357,26.893.961.227,4.249-17.976L89.209,495.9Z" transform="translate(-15.973 -105.856)" opacity="0.2"/>
    <path id="Path_703" data-name="Path 703" d="M127.645,437.5l-.074.025L85.215,452.3l-27.2-9.473-.68-2.615.207-.079,42.469-15.956,27.6,12.813.005.148Z" transform="translate(-13.514 -99.975)" fill="#3f3d56"/>
    <path id="Path_704" data-name="Path 704" d="M92.116,454.864,83.482,448.2l1.973-7.4,24.669-8.881,16.775.987,6.661,5.673.493,1.48Z" transform="translate(-19.676 -101.801)" fill="#36d678"/>
    <path id="Path_705" data-name="Path 705" d="M57.984,440.243l19.488-.74,10.557-3.584,16.46-5.79,3.079-4.441-7.681-1.374Z" transform="translate(-13.666 -100.008)" fill="#36d678"/>
    <rect id="Rectangle_91" data-name="Rectangle 91" width="10.769" height="0.987" transform="translate(72.981 335.86) rotate(-19.337)" fill="#ccc"/>
    <path id="Path_706" data-name="Path 706" d="M28.694,495.53H8.057L5,455.786H31.751Z" transform="translate(-1.178 -107.426)" fill="#36d678"/>
    <rect id="Rectangle_92" data-name="Rectangle 92" width="27.515" height="6.114" transform="translate(3.439 364.411)" fill="#e6e6e6"/>
    <path id="Path_707" data-name="Path 707" d="M32.1,452.315H27.515l-.51-1.529H6.624l-.51,1.529H1.529L0,456.9H33.63Z" transform="translate(0 -106.247)" fill="#3f3d56"/>
    <rect id="Rectangle_93" data-name="Rectangle 93" width="463.244" height="1.529" transform="translate(154.576 387.636)" fill="#3f3d56"/>
  </g>
</svg>
