<svg xmlns="http://www.w3.org/2000/svg" width="942.053" height="854.376" viewBox="0 0 942.053 854.376">
  <g id="good_service" transform="translate(0.001 0)">
    <path id="Path_399" data-name="Path 399" d="M449.686,285.856h0A130.686,130.686,0,0,1,580.373,416.542V729.656H319V416.542A130.686,130.686,0,0,1,449.686,285.856Z" transform="translate(21.318 19.103)" fill="#e6e6e6"/>
    <rect id="Rectangle_41" data-name="Rectangle 41" width="23.47" height="77.878" transform="translate(402.194 462.079)" fill="#fff"/>
    <rect id="Rectangle_42" data-name="Rectangle 42" width="77.878" height="70.41" transform="translate(432.065 546.359)" fill="#fff"/>
    <rect id="Rectangle_43" data-name="Rectangle 43" width="77.878" height="77.878" transform="translate(432.065 462.079)" fill="#fff"/>
    <path id="Path_400" data-name="Path 400" d="M642.5,480.047h23.47v-1.6a68.628,68.628,0,0,0-23.47-51.737Z" transform="translate(-126.155 -24.369)" fill="#fff"/>
    <path id="Path_401" data-name="Path 401" d="M563.5,481.117h77.878V422.789a68.478,68.478,0,0,0-38.939-12.084h0A68.478,68.478,0,0,0,563.5,422.789Z" transform="translate(-131.435 -25.438)" fill="#fff"/>
    <path id="Path_402" data-name="Path 402" d="M558.97,561.706H535.5v53.341a17.07,17.07,0,0,0,17.069,17.069h6.4Z" transform="translate(-133.306 -15.347)" fill="#fff"/>
    <path id="Path_403" data-name="Path 403" d="M642.5,561.706v70.41h6.4a17.07,17.07,0,0,0,17.07-17.069V561.706Z" transform="translate(-126.155 -15.347)" fill="#fff"/>
    <path id="Path_404" data-name="Path 404" d="M558.97,480.047V426.709a68.629,68.629,0,0,0-23.47,51.737v1.6Z" transform="translate(-133.306 -24.369)" fill="#fff"/>
    <rect id="Rectangle_44" data-name="Rectangle 44" width="23.47" height="77.878" transform="translate(516.345 462.079)" fill="#fff"/>
    <circle id="Ellipse_24" data-name="Ellipse 24" cx="13.869" cy="13.869" r="13.869" transform="translate(569.153 537.824)" fill="#3f3d56"/>
    <rect id="Rectangle_45" data-name="Rectangle 45" width="18.421" height="61.125" transform="translate(127.369 418.589)" fill="#f2f2f2"/>
    <rect id="Rectangle_46" data-name="Rectangle 46" width="61.125" height="61.125" transform="translate(150.813 418.589)" fill="#f2f2f2"/>
    <rect id="Rectangle_47" data-name="Rectangle 47" width="18.421" height="61.125" transform="translate(216.963 418.589)" fill="#f2f2f2"/>
    <path id="Path_405" data-name="Path 405" d="M361.872,439.852h18.421V438.6a53.865,53.865,0,0,0-18.421-40.607Z" transform="translate(-144.909 -26.288)" fill="#f2f2f2"/>
    <rect id="Rectangle_48" data-name="Rectangle 48" width="61.125" height="55.263" transform="translate(150.813 484.738)" fill="#f2f2f2"/>
    <path id="Path_406" data-name="Path 406" d="M296.311,503.945H277.89v41.866a13.4,13.4,0,0,0,13.4,13.4h5.024Z" transform="translate(-150.521 -19.207)" fill="#f2f2f2"/>
    <path id="Path_407" data-name="Path 407" d="M361.872,503.945v55.263H366.9a13.4,13.4,0,0,0,13.4-13.4V503.945Z" transform="translate(-144.909 -19.207)" fill="#f2f2f2"/>
    <path id="Path_408" data-name="Path 408" d="M296.311,439.852V397.989A53.865,53.865,0,0,0,277.89,438.6v1.256Z" transform="translate(-150.522 -26.288)" fill="#f2f2f2"/>
    <path id="Path_409" data-name="Path 409" d="M299.866,440.692h61.125v-45.78a53.746,53.746,0,0,0-30.562-9.484h0a53.746,53.746,0,0,0-30.562,9.484Z" transform="translate(-149.053 -27.128)" fill="#f2f2f2"/>
    <path id="Path_410" data-name="Path 410" d="M411.682,563.108H255.939a3.772,3.772,0,0,1-3.768-3.768V549.292a3.772,3.772,0,0,1,3.768-3.768H411.682a3.772,3.772,0,0,1,3.768,3.768v10.048A3.772,3.772,0,0,1,411.682,563.108Z" transform="translate(-152.24 -16.429)" fill="#e6e6e6"/>
    <rect id="Rectangle_49" data-name="Rectangle 49" width="18.421" height="61.125" transform="translate(706.656 418.589)" fill="#f2f2f2"/>
    <rect id="Rectangle_50" data-name="Rectangle 50" width="61.125" height="61.125" transform="translate(730.101 418.589)" fill="#f2f2f2"/>
    <rect id="Rectangle_51" data-name="Rectangle 51" width="18.421" height="61.125" transform="translate(796.25 418.589)" fill="#f2f2f2"/>
    <path id="Path_411" data-name="Path 411" d="M904.872,439.852h18.422V438.6a53.866,53.866,0,0,0-18.422-40.607Z" transform="translate(-108.622 -26.288)" fill="#f2f2f2"/>
    <rect id="Rectangle_52" data-name="Rectangle 52" width="61.125" height="55.263" transform="translate(730.101 484.738)" fill="#f2f2f2"/>
    <path id="Path_412" data-name="Path 412" d="M839.311,503.945H820.89v41.866a13.4,13.4,0,0,0,13.4,13.4h5.024Z" transform="translate(-114.234 -19.207)" fill="#f2f2f2"/>
    <path id="Path_413" data-name="Path 413" d="M904.872,503.945v55.263H909.9a13.4,13.4,0,0,0,13.4-13.4V503.945Z" transform="translate(-108.622 -19.207)" fill="#f2f2f2"/>
    <path id="Path_414" data-name="Path 414" d="M839.311,439.852V397.989A53.866,53.866,0,0,0,820.889,438.6v1.257Z" transform="translate(-114.234 -26.288)" fill="#f2f2f2"/>
    <path id="Path_415" data-name="Path 415" d="M842.866,440.692h61.125v-45.78a53.745,53.745,0,0,0-30.562-9.484h0a53.744,53.744,0,0,0-30.562,9.484Z" transform="translate(-112.765 -27.128)" fill="#f2f2f2"/>
    <path id="Path_416" data-name="Path 416" d="M954.682,563.109H798.939a3.772,3.772,0,0,1-3.768-3.768V549.292a3.772,3.772,0,0,1,3.768-3.768H954.682a3.771,3.771,0,0,1,3.768,3.768V559.34A3.772,3.772,0,0,1,954.682,563.109Z" transform="translate(-115.953 -16.429)" fill="#e6e6e6"/>
    <path id="Path_417" data-name="Path 417" d="M1042.063,790.453H214.205A35.245,35.245,0,0,1,179,755.247V218.633a35.245,35.245,0,0,1,35.205-35.205h827.858a35.245,35.245,0,0,1,35.205,35.205V755.247A35.245,35.245,0,0,1,1042.063,790.453ZM214.205,185.562a33.109,33.109,0,0,0-33.072,33.072V755.247a33.109,33.109,0,0,0,33.072,33.072h827.858a33.109,33.109,0,0,0,33.072-33.072V218.633a33.109,33.109,0,0,0-33.072-33.072Z" transform="translate(-157.13 -40.627)" fill="#ccc"/>
    <path id="Path_418" data-name="Path 418" d="M193.757,262.539a35.284,35.284,0,0,1-5.651-70.108L620.763,50.274a52.45,52.45,0,0,1,16.982-.021l433.232,142.2a35.277,35.277,0,0,1-11.416,69.624c-4.667-.667-426.221-60.859-430.066-61.017-3.83.158-425.794,60.409-430.056,61.018A35.35,35.35,0,0,1,193.757,262.539Z" transform="translate(-158.5 -49.572)" fill="#ccc"/>
    <path id="Path_419" data-name="Path 419" d="M775.067,675.63a10,10,0,0,0-3.307-14.979l1.978-22.774L760.191,633.3l-2.341,32.2a10.058,10.058,0,0,0,17.217,10.129Z" transform="translate(-118.504 -10.563)" fill="#ffb8b8"/>
    <path id="Path_420" data-name="Path 420" d="M679.931,792.327h-12.2l-5.8-47.043h18Z" transform="translate(44.235 49.805)" fill="#ffb8b8"/>
    <path id="Path_421" data-name="Path 421" d="M660.133,786.112h23.521v14.81H645.323a14.809,14.809,0,0,1,14.81-14.81Z" transform="translate(43.126 52.534)" fill="#2f2e41"/>
    <path id="Path_422" data-name="Path 422" d="M654.651,762.982l-11.844,2.91-16.862-44.3,17.481-4.3Z" transform="translate(41.83 47.935)" fill="#ffb8b8"/>
    <path id="Path_423" data-name="Path 423" d="M14.81,0H38.331V14.81H0A14.81,14.81,0,0,1,14.81,0Z" transform="matrix(0.971, -0.239, 0.239, 0.971, 660.96, 816.057)" fill="#2f2e41"/>
    <path id="Path_424" data-name="Path 424" d="M827.686,835.625a4.491,4.491,0,0,1-4.476-4.031L809.174,700.85,796.962,740.83l17.3,62.444a4.508,4.508,0,0,1-2.673,5.395l-13.751,5.5a4.513,4.513,0,0,1-5.938-2.7l-21.2-60.819a55.059,55.059,0,0,1-3.025-20.691l2.959-65.635,77.924,3.3L847.341,830a4.539,4.539,0,0,1-4.173,4.467l-15.133,1.14C827.918,835.62,827.8,835.625,827.686,835.625Z" transform="translate(-117.794 -8.49)" fill="#2f2e41"/>
    <circle id="Ellipse_25" data-name="Ellipse 25" cx="26.202" cy="26.202" r="26.202" transform="translate(670.784 458.17)" fill="#ffb8b8"/>
    <path id="Path_425" data-name="Path 425" d="M834.163,680.487c-6.9,0-15.474-.564-24.342-1.148-12.119-.8-24.651-1.622-34-1.08a7.434,7.434,0,0,1-6.648-2.9c-9.643-12.347,5.231-60.5,5.869-62.541l12.1-53.841.521.117-.521-.117c2.663-11.841,11.171-20.577,22.2-22.8,10.326-2.075,20.316,2.06,26.722,11.068q.51.716,1.02,1.471c20.858,30.891,9.061,107.639,8.27,112.592,1.1,1.32,7.06,8.782,5.422,13.966-.666,2.109-2.476,3.546-5.379,4.271a50.165,50.165,0,0,1-11.236.933Z" transform="translate(-117.907 -17.088)" fill="#ccc"/>
    <path id="Path_426" data-name="Path 426" d="M776.459,680.4c-2.373,0-5.574-.876-9.892-2.672-1.855-.772-7.5-3.122-.647-63.02,3.367-29.422,8.19-58.641,8.238-58.932l.047-.281.26-.118c.125-.056,12.442-5.7,14.583-12.958q.112-.378.249-.73a6.661,6.661,0,0,1,8.272-4.063,7,7,0,0,1,5.273,7.989,49.1,49.1,0,0,1-4.257,13.646c-5.8,11.959-9.722,43.663-9.761,43.982-.222,2.708-5.482,66.86-6.5,71.728-.354,1.7-1.006,3.781-2.917,4.791a6.231,6.231,0,0,1-2.952.639Z" transform="translate(-118.128 -16.977)" fill="#2f2e41"/>
    <path id="Path_427" data-name="Path 427" d="M802.659,677.851a2.154,2.154,0,0,1-1.321-.453c-7.709-5.859,4.766-76.867,12.166-101.366,1.482-4.905,2.8-9.107,3.922-12.488h0a95.257,95.257,0,0,0,4.256-18.677c.407-3.441,1.292-5.407,2.707-6.009.982-.419,2.138-.135,3.435.847,6.833-.336,13.475,2.456,19.631,5.527L852.993,548l6.216,110.042c-.176,7.022-14.019,11.98-20.061,12.3-9.7.508-27.106,2.086-34.779,6.944A3.2,3.2,0,0,1,802.659,677.851Z" transform="translate(-115.703 -16.887)" fill="#2f2e41"/>
    <path id="Path_428" data-name="Path 428" d="M771.035,656.294c-.091,0-.183,0-.275-.008l-12.553-.772a4.513,4.513,0,0,1-4.185-5.178L759.7,612.7,770.4,559.894a9.473,9.473,0,0,1,12.121-7.158h0a9.525,9.525,0,0,1,6.516,10.54l-8.5,52.911-5.03,36.216A4.535,4.535,0,0,1,771.035,656.294Z" transform="translate(-118.706 -15.976)" fill="#2f2e41"/>
    <path id="Path_429" data-name="Path 429" d="M818.895,531.358a27.956,27.956,0,1,0-5.239-55.289c-5.762-3.5-12.461-5.853-19.176-5.254s-13.355,4.585-15.865,10.841.187,14.5,6.43,17.045c4,1.63,8.522.839,12.794.182S806.77,497.8,810.487,500s5.389,8.114,2.06,10.869a11.455,11.455,0,0,0-3.29,12.61C810.93,527.809,815.5,531.286,818.895,531.358Z" transform="translate(-117.122 -21.427)" fill="#2f2e41"/>
    <path id="Path_430" data-name="Path 430" d="M763.484,529.751a25.759,25.759,0,1,0,0,51.518h0a25.759,25.759,0,1,0,0-51.518Z" transform="translate(-119.792 -17.483)" fill="#36d678"/>
    <path id="Path_395" data-name="Path 395" d="M760.22,565.36a3.124,3.124,0,0,1-1.881-.625l-.033-.025-7.084-5.419a3.148,3.148,0,0,1,3.83-5l4.589,3.52,10.842-14.146a3.147,3.147,0,0,1,4.412-.582h0l-.067.094.069-.094a3.15,3.15,0,0,1,.582,4.413l-12.753,16.63a3.147,3.147,0,0,1-2.5,1.228Z" transform="translate(-118.972 -16.635)" fill="#fff"/>
    <path id="Path_431" data-name="Path 431" d="M818.971,596.706H728.562a9.153,9.153,0,0,0-9.155,9.156v90.407a9.152,9.152,0,0,0,9.155,9.155H818.97a9.152,9.152,0,0,0,9.155-9.155V605.86a9.152,9.152,0,0,0-9.156-9.154Z" transform="translate(-121.016 -13.008)" fill="#36d678"/>
    <path id="Path_432" data-name="Path 432" d="M797.253,662.337l-42.686,8.312a9.738,9.738,0,0,1-11.407-7.689l-3.281-16.849a9.738,9.738,0,0,1,7.689-11.407l42.685-8.312a9.738,9.738,0,0,1,11.407,7.689l3.281,16.849A9.738,9.738,0,0,1,797.253,662.337Z" transform="translate(-119.659 -11.036)" fill="#fff"/>
    <path id="Path_433" data-name="Path 433" d="M787.854,641.7l-32.576,6.344a2.289,2.289,0,0,1-.875-4.494l32.576-6.344a2.289,2.289,0,0,1,.875,4.493Z" transform="translate(-118.801 -10.304)" fill="#36d678"/>
    <path id="Path_434" data-name="Path 434" d="M780.934,650.505l-16.849,3.281a2.289,2.289,0,0,1-.875-4.494l16.85-3.281a2.289,2.289,0,1,1,.875,4.493Z" transform="translate(-118.212 -9.716)" fill="#36d678"/>
    <path id="Path_435" data-name="Path 435" d="M828.125,605.86v12.016H719.407V605.86a9.152,9.152,0,0,1,9.155-9.155H818.97A9.152,9.152,0,0,1,828.125,605.86Z" transform="translate(-121.016 -13.008)" fill="#3f3d56"/>
    <path id="Path_436" data-name="Path 436" d="M810.264,611.927a10,10,0,0,1,15.176-2.233l20.584-9.943,9.094,11.035-29.267,13.633a10.058,10.058,0,0,1-15.587-12.492Z" transform="translate(-115.046 -12.805)" fill="#ffb8b8"/>
    <path id="Path_437" data-name="Path 437" d="M837.442,626.176a4.516,4.516,0,0,1-4.389-3.457l-2.99-12.429a4.5,4.5,0,0,1,2.07-4.928l18.032-10.791-9.217-33.748a11.542,11.542,0,0,1,.4-7.255h0a11.472,11.472,0,0,1,21.564.662L873.092,585.3a18.751,18.751,0,0,1-6.85,21.1l-26.157,18.923A4.512,4.512,0,0,1,837.442,626.176Z" transform="translate(-113.629 -16.375)" fill="#2f2e41"/>
    <path id="Path_438" data-name="Path 438" d="M871.784,850.562H762.968a1.067,1.067,0,0,1,0-2.134H871.784a1.067,1.067,0,0,1,0,2.134Z" transform="translate(-118.176 3.814)" fill="#ccc"/>
  </g>
</svg>
