<svg id="history_icon" xmlns="http://www.w3.org/2000/svg" width="106.193" height="106.193" viewBox="0 0 106.193 106.193">
  <g id="Group_1140" data-name="Group 1140">
    <g id="Group_1139" data-name="Group 1139">
      <path id="Path_807" data-name="Path 807" d="M71.208,13.7a18.82,18.82,0,0,0-36.222,0H0v30.83H3.426v61.66h99.342V44.533h3.426V13.7ZM53.1,3.426A15.415,15.415,0,1,1,37.681,18.841,15.433,15.433,0,0,1,53.1,3.426Zm39.394,99.342H61.66V51.384h30.83Zm10.277-61.66H95.916v3.426h3.426v58.235H95.916V47.958H58.235v54.809H6.851V44.533h85.64V41.107H3.426V17.128H34.343c-.051.565-.087,1.134-.087,1.713s.036,1.148.087,1.713H13.7v3.426H34.985a18.82,18.82,0,0,0,36.222,0H92.491V20.553H71.85c.051-.565.087-1.134.087-1.713s-.036-1.148-.087-1.713h30.918Z"/>
      <path id="Path_808" data-name="Path 808" d="M48,270.245H92.533V224H48Zm3.426-42.82H89.107V266.82H51.426Z" transform="translate(-37.723 -176.042)"/>
      <path id="Path_809" data-name="Path 809" d="M327.979,256H304v39.394h23.979Zm-3.425,35.969H307.426V259.426h17.128Z" transform="translate(-238.914 -201.191)"/>
      <path id="Path_810" data-name="Path 810" d="M251.347,49.5l-7.922-6.336V32H240V44.812l9.206,7.367Z" transform="translate(-188.616 -25.149)"/>
      <rect id="Rectangle_114" data-name="Rectangle 114" width="3.707" height="3.707" transform="translate(97.577 19.735)"/>
      <rect id="Rectangle_115" data-name="Rectangle 115" width="3.707" height="3.707" transform="translate(4.908 19.735)"/>
    </g>
  </g>
</svg>
