<svg xmlns="http://www.w3.org/2000/svg" width="129.907" height="159.145" viewBox="0 0 129.907 159.145">
  <g id="new_order_icon" transform="translate(-47.031)">
    <g id="Group_1142" data-name="Group 1142" transform="translate(62.979 23.921)">
      <g id="Group_1141" data-name="Group 1141">
        <path id="Path_811" data-name="Path 811" d="M116.778,84.934a2.492,2.492,0,0,0-2.492,2.492,5.482,5.482,0,1,1-5.482-5.482,2.492,2.492,0,1,0,0-4.984,10.466,10.466,0,1,0,10.466,10.466A2.491,2.491,0,0,0,116.778,84.934Z" transform="translate(-98.338 -76.96)" fill="#179bd7"/>
      </g>
    </g>
    <g id="Group_1144" data-name="Group 1144" transform="translate(62.979 53.159)">
      <g id="Group_1143" data-name="Group 1143">
        <path id="Path_812" data-name="Path 812" d="M116.778,179a2.492,2.492,0,0,0-2.492,2.492,5.482,5.482,0,1,1-5.482-5.482,2.492,2.492,0,1,0,0-4.984,10.466,10.466,0,1,0,10.466,10.466A2.492,2.492,0,0,0,116.778,179Z" transform="translate(-98.338 -171.022)" fill="#179bd7"/>
      </g>
    </g>
    <g id="Group_1146" data-name="Group 1146" transform="translate(89.558 66.449)">
      <g id="Group_1145" data-name="Group 1145">
        <path id="Path_813" data-name="Path 813" d="M204.946,213.779H186.341a2.492,2.492,0,0,0,0,4.984h18.606a2.492,2.492,0,0,0,0-4.984Z" transform="translate(-183.849 -213.779)" fill="#179bd7"/>
      </g>
    </g>
    <g id="Group_1148" data-name="Group 1148" transform="translate(89.558 55.817)">
      <g id="Group_1147" data-name="Group 1147">
        <path id="Path_814" data-name="Path 814" d="M204.946,179.574H186.341a2.492,2.492,0,1,0,0,4.984h18.606a2.492,2.492,0,1,0,0-4.984Z" transform="translate(-183.849 -179.574)" fill="#179bd7"/>
      </g>
    </g>
    <g id="Group_1150" data-name="Group 1150" transform="translate(89.558 95.686)">
      <g id="Group_1149" data-name="Group 1149">
        <path id="Path_815" data-name="Path 815" d="M199.631,307.841h-13.29a2.492,2.492,0,1,0,0,4.984h13.29a2.492,2.492,0,0,0,0-4.984Z" transform="translate(-183.849 -307.841)" fill="#179bd7"/>
      </g>
    </g>
    <g id="Group_1152" data-name="Group 1152" transform="translate(89.558 85.054)">
      <g id="Group_1151" data-name="Group 1151">
        <path id="Path_816" data-name="Path 816" d="M204.946,273.637H186.341a2.492,2.492,0,0,0,0,4.984h18.606a2.492,2.492,0,0,0,0-4.984Z" transform="translate(-183.849 -273.637)" fill="#179bd7"/>
      </g>
    </g>
    <g id="Group_1154" data-name="Group 1154" transform="translate(89.558 37.211)">
      <g id="Group_1153" data-name="Group 1153">
        <path id="Path_817" data-name="Path 817" d="M228.868,119.716H186.341a2.492,2.492,0,1,0,0,4.984h42.527a2.492,2.492,0,0,0,0-4.984Z" transform="translate(-183.849 -119.716)" fill="#179bd7"/>
      </g>
    </g>
    <g id="Group_1156" data-name="Group 1156" transform="translate(89.558 26.579)">
      <g id="Group_1155" data-name="Group 1155">
        <path id="Path_818" data-name="Path 818" d="M218.236,85.511h-31.9a2.492,2.492,0,0,0,0,4.984h31.9a2.492,2.492,0,0,0,0-4.984Z" transform="translate(-183.849 -85.511)" fill="#179bd7"/>
      </g>
    </g>
    <g id="Group_1158" data-name="Group 1158" transform="translate(62.979 82.396)">
      <g id="Group_1157" data-name="Group 1157">
        <path id="Path_819" data-name="Path 819" d="M116.778,273.059a2.492,2.492,0,0,0-2.492,2.492,5.482,5.482,0,1,1-5.482-5.482,2.492,2.492,0,1,0,0-4.984,10.466,10.466,0,1,0,10.466,10.466A2.491,2.491,0,0,0,116.778,273.059Z" transform="translate(-98.338 -265.085)" fill="#179bd7"/>
      </g>
    </g>
    <g id="Group_1160" data-name="Group 1160" transform="translate(47.031)">
      <g id="Group_1159" data-name="Group 1159">
        <path id="Path_820" data-name="Path 820" d="M145.209,0H54.839a7.817,7.817,0,0,0-7.808,7.808V119.441a7.816,7.816,0,0,0,7.808,7.808h45.185a2.492,2.492,0,0,0,0-4.984H54.839a2.827,2.827,0,0,1-2.824-2.824V7.808a2.827,2.827,0,0,1,2.824-2.824h90.37a2.827,2.827,0,0,1,2.824,2.824V90.2a2.492,2.492,0,1,0,4.984,0V7.808A7.817,7.817,0,0,0,145.209,0Z" transform="translate(-47.031)" fill="#179bd7"/>
      </g>
    </g>
    <g id="Group_1162" data-name="Group 1162" transform="translate(106.841 55.818)">
      <g id="Group_1161" data-name="Group 1161">
        <path id="Path_821" data-name="Path 821" d="M301.346,224.809a9.193,9.193,0,0,0-6.463,1.817,9.076,9.076,0,0,0-6.827-4.474,9.2,9.2,0,0,0-6.463,1.817,9.076,9.076,0,0,0-6.827-4.474,9.207,9.207,0,0,0-5.087.954V188.714a9.139,9.139,0,0,0-10.07-9.09,9.428,9.428,0,0,0-8.2,9.469v31.813l-7.325,7.325a15.682,15.682,0,0,0-4.2,14.774l5.561,23.635A21.016,21.016,0,0,0,265.976,282.9h22.475a21.121,21.121,0,0,0,21.1-21.1V234.278A9.427,9.427,0,0,0,301.346,224.809Zm3.219,37a16.132,16.132,0,0,1-16.114,16.114H265.976A16.052,16.052,0,0,1,250.291,265.5l-5.561-23.634a10.73,10.73,0,0,1,2.875-10.109l3.8-3.8v8.6a2.492,2.492,0,0,0,4.984,0V189.093a4.406,4.406,0,0,1,3.716-4.51,4.155,4.155,0,0,1,4.59,4.131V232.57a2.492,2.492,0,0,0,4.984,0v-3.987a4.155,4.155,0,0,1,4.59-4.131,4.406,4.406,0,0,1,3.716,4.51v6.265a2.492,2.492,0,1,0,4.984,0V231.24a4.155,4.155,0,0,1,4.59-4.131,4.406,4.406,0,0,1,3.716,4.51v6.266a2.492,2.492,0,0,0,4.984,0V233.9a4.154,4.154,0,0,1,4.59-4.131,4.406,4.406,0,0,1,3.716,4.51v27.53Z" transform="translate(-239.452 -179.578)" fill="#179bd7"/>
      </g>
    </g>
  </g>
</svg>
