<svg xmlns="http://www.w3.org/2000/svg" width="734.053" height="376.251" viewBox="0 0 734.053 376.251">
  <g id="order_hasbeen_successfully_delivered" transform="translate(0 0)">
    <path id="Path_654" data-name="Path 654" d="M472.112,121.61l-.019.128-.052.371-5.4,38.738-33.055,12.128-.518-.248-18.506-8.789-9.569-36.716-.656-2.52.2-.077,40.939-15.381,26.61,12.351Z" transform="translate(-106.434 -28.756)" fill="#36d678"/>
    <path id="Path_655" data-name="Path 655" d="M433.07,178.222l-18.506-8.789L404.339,130.2l.2-.077,26.672,11.253Z" transform="translate(-106.434 -34.252)" fill="#36d678"/>
    <path id="Path_656" data-name="Path 656" d="M436.28,178.847,422.2,151.871l1.808-7.648L415.5,134.2l-.725.616,8.2,9.66L416.847,170.4l.926.22,4.1-17.33,13.568,26Z" transform="translate(-109.18 -35.325)" opacity="0.2"/>
    <path id="Path_657" data-name="Path 657" d="M472.112,122.085l-.071.024-40.83,14.245-26.216-9.132-.656-2.52.2-.077,40.939-15.381,26.61,12.351.005.143Z" transform="translate(-106.434 -28.756)" fill="#3f3d56"/>
    <path id="Path_658" data-name="Path 658" d="M438.805,139.106l-8.323-6.42,1.9-7.134,23.78-8.561,16.171.951,6.421,5.47.475,1.426Z" transform="translate(-113.316 -30.795)" fill="#36d678"/>
    <path id="Path_659" data-name="Path 659" d="M404.984,124.738l18.786-.714,10.177-3.454,15.867-5.583,2.968-4.28-7.4-1.325Z" transform="translate(-106.604 -28.793)" fill="#36d678"/>
    <rect id="Rectangle_84" data-name="Rectangle 84" width="10.381" height="0.951" transform="translate(326.011 91.73) rotate(-19.337)" fill="#ccc"/>
    <path id="Path_660" data-name="Path 660" d="M279.027,44.344,274.435,67.3l21.43,16.073,9.95-29.849Z" transform="translate(-72.239 -11.673)" fill="#9f616a"/>
    <circle id="Ellipse_59" data-name="Ellipse 59" cx="20.664" cy="20.664" r="20.664" transform="translate(203.344 12.389)" fill="#9f616a"/>
    <path id="Path_661" data-name="Path 661" d="M343.2,451c.095,6.667,29.131,80.866,25.1,90.528-6.355,6.5-20.025,41.073-25.865,50.3-.765,0-4.592,11.48-4.592,11.48s9.184,14.542,19.134,8.419c12.511-29.424,43.842-45.835,44.4-84.185,1.512,12.115,5.976,89.878,5.976,89.878s-.856.364,18.419,2.21c2.993-45.133,15.222-121.917-12.157-170.156C405.2,445.639,343.2,451,343.2,451Z" transform="translate(-163.966 -261.371)" fill="#2f2e41"/>
    <path id="Path_662" data-name="Path 662" d="M430.788,675.852c-.895,1.721-7.312,17.6-1.472,19.2a23.464,23.464,0,0,0,13.262-.737s11.788,3.684,19-1c3.367-3.367,2.6-6.428.995-8.647a9.374,9.374,0,0,0-6.954-3.748c-3.661-.261-4.824-.94-5.243-2.617C449.766,675.852,430.788,675.852,430.788,675.852Z" transform="translate(-187.405 -321.326)" fill="#2f2e41"/>
    <path id="Path_663" data-name="Path 663" d="M341.9,657.027s-16.449,5.195-12.986,11.255A22.777,22.777,0,0,0,338.369,677s3.431,14.143,12.954,14.143c4.762,0,6.385-2.706,6.818-5.411a9.374,9.374,0,0,0-2.267-7.568c-2.4-2.773-2.746-4.075-1.857-5.558C355.317,670.447,341.9,657.027,341.9,657.027Z" transform="translate(-161.489 -316.371)" fill="#2f2e41"/>
    <path id="Path_664" data-name="Path 664" d="M417.225,403.935s-3.065,6.123-15.31,3.824-60.459,0-60.459,0,2.675-54.72-3.448-87.631,17.985-51.662,17.985-51.662l7.655-7.655c7.655-.759,23.82,22.995,23.82,22.995,5.319.891,10.285,23.5,14.522,44.9.251,1.223.486,2.431.722,3.64,1.952,9.976,4.671,21.079,6.3,31.047.118.707.228,1.407.332,2.107a364.381,364.381,0,0,0,7.883,38.437Z" transform="translate(-163.747 -212.07)" fill="#e6e6e6"/>
    <path id="Path_665" data-name="Path 665" d="M372.651,214.849s-3.864-8.5,6.182-12.363c0,0,8.5-13.909,25.5-4.636,0,0,11.591,4.636,11.591,17s3.864,14.682,3.864,14.682-5.753-5.9-7.3-10.539-13.564-5.688-18.2-1.052S378.06,221.8,378.06,221.8l.773,17s-3.864-10.045-5.409-10.045S370.333,214.849,372.651,214.849Z" transform="translate(-172.817 -194.662)" fill="#2f2e41"/>
    <path id="Path_666" data-name="Path 666" d="M412.339,374.125c-18.257-9.924-47.831-31.688-57.372-43.462-12.577-15.509,1.142-27.3,1.142-27.3,15.553-9.814,34.149,23.857,34.149,23.857l15.059,12.216c.251,1.223.486,2.431.722,3.64C407.992,353.053,410.71,364.156,412.339,374.125Z" transform="translate(-167.076 -222.804)" opacity="0.2"/>
    <path id="Path_667" data-name="Path 667" d="M508.706,379.686s27.143,11.019,31.61-1.368-21.429-12.174-21.429-12.174l-10.167,1.441Z" transform="translate(-208.942 -239.801)" fill="#9f616a"/>
    <path id="Path_668" data-name="Path 668" d="M351.387,296.461s-13.712,11.8-1.144,27.3,70.325,48.63,70.325,48.63l37.622-10.171,10.647,1.948,2.007-19.989-15.685,1.531-39.817-8.477-25.389-20.6S366.936,286.652,351.387,296.461Z" transform="translate(-165.834 -220.94)" fill="#e6e6e6"/>
    <path id="Path_669" data-name="Path 669" d="M318.33,295.362l2.4,56.054-6.083-56.054Z" transform="translate(-82.824 -77.748)" opacity="0.2"/>
    <path id="Path_670" data-name="Path 670" d="M762.336,432.544l-21.778,5.046a6.644,6.644,0,0,1-7.927-4.789h0a6.644,6.644,0,0,1,6.273-8.325l21.036-.489Z" transform="translate(-267.829 -255.027)" fill="#ffb9b9"/>
    <path id="Path_671" data-name="Path 671" d="M768.159,407l-4.837-14.51,29-9.9-7.7-67.772h0c13.856,2.519,20.45,13.415,19.833,27.484l3.751,46.246Z" transform="translate(-275.965 -226.29)" fill="#3f3d56"/>
    <path id="Path_672" data-name="Path 672" d="M797.079,277.523h47.373V253.964a24.167,24.167,0,0,0-6.938-17.011,23.348,23.348,0,0,0-16.75-7.048,23.723,23.723,0,0,0-23.677,23.429c0,.216-.007.421-.007.629Z" transform="translate(-284.851 -203.939)" fill="#2f2e41"/>
    <path id="Path_673" data-name="Path 673" d="M857.131,598.45l-15.143-1.738L823.864,474.325,786.379,597.209l-16.384.5,18.619-151.184-2.731-34.507,46.423-14.647C865.185,420.32,864.5,501.39,857.131,598.45Z" transform="translate(-277.721 -248.02)" fill="#2f2e41"/>
    <circle id="Ellipse_60" data-name="Ellipse 60" cx="17.874" cy="17.874" r="17.874" transform="translate(513.871 33.166)" fill="#ffb9b9"/>
    <path id="Path_674" data-name="Path 674" d="M837.008,299.58l-30.287,7.944c5.1-9.813,6.736-18.974,3.972-27.308l21.349-3.476A31.149,31.149,0,0,0,837.008,299.58Z" transform="translate(-287.389 -216.268)" fill="#ffb9b9"/>
    <path id="Path_675" data-name="Path 675" d="M839.726,378.526c-16.987,10.8-36.775,23.213-51.388,11.171l-6.951-33.762c-5.525-4.921-3.075-20.105,4.394-41.749a9.575,9.575,0,0,1,5.935-5.928l11.517-3.959c5.1,4.292,13.472,1.732,23.336-3.972l11.419,2.979,4.965,37.237C835.786,351.282,837.038,365.581,839.726,378.526Z" transform="translate(-279.928 -222.477)" fill="#3f3d56"/>
    <path id="Path_676" data-name="Path 676" d="M831.746,423.109l-21.778,5.046a6.644,6.644,0,0,1-7.927-4.789h0a6.644,6.644,0,0,1,6.272-8.325l21.036-.489Z" transform="translate(-286.1 -252.544)" fill="#ffb9b9"/>
    <path id="Path_677" data-name="Path 677" d="M874.037,692.347c-2.543,1.161-4.674-6.033-6.819-3.925-6,5.9-20.4,4.575-20.4,4.575a3.751,3.751,0,0,1-2.364-4.888h0a3.751,3.751,0,0,1,2.6-2.322l6.382-1.6,10.021-17.622,10.92-1.382.276.451a28.158,28.158,0,0,1,3.017,23.024C876.767,691.572,875.531,691.665,874.037,692.347Z" transform="translate(-297.259 -318.519)" fill="#2f2e41"/>
    <path id="Path_678" data-name="Path 678" d="M776.322,692.347c-2.543,1.161-4.674-6.033-6.819-3.925-6,5.9-20.4,4.575-20.4,4.575a3.751,3.751,0,0,1-2.364-4.888h0a3.751,3.751,0,0,1,2.6-2.322l6.382-1.6,10.021-17.622,10.921-1.382.276.451a28.157,28.157,0,0,1,3.017,23.024C779.053,691.572,777.817,691.665,776.322,692.347Z" transform="translate(-271.538 -318.519)" fill="#2f2e41"/>
    <path id="Path_679" data-name="Path 679" d="M836.5,240.2l-4.5,14.323-38.921-.692A24.06,24.06,0,0,1,836.5,240.2Z" transform="translate(-283.796 -204.073)" fill="#2f2e41"/>
    <path id="Path_680" data-name="Path 680" d="M837.57,397.043l-4.837-14.51,29-9.9-10.968-69.241h0a28.172,28.172,0,0,1,23.1,28.953l3.751,46.246Z" transform="translate(-294.236 -223.282)" fill="#3f3d56"/>
    <path id="Path_681" data-name="Path 681" d="M630.479,168.324l-30.158,6.486-6.161-29.672,11.35-15.242,10.214-1.946,11.35,11.512Z" transform="translate(-156.4 -33.68)" fill="#ccc"/>
    <path id="Path_682" data-name="Path 682" d="M616.187,173.267H598.026l-2.476-12.223-2.711-13.394,4.052-5.835,7.788,2.431,8.429,11.678,2.115,11.9.147.847Z" transform="translate(-156.053 -37.33)" fill="#e6e6e6"/>
    <path id="Path_683" data-name="Path 683" d="M658.429,163.471,637.513,165.9l3.729-26.591,8.431-7.621,7.3,1.784,4.865,11.188Z" transform="translate(-167.812 -34.665)" fill="#ccc"/>
    <path id="Path_684" data-name="Path 684" d="M650.378,151.563l-1.945,10.705-6.322,36.477-24.321,7.788-.84-.457-13.107-7.169-7.375-36.721.037.015,19.5,7.847.17-1.068.118-.774,1.5-9.5,6.646-7.139,22.214-5.349Z" transform="translate(-157.008 -38.488)" fill="#e6e6e6"/>
    <circle id="Ellipse_61" data-name="Ellipse 61" cx="5.189" cy="5.189" r="5.189" transform="translate(472.782 101.566)" fill="#e6e6e6"/>
    <rect id="Rectangle_85" data-name="Rectangle 85" width="12.023" height="0.324" transform="translate(453.377 111.538) rotate(-10.097)" fill="#fff"/>
    <path id="Path_685" data-name="Path 685" d="M616,204.918l-13.107-7.169-7.375-36.721.037.015-2.711-13.394,4.052-5.835,7.788,2.431,8.429,11.678,2.115,11.9.118-.774.029,1.621.081,4.6Z" transform="translate(-156.053 -37.33)" fill="#f2f2f2"/>
    <path id="Path_686" data-name="Path 686" d="M606.249,205.547l-.314-.084,6.465-24.244-7.4-9.76.259-.2,7.5,9.886Z" transform="translate(-159.253 -45.082)" fill="#ccc"/>
    <rect id="Rectangle_86" data-name="Rectangle 86" width="0.324" height="23.697" transform="matrix(0.901, -0.434, 0.434, 0.901, 450.355, 146.769)" fill="#ccc"/>
    <path id="Path_687" data-name="Path 687" d="M750.763,356.493l-1.218,6.727-.062.006-5.451,31.449-24.321,7.783-.146.07-.1-.2-13.7-7.488-.157-.042.084-.318-7.3-36.365.037.015-.809-3.992.6-.871,1.869-2.692,7.783,2.432,8.432,11.674.123.694.885,4.981.355,2,.751,4.227.713-4.541.256-1.634.645-4.105,6.648-7.134,2.956-.712,2.057-.5,2.831-.681a5.189,5.189,0,1,1,7.113-1.714l7.256-1.748,1.788,2.567Z" transform="translate(-258.67 -234.935)" opacity="0.2"/>
    <path id="Path_688" data-name="Path 688" d="M616.979,190.61h-18.16l-5.188-25.618,4.054-5.837,7.782,2.432L613.9,173.26Z" transform="translate(-156.261 -41.894)" fill="#e6e6e6"/>
    <path id="Path_689" data-name="Path 689" d="M642.9,216.09l-24.322,7.783-13.944-7.62-7.377-36.725L616.8,187.39l1.783-11.35,6.648-7.134,22.214-5.35,3.729,5.35-1.946,10.7Z" transform="translate(-157.217 -43.053)" fill="#e6e6e6"/>
    <circle id="Ellipse_62" data-name="Ellipse 62" cx="5.189" cy="5.189" r="5.189" transform="translate(473.365 114.341)" fill="#e6e6e6"/>
    <path id="Path_690" data-name="Path 690" d="M616.806,221.918,603.7,214.75l-7.375-36.721.037.015-2.711-13.394,4.052-5.835,7.788,2.431,8.429,11.678,2.114,11.9.118-.774.03,1.621.081,4.6Z" transform="translate(-156.266 -41.805)" fill="#f2f2f2"/>
    <path id="Path_691" data-name="Path 691" d="M607.041,222.886l-.313-.083,6.465-24.245-7.4-9.76.259-.2,7.5,9.887Z" transform="translate(-159.462 -49.646)" fill="#ccc"/>
    <rect id="Rectangle_87" data-name="Rectangle 87" width="0.324" height="23.697" transform="matrix(0.901, -0.434, 0.434, 0.901, 450.939, 159.543)" fill="#ccc"/>
    <path id="Path_692" data-name="Path 692" d="M888.479,450.669l-30.158,6.486-6.162-29.672,11.35-15.242,10.214-1.946,11.35,11.512Z" transform="translate(-224.314 -108.002)" fill="#ccc"/>
    <path id="Path_693" data-name="Path 693" d="M874.187,455.613H856.026L853.55,443.39,850.839,430l4.052-5.835,7.788,2.431,8.429,11.678,2.115,11.9.147.847Z" transform="translate(-223.966 -111.652)" fill="#e6e6e6"/>
    <path id="Path_694" data-name="Path 694" d="M916.429,445.817l-20.916,2.433,3.73-26.592,8.431-7.62,7.3,1.783,4.865,11.188Z" transform="translate(-235.726 -108.987)" fill="#ccc"/>
    <path id="Path_695" data-name="Path 695" d="M908.378,433.909l-1.945,10.705-6.322,36.477-24.321,7.788-.84-.457-13.107-7.169-7.375-36.721.037.015,19.5,7.847.169-1.068.118-.774,1.5-9.5,6.646-7.139,22.214-5.349Z" transform="translate(-224.922 -112.81)" fill="#e6e6e6"/>
    <circle id="Ellipse_63" data-name="Ellipse 63" cx="5.189" cy="5.189" r="5.189" transform="translate(662.868 309.59)" fill="#e6e6e6"/>
    <rect id="Rectangle_88" data-name="Rectangle 88" width="12.023" height="0.324" transform="translate(643.464 319.562) rotate(-10.097)" fill="#fff"/>
    <path id="Path_696" data-name="Path 696" d="M874,487.264,860.889,480.1l-7.375-36.721.037.015L850.839,430l4.052-5.835,7.788,2.431,8.429,11.678,2.115,11.9.118-.774.029,1.621.081,4.6Z" transform="translate(-223.966 -111.652)" fill="#f2f2f2"/>
    <path id="Path_697" data-name="Path 697" d="M864.249,487.893l-.314-.083,6.465-24.245L863,453.8l.259-.2,7.5,9.886Z" transform="translate(-227.167 -119.404)" fill="#ccc"/>
    <rect id="Rectangle_89" data-name="Rectangle 89" width="0.324" height="23.697" transform="matrix(0.901, -0.434, 0.434, 0.901, 640.442, 354.794)" fill="#ccc"/>
    <path id="Path_698" data-name="Path 698" d="M974.179,492.9H954.286l-2.947-38.312h25.787Z" transform="translate(-250.421 -119.662)" fill="#e6e6e6"/>
    <rect id="Rectangle_90" data-name="Rectangle 90" width="26.524" height="5.894" transform="translate(700.55 350.4)" fill="#f2f2f2"/>
    <path id="Path_699" data-name="Path 699" d="M985.038,455.339,980.8,454.09l-.054-1.552L961.9,446.986l-.888,1.275-4.24-1.249-2.663,3.824L985.2,460Z" transform="translate(-251.149 -117.66)" fill="#ccc"/>
    <path id="Path_700" data-name="Path 700" d="M125.112,436.541l-.019.128-.052.371-5.4,38.738L86.588,487.906l-.518-.247L67.564,478.87l-9.569-36.717-.656-2.521.2-.076,40.939-15.381,26.61,12.351Z" transform="translate(-15.093 -111.656)" fill="#36d678"/>
    <path id="Path_701" data-name="Path 701" d="M86.07,493.154l-18.506-8.789L57.339,445.128l.2-.076L84.21,456.3Z" transform="translate(-15.093 -117.151)" fill="#36d678"/>
    <path id="Path_702" data-name="Path 702" d="M89.281,493.779,75.2,466.8l1.808-7.647L68.5,449.128l-.725.616,8.2,9.661-6.128,25.924.926.219,4.1-17.329,13.568,26Z" transform="translate(-17.84 -118.224)" opacity="0.2"/>
    <path id="Path_703" data-name="Path 703" d="M125.112,437.017l-.071.024L84.21,451.285l-26.216-9.132-.656-2.521.2-.076,40.939-15.381,26.61,12.351.005.142Z" transform="translate(-15.093 -111.656)" fill="#3f3d56"/>
    <path id="Path_704" data-name="Path 704" d="M91.805,454.038l-8.323-6.421,1.9-7.134,23.78-8.561,16.171.951,6.421,5.469.475,1.427Z" transform="translate(-21.975 -113.695)" fill="#36d678"/>
    <path id="Path_705" data-name="Path 705" d="M57.984,439.669l18.786-.713L86.947,435.5l15.867-5.582,2.968-4.281-7.4-1.325Z" transform="translate(-15.263 -111.692)" fill="#36d678"/>
    <rect id="Rectangle_91" data-name="Rectangle 91" width="10.381" height="0.951" transform="translate(70.352 323.76) rotate(-19.337)" fill="#ccc"/>
    <path id="Path_706" data-name="Path 706" d="M27.84,494.1H7.947L5,455.786H30.787Z" transform="translate(-1.316 -119.977)" fill="#36d678"/>
    <rect id="Rectangle_92" data-name="Rectangle 92" width="26.524" height="5.894" transform="translate(3.315 351.282)" fill="#e6e6e6"/>
    <path id="Path_707" data-name="Path 707" d="M30.944,452.26H26.524l-.491-1.474H6.386l-.491,1.474H1.474L0,456.68H32.418Z" transform="translate(0 -118.66)" fill="#3f3d56"/>
    <rect id="Rectangle_93" data-name="Rectangle 93" width="446.553" height="1.474" transform="translate(149.007 373.67)" fill="#3f3d56"/>
  </g>
</svg>
