<svg xmlns="http://www.w3.org/2000/svg" width="224.628" height="224.144" viewBox="0 0 224.628 224.144">
  <g id="payment" transform="translate(0 -0.516)">
    <g id="Group_1174" data-name="Group 1174" transform="translate(0 0.516)">
      <g id="Group_1173" data-name="Group 1173" transform="translate(0 0)">
        <rect id="Rectangle_116" data-name="Rectangle 116" width="22.51" height="7.503" transform="translate(161.325 149.589)"/>
        <rect id="Rectangle_117" data-name="Rectangle 117" width="22.51" height="7.503" transform="translate(131.311 149.589)"/>
        <rect id="Rectangle_118" data-name="Rectangle 118" width="22.51" height="7.503" transform="translate(101.297 149.589)"/>
        <path id="Path_827" data-name="Path 827" d="M221.3,78.083,147.068,3.836a11.207,11.207,0,0,0-7.976-3.32h-.034a11.1,11.1,0,0,0-7.912,3.32L52.4,82.574H11.255A11.255,11.255,0,0,0,0,93.829V198.878a11.255,11.255,0,0,0,11.255,11.255H66.841l11.2,11.206a11.207,11.207,0,0,0,7.976,3.32h.03a11.106,11.106,0,0,0,7.916-3.32l11.218-11.206h86.162a11.255,11.255,0,0,0,11.255-11.255V112.715l18.691-18.691a11.2,11.2,0,0,0,.019-15.941ZM173.578,40.967,131.971,82.574h-31.86l57.537-57.537ZM136.458,9.126a3.7,3.7,0,0,1,5.231-.062l.062.062,10.591,10.606L89.5,82.574H63.007ZM88.646,216.049a3.65,3.65,0,0,1-2.626,1.126,3.751,3.751,0,0,1-2.671-1.126l-5.894-5.916H94.566ZM195.09,198.878a3.752,3.752,0,0,1-3.752,3.752H11.255A3.752,3.752,0,0,1,7.5,198.878V146.353H195.09Zm0-60.028H7.5V116.34H195.09Zm0-30.014H7.5V93.829a3.752,3.752,0,0,1,3.752-3.752H191.338a3.752,3.752,0,0,1,3.752,3.752ZM216,88.7h0l-13.4,13.4V93.829a11.255,11.255,0,0,0-11.255-11.255H142.566l36.3-36.3,37.116,37.116a3.75,3.75,0,0,1,1.126,2.682A3.678,3.678,0,0,1,216,88.7Z" transform="translate(0 -0.516)"/>
        <path id="Path_828" data-name="Path 828" d="M48.619,385.854a15.012,15.012,0,0,0,1.534-1.534A14.876,14.876,0,0,0,69.9,386.864,15.256,15.256,0,0,0,76.416,374.5,15.007,15.007,0,0,0,61.409,359.49a11.369,11.369,0,0,0-2.221.188l-.1.026h-.109a14.814,14.814,0,0,0-8.828,4.982,15.007,15.007,0,1,0-1.534,21.167Zm11.84-18.781a4.517,4.517,0,0,1,.949-.079,7.5,7.5,0,0,1,7.5,7.5,7.358,7.358,0,0,1-1.474,4.4c-.135.184-.24.375-.394.566-.026.03-.064.049-.094.079a7.459,7.459,0,1,1-6.491-12.47ZM38.9,366.994a7.5,7.5,0,1,1-7.5,7.5A7.5,7.5,0,0,1,38.9,366.994Z" transform="translate(-12.636 -191.143)"/>
      </g>
    </g>
  </g>
</svg>
