<svg xmlns="http://www.w3.org/2000/svg" width="273.773" height="399.459" viewBox="0 0 273.773 399.459">
  <g id="place_holder_image" transform="translate(-72.997)">
    <path id="Path_335" data-name="Path 335" d="M342.463,358.772v33.8a6.885,6.885,0,0,1-6.887,6.887H84.192a6.885,6.885,0,0,1-6.887-6.887v-33.8a64.224,64.224,0,0,1,37.673-58.481c-9.066-7.214-22.884-16.909-32.938-37.768A91.027,91.027,0,0,1,88.273,172.5a88.546,88.546,0,0,0,14.859-49.106V86.09A86.089,86.089,0,0,1,189.222,0h41.323a86.089,86.089,0,0,1,86.09,86.09c0,39.5-.965,47.24,3.8,62.949,6.719,22.212,15.594,24.96,22.435,47.565a91.082,91.082,0,0,1-30.45,97.618l-7.628,6.069A64.224,64.224,0,0,1,342.463,358.772Z" transform="translate(0)" fill="#ffdfba"/>
    <path id="Path_336" data-name="Path 336" d="M343.159,405.851v33.8a6.888,6.888,0,0,1-6.887,6.887H84.888A6.888,6.888,0,0,1,78,439.65v-33.8a64.2,64.2,0,0,1,64.2-64.2,35.632,35.632,0,0,0,14.79-3.194l.215.465,49.16,38.058a6.887,6.887,0,0,0,8.432,0l49.159-38.058.215-.465a35.632,35.632,0,0,0,14.79,3.194A64.2,64.2,0,0,1,343.159,405.851Z" transform="translate(-0.696 -47.079)" fill="#ffaa64"/>
    <path id="Path_337" data-name="Path 337" d="M296.941,141.368a6.892,6.892,0,0,1,6.519,6.875v41.225a85.239,85.239,0,0,1-52.644,78.773C194.928,291.439,133,250.227,133,189.468V148.842a6.878,6.878,0,0,1,7.478-6.862,178.188,178.188,0,0,0,116.156-29.7,6.864,6.864,0,0,1,10.462,3.843c4.249,15.663,15.84,24.447,29.845,25.245Z" transform="translate(-8.346 -15.454)" fill="#ffebd2"/>
    <path id="Path_338" data-name="Path 338" d="M312.418,294.222l-7.628,6.069a64.036,64.036,0,0,0-26.524-5.716,35.617,35.617,0,0,1-35.667-35.59v-5.88l-.129-.319a85.239,85.239,0,0,0,52.644-78.773V132.789a6.892,6.892,0,0,0-6.519-6.875c-13.919-.793-25.568-9.481-29.845-25.244a6.864,6.864,0,0,0-10.462-3.843,178.2,178.2,0,0,1-116.156,29.7,6.878,6.878,0,0,0-7.478,6.862v40.626A85.239,85.239,0,0,0,177.3,252.788l-.129.319v5.88a35.616,35.616,0,0,1-35.667,35.59,64.036,64.036,0,0,0-26.524,5.716l-7.628-6.069A91.081,91.081,0,0,1,88.274,172.5a88.546,88.546,0,0,0,14.859-49.106V86.09A86.091,86.091,0,0,1,189.223,0h41.323a86.091,86.091,0,0,1,86.09,86.09v37.3A88.6,88.6,0,0,0,331.5,172.5,91.082,91.082,0,0,1,312.418,294.222Z" transform="translate(-0.001 0)" fill="#42434d"/>
    <path id="Path_339" data-name="Path 339" d="M260.245,308.085a85.463,85.463,0,0,1-67.374,0c1.167-4.844.973-7.981.973-14.136l.129-.319a85.4,85.4,0,0,0,65.17,0l.129.319C259.272,300.107,259.078,303.243,260.245,308.085Z" transform="translate(-16.674 -40.843)" fill="#ffd6a6"/>
    <path id="Path_340" data-name="Path 340" d="M269.437,9.265c8.792,4.459,4.971,17.878-4.843,16.949q-4.059-.385-8.222-.387H215.049a86.091,86.091,0,0,0-86.09,86.09v10.475c0,6.185-4.3,5.985-4.3,11,0,45.475.184,42.6-.483,44.558-6.754,19.868-14.864,22.743-21.444,44.485a91,91,0,0,0-3.4,35.873c1.013,9.659-12.437,14.28-17.286,4.219A91.043,91.043,0,0,1,88.272,172.5a88.546,88.546,0,0,0,14.859-49.106V86.09A86.091,86.091,0,0,1,189.222,0h41.323a85.725,85.725,0,0,1,38.892,9.265Z" transform="translate(0)" fill="#4d4e59"/>
    <path id="Path_341" data-name="Path 341" d="M201.891,251.547c12.861,8.609,3.059,28.522-11.545,23.4C158.247,263.68,133,233.721,133,194.452V153.826a6.881,6.881,0,0,1,7.481-6.861c3.3.3,6.922.535,10.831.655a13.121,13.121,0,0,1,12.68,13.137v19.921A84.927,84.927,0,0,0,201.891,251.547Z" transform="translate(-8.346 -20.439)" fill="#fff3e4"/>
    <path id="Path_342" data-name="Path 342" d="M171.4,349.918a5.477,5.477,0,0,1-3.24,9.815,64.185,64.185,0,0,0-64.334,64.2v22.607H84.888A6.887,6.887,0,0,1,78,439.651v-33.8a64.2,64.2,0,0,1,64.2-64.2,35.625,35.625,0,0,0,14.79-3.194l.215.465Z" transform="translate(-0.696 -47.079)" fill="#ffbd7b"/>
    <path id="Path_343" data-name="Path 343" d="M277.162,349.918a5.477,5.477,0,0,0,3.24,9.815,64.185,64.185,0,0,1,64.334,64.2v22.607h18.94a6.887,6.887,0,0,0,6.887-6.887v-33.8a64.2,64.2,0,0,0-64.2-64.2,35.625,35.625,0,0,1-14.791-3.194l-.215.465Z" transform="translate(-28.102 -47.079)" fill="#faa157"/>
  </g>
</svg>
