<svg xmlns="http://www.w3.org/2000/svg" width="1123.733" height="832.985" viewBox="0 0 1123.733 832.985">
  <g id="professional_services" transform="translate(0 0.098)">
    <path id="Path_708" data-name="Path 708" d="M824.193,592.285l8.842-5.457c.84-.533,1.669-1.1,2.521-1.634a84.452,84.452,0,0,1-70.048-79.3,83.577,83.577,0,0,1,7.291-38.468,84.6,84.6,0,0,1,54.223-46.777l-.438,34.8L845.7,417.568a.755.755,0,0,1,.237,0,84.44,84.44,0,0,1,88.287,80.416c.071,1.61,0,3.2,0,4.735,6.652-7.587,12.689-15.719,16.689-24.631,8.1-18.051,8.285-38.492,7.611-63.337-1.278-49.24-3.4-98.846-6.167-148.31a84.393,84.393,0,0,1-74.984-79.884c-.118-2.592-.083-5.137,0-7.67a12.686,12.686,0,0,1,.095-1.894c.166-2.45.391-4.877.769-7.268a6.932,6.932,0,0,1,.213-1.184q.521-3.042,1.243-6.013c.189-.734.367-1.48.568-2.213a63.852,63.852,0,0,1,2-6.368c.249-.7.545-1.373.805-2.06.6-1.539,1.254-3.054,1.941-4.557.367-.793.722-1.574,1.113-2.367.095-.2.177-.4.284-.6h0a84.382,84.382,0,0,1,99.142-42.824l-.568,45.286,18.938-37.4a83.92,83.92,0,0,1,40.244,90.986h.095c-.13.6-.32,1.184-.462,1.775-.26,1.113-.545,2.213-.852,3.314-.4,1.409-.852,2.793-1.314,4.178-.355,1.03-.7,2.083-1.089,3.1-.568,1.491-1.184,2.947-1.87,4.4-.379.852-.722,1.716-1.183,2.557q-1.622,3.267-3.551,6.392c-.438.722-.935,1.409-1.4,2.131-.9,1.4-1.811,2.781-2.793,4.131-.6.829-1.255,1.622-1.894,2.438-.923,1.184-1.87,2.367-2.853,3.444-.7.793-1.408,1.574-2.142,2.367-1.03,1.089-2.095,2.142-3.2,3.184-.722.7-1.456,1.4-2.214,2.06-1.242,1.1-2.545,2.154-3.859,3.184-.663.521-1.3,1.065-1.988,1.562q-2.995,2.225-6.19,4.178c-.4.237-.829.438-1.184.675-1.775,1.053-3.551,2.036-5.457,2.959-.793.391-1.621.734-2.438,1.1-1.527.687-3.065,1.349-4.64,1.953-.912.343-1.846.663-2.782.982-1.55.533-3.125,1.018-4.734,1.456-.947.26-1.882.521-2.841.746-1.729.414-3.492.758-5.267,1.053a.6.6,0,0,0-.344.071q1.752,31.3,3.113,62.626a84.394,84.394,0,0,1,117.181-36.634l-14.926,40.895,30.7-29.484a84.2,84.2,0,0,1,27.224,58.306,82.637,82.637,0,0,1-2.143,23.259,84.405,84.405,0,0,1-155.258,23c0,2.119.154,4.249.213,6.368.557,21.921,1.255,49.192-9.67,73.551-7.4,16.512-19.317,29.922-31.094,41.936-7.658,7.824-15.6,15.387-23.744,22.714a84.441,84.441,0,0,1-30.49,25.354q-20.062,15.458-41.546,28.952l-8.7,5.61c-8.037,4.983-16.275,10.1-24.359,15.387,1.42-.142,2.828-.3,4.273-.355a84.477,84.477,0,0,1,83.139,54.957L846.871,725.2l58-13.458a84.477,84.477,0,0,1-121.063,76.049c1.3,1.633,2.616,3.255,3.918,4.877,2.592,3.231,5.173,6.439,7.694,9.623,34.325,43.475,43.889,84.76,26.88,116.234l-20.666-11.174c16.571-30.633-8.286-69.835-24.656-90.5-2.474-3.125-5.007-6.273-7.563-9.469-21.933-27.224-46.789-58.141-46.162-96.029C724.14,654.3,779.641,619.887,824.193,592.285Z" transform="translate(-15.388 -98.18)" fill="#f2f2f2"/>
    <ellipse id="Ellipse_64" data-name="Ellipse 64" cx="539.148" cy="24.856" rx="539.148" ry="24.856" transform="translate(0 783.173)" fill="#3f3d56"/>
    <path id="Path_709" data-name="Path 709" d="M951.049,795.279c3.551-6.521-.474-14.511-5.066-20.334s-10.191-11.837-10.073-19.282c.166-10.653,11.469-16.938,20.512-22.584a100.4,100.4,0,0,0,18.406-14.807,26.97,26.97,0,0,0,5.67-7.576c1.858-4.166,1.811-8.9,1.692-13.469q-.591-22.8-2.249-45.547" transform="translate(23.667 3.483)" fill="none" stroke="#3f3d56" stroke-miterlimit="10" stroke-width="4"/>
    <path id="Path_710" data-name="Path 710" d="M992.774,653.459a16.642,16.642,0,0,0-8.286-13.612l-3.717,7.362.107-8.9a16.608,16.608,0,1,0,11.836,15.15Z" transform="translate(28.008 0.899)" fill="#57b793"/>
    <path id="Path_711" data-name="Path 711" d="M967.447,749.748a16.571,16.571,0,1,1,.793-13.375l-10.369,8.439,11.41-2.651A16.562,16.562,0,0,1,967.447,749.748Z" transform="translate(23.71 17.056)" fill="#57b793"/>
    <path id="Path_712" data-name="Path 712" d="M958.355,723.864A16.572,16.572,0,0,1,941,708.039a16.334,16.334,0,0,1,1.432-7.563,16.643,16.643,0,0,1,10.653-9.209l-.083,6.853,3.764-7.457h0a16.619,16.619,0,0,1,1.551,33.2Z" transform="translate(24.599 10.638)" fill="#57b793"/>
    <path id="Path_713" data-name="Path 713" d="M992.425,701.145a16.589,16.589,0,1,1,7.338-31.035l-2.936,8.049,6.037-5.8a16.572,16.572,0,0,1,5.374,11.469,16.189,16.189,0,0,1-.427,4.569A16.57,16.57,0,0,1,992.425,701.145Z" transform="translate(30.855 6.477)" fill="#57b793"/>
    <path id="Path_714" data-name="Path 714" d="M990.509,656.432c-3.835.426-7.564,1.621-11.41,1.858s-8.073-.687-10.511-3.681c-1.314-1.61-1.965-3.646-3.077-5.4a11.836,11.836,0,0,0-4.178-3.942A16.571,16.571,0,1,0,992.39,656.3C991.751,656.325,991.124,656.372,990.509,656.432Z" transform="translate(28.037 2.305)" opacity="0.1"/>
    <path id="Path_715" data-name="Path 715" d="M992.431,699.673A16.571,16.571,0,0,1,976.63,676a12.311,12.311,0,0,1,3.338,3.35c1.183,1.787,1.894,3.847,3.291,5.492,2.58,3.042,7.007,4.036,11.019,3.847s7.871-1.314,11.836-1.681c.545,0,1.113-.095,1.669-.107A16.572,16.572,0,0,1,992.431,699.673Z" transform="translate(30.849 7.949)" opacity="0.1"/>
    <path id="Path_716" data-name="Path 716" d="M958.355,722.339A16.571,16.571,0,0,1,941,706.514a16.336,16.336,0,0,1,1.432-7.564,13.641,13.641,0,0,1,3.551,3.373c1.291,1.823,2.1,3.918,3.551,5.6,2.805,3.125,7.516,4.226,11.765,4.119s8.073-1.1,12.168-1.409A16.642,16.642,0,0,1,958.355,722.339Z" transform="translate(24.599 12.163)" opacity="0.1"/>
    <path id="Path_717" data-name="Path 717" d="M967.517,748.112a16.6,16.6,0,0,1-30.29-13.612,17.239,17.239,0,0,1,3.646,3.255c1.574,1.929,2.615,4.107,4.45,5.918,3.4,3.326,8.877,4.735,13.754,4.83A71.28,71.28,0,0,0,967.517,748.112Z" transform="translate(23.64 18.692)" opacity="0.1"/>
    <path id="Path_718" data-name="Path 718" d="M927.54,767.75s13.1-.4,17.056-3.219,20.122-6.179,21.152-1.657,19.708,22.489,4.9,22.56-34.4-2.367-38.338-4.734S927.54,767.75,927.54,767.75Z" transform="translate(22.13 23.496)" fill="#656380"/>
    <path id="Path_719" data-name="Path 719" d="M970.908,782.767c-14.8.118-34.4-2.367-38.338-4.735-2.995-1.822-4.2-8.392-4.592-11.422h-.438s.829,10.57,4.734,13.02,23.531,4.83,38.338,4.735c4.273,0,5.752-1.562,5.669-3.811C975.726,781.891,974.092,782.743,970.908,782.767Z" transform="translate(22.13 24.588)" opacity="0.2"/>
    <path id="Path_720" data-name="Path 720" d="M331.416,796.463c-8.593-15.908,1.184-35.391,12.357-49.571s24.856-28.928,24.561-47c-.426-25.969-27.981-41.3-50-55.063a244.173,244.173,0,0,1-44.9-36.089c-5.409-5.527-10.653-11.422-13.8-18.477-4.545-10.156-4.427-21.7-4.131-32.822q1.42-55.631,5.492-111.049" transform="translate(-101.304 -34.217)" fill="none" stroke="#3f3d56" stroke-miterlimit="10" stroke-width="4"/>
    <path id="Path_721" data-name="Path 721" d="M224.767,450.664a40.492,40.492,0,0,1,20.217-33.142l9.067,17.932-.272-21.708A40.5,40.5,0,1,1,224.767,450.7Z" transform="translate(-106.936 -40.515)" fill="#57b793"/>
    <path id="Path_722" data-name="Path 722" d="M286.474,685.384a40.48,40.48,0,0,0,76.451-16.571,39.962,39.962,0,0,0-2.639-16.429,40.5,40.5,0,0,0-75.753.438l25.294,20.572L282,666.919A40.043,40.043,0,0,0,286.474,685.384Z" transform="translate(-96.417 -1.151)" fill="#57b793"/>
    <path id="Path_723" data-name="Path 723" d="M308.653,622.38A40.5,40.5,0,0,0,321.5,542.934l.213,16.678-9.114-18.145h-.106a40.507,40.507,0,0,0-3.776,80.925Z" transform="translate(-98.604 -16.765)" fill="#57b793"/>
    <path id="Path_724" data-name="Path 724" d="M225.606,567.111a40.5,40.5,0,1,0-17.9-75.753l7.1,19.613L200.146,496.8a40.315,40.315,0,0,0-13.138,27.958,39.492,39.492,0,0,0,1.03,11.15,40.492,40.492,0,0,0,37.569,31.2Z" transform="translate(-113.871 -26.915)" fill="#57b793"/>
    <path id="Path_725" data-name="Path 725" d="M230.078,458.024c9.351,1.03,18.441,3.93,27.815,4.51s19.684-1.657,25.614-8.948c3.2-3.929,4.794-8.9,7.492-13.186a28.74,28.74,0,0,1,10.2-9.6,40.5,40.5,0,1,1-75.753,26.88C227.024,457.751,228.563,457.858,230.078,458.024Z" transform="translate(-106.802 -37.08)" opacity="0.1"/>
    <path id="Path_726" data-name="Path 726" d="M225.431,563.512a40.528,40.528,0,0,0,38.527-57.762,29.954,29.954,0,0,0-8.143,8.144c-2.888,4.356-4.628,9.386-8.025,13.387-6.309,7.41-17.08,9.836-26.857,9.4s-19.21-3.231-28.94-4.119c-1.349-.119-2.722-.213-4.084-.249A40.492,40.492,0,0,0,225.431,563.512Z" transform="translate(-113.696 -23.316)" opacity="0.1"/>
    <path id="Path_727" data-name="Path 727" d="M308.383,618.666A40.492,40.492,0,0,0,347.23,561.65a32.754,32.754,0,0,0-8.558,8.286c-3.148,4.438-5.113,9.552-8.794,13.647-6.829,7.611-18.311,10.3-28.668,10.049-10.025-.213-19.684-2.675-29.65-3.445A40.528,40.528,0,0,0,308.383,618.666Z" transform="translate(-98.334 -13.05)" opacity="0.1"/>
    <path id="Path_728" data-name="Path 728" d="M285.78,681.36a40.48,40.48,0,0,0,76.451-16.571,39.957,39.957,0,0,0-2.64-16.429,40.543,40.543,0,0,0-8.877,7.919c-3.847,4.734-6.392,10.013-10.842,14.393-8.286,8.12-21.649,11.481-33.544,11.836A173.641,173.641,0,0,1,285.78,681.36Z" transform="translate(-95.723 2.873)" opacity="0.1"/>
    <path id="Path_729" data-name="Path 729" d="M477.314,692.6l-156.24,31.958-3.551-.355-137.3-13.849v-174L348.3,507.95l121.915,14.2.036.769.012.379Z" transform="translate(33.096 93.298)" fill="#36d678"/>
    <path id="Path_730" data-name="Path 730" d="M456.011,690.275l-156.24,31.958-3.551-.355V543.5l152.725-22.9Z" transform="translate(54.398 95.621)" opacity="0.1"/>
    <path id="Path_731" data-name="Path 731" d="M470.259,523.3l-.047.036-152.69,22.489-137.3-9.469L348.3,507.95l121.915,14.2.036.769Z" transform="translate(33.096 93.298)" opacity="0.05"/>
    <path id="Path_732" data-name="Path 732" d="M622.314,698.6l-156.24,31.958-3.551-.355-137.3-13.849v-174L493.3,513.95l121.915,14.2.035.77.012.379Z" transform="translate(59.723 94.4)" fill="#3f3d56"/>
    <path id="Path_733" data-name="Path 733" d="M601.011,696.275l-156.24,31.958-3.551-.355V549.5l152.725-22.9Z" transform="translate(81.026 96.723)" opacity="0.1"/>
    <path id="Path_734" data-name="Path 734" d="M615.259,529.3l-.047.036-152.69,22.489-137.3-9.469L493.3,513.95l121.915,14.2.035.77Z" transform="translate(59.723 94.4)" opacity="0.05"/>
    <path id="Path_735" data-name="Path 735" d="M531.314,554.6,375.073,586.556l-3.551-.355-137.3-13.849V398.357L402.3,369.95l121.915,14.2.036.769.012.379Z" transform="translate(43.012 67.956)" fill="#3f3d56"/>
    <path id="Path_736" data-name="Path 736" d="M510.011,552.275l-156.24,31.958-3.551-.355V405.5l152.725-22.9Z" transform="translate(64.314 70.279)" opacity="0.1"/>
    <path id="Path_737" data-name="Path 737" d="M524.259,385.3l-.047.036-152.69,22.489-137.3-9.469L402.3,369.95l121.915,14.2.036.769Z" transform="translate(43.012 67.956)" opacity="0.05"/>
    <path id="Path_738" data-name="Path 738" d="M584.277,547.062l-81.541,16.689-1.858-.189L429.22,556.33V465.521l87.719-14.831,63.633,7.422.023.4v.189Z" transform="translate(78.822 82.783)" fill="#3f3d56"/>
    <path id="Path_739" data-name="Path 739" d="M573.159,545.848l-81.541,16.689-1.858-.19V469.255L569.478,457.3Z" transform="translate(89.939 83.997)" opacity="0.1"/>
    <path id="Path_740" data-name="Path 740" d="M580.6,458.7l-.023.024-79.695,11.742-71.658-4.948,87.719-14.831,63.633,7.422.023.4Z" transform="translate(78.822 82.783)" opacity="0.05"/>
    <path id="Path_741" data-name="Path 741" d="M399.277,398.062l-81.541,16.678-1.859-.177L244.22,407.33V316.521l87.72-14.831,63.632,7.421.024.4v.189Z" transform="translate(44.849 55.42)" fill="#3f3d56"/>
    <path id="Path_742" data-name="Path 742" d="M388.159,396.848l-81.541,16.677-1.858-.178V320.255L384.478,308.3Z" transform="translate(55.966 56.634)" opacity="0.1"/>
    <path id="Path_743" data-name="Path 743" d="M395.6,309.7l-.024.024-79.695,11.742-71.657-4.948,87.72-14.831,63.632,7.421.024.4Z" transform="translate(44.849 55.42)" opacity="0.05"/>
    <path id="Path_744" data-name="Path 744" d="M520.277,395.062l-81.541,16.677-1.858-.177L365.22,404.33V313.521l87.72-14.831,63.633,7.421.024.4v.189Z" transform="translate(67.069 54.869)" fill="#36d678"/>
    <path id="Path_745" data-name="Path 745" d="M509.159,393.848l-81.541,16.677-1.858-.177V317.255L505.478,305.3Z" transform="translate(78.186 56.083)" opacity="0.1"/>
    <path id="Path_746" data-name="Path 746" d="M516.6,306.7l-.024.024-79.695,11.742-71.657-4.948,87.72-14.831,63.633,7.421.024.4Z" transform="translate(67.069 54.869)" opacity="0.05"/>
    <path id="Path_747" data-name="Path 747" d="M556.277,318.062l-81.541,16.677-1.859-.177L401.22,327.33V236.521l87.719-14.831,63.633,7.421.023.4v.189Z" transform="translate(73.68 40.729)" fill="#3f3d56"/>
    <path id="Path_748" data-name="Path 748" d="M545.159,316.848l-81.541,16.677-1.858-.177V240.255L541.478,228.3Z" transform="translate(84.798 41.943)" opacity="0.1"/>
    <path id="Path_749" data-name="Path 749" d="M552.6,229.7l-.023.024-79.695,11.742-71.657-4.948,87.719-14.831,63.633,7.421.023.4Z" transform="translate(73.68 40.729)" opacity="0.05"/>
    <path id="Path_750" data-name="Path 750" d="M705.88,248.187c-.864,7.694-6.735,13.9-8.913,21.305-3.267,11.185,2.367,23.2,10.132,31.958a70.744,70.744,0,0,0,49.263,23.365,21.2,21.2,0,0,0,8.143-.888,17.684,17.684,0,0,0,6.19-4.237c5.823-5.859,8.96-13.967,10.2-22.146s.769-16.5.284-24.75a14.006,14.006,0,0,0-.923-4.995,12.7,12.7,0,0,0-3.208-3.942,74.584,74.584,0,0,0-13.789-10.025c-2.131-1.184-4.416-2.367-5.776-4.415a14.435,14.435,0,0,1-1.787-5.291l-1.527-7.765a15.219,15.219,0,0,0-2.237-6.3c-2.687-3.622-7.836-4.119-12.345-4.3l-16.571-.651c-5.148-.2-11.919-1.681-16.95-.663-4.734.935-3.137,5.267-2.284,9.2A66.513,66.513,0,0,1,705.88,248.187Z" transform="translate(-20.387 -75.038)" fill="#ffc0c6"/>
    <path id="Path_751" data-name="Path 751" d="M705.88,248.187c-.864,7.694-6.735,13.9-8.913,21.305-3.267,11.185,2.367,23.2,10.132,31.958a70.744,70.744,0,0,0,49.263,23.365,21.2,21.2,0,0,0,8.143-.888,17.684,17.684,0,0,0,6.19-4.237c5.823-5.859,8.96-13.967,10.2-22.146s.769-16.5.284-24.75a14.006,14.006,0,0,0-.923-4.995,12.7,12.7,0,0,0-3.208-3.942,74.584,74.584,0,0,0-13.789-10.025c-2.131-1.184-4.416-2.367-5.776-4.415a14.435,14.435,0,0,1-1.787-5.291l-1.527-7.765a15.219,15.219,0,0,0-2.237-6.3c-2.687-3.622-7.836-4.119-12.345-4.3l-16.571-.651c-5.148-.2-11.919-1.681-16.95-.663-4.734.935-3.137,5.267-2.284,9.2A66.513,66.513,0,0,1,705.88,248.187Z" transform="translate(-20.387 -75.038)" opacity="0.1"/>
    <path id="Path_752" data-name="Path 752" d="M806.6,543.124,799.569,620.2c-1.834,20.216-3.7,40.516-7.3,60.472-1.183,6.877-2.7,13.719-4.427,20.5-4.805,18.832-11.777,37.238-14.026,56.542-.071.556-.13,1.184-.189,1.693-.462,4.261-.864,8.57-2.367,12.547-1.183,2.947-2.853,5.634-4.071,8.546-2.367,5.823-2.746,12.263-3.042,18.571a80.07,80.07,0,0,0-27.567-9.469c-4.735-.7-9.883-1.183-13.02-4.734-3.551-3.859-3.137-9.765-2.545-14.949q2.793-24.146,5.563-48.269a125.826,125.826,0,0,1,3.551-20.5c.639-2.237,1.409-4.439,2.19-6.64,1.077-3.03,2.166-6.06,2.982-9.173a110.535,110.535,0,0,0,2.344-15.186c1.906-16.192,4.2-32.349,6.214-48.529l.106-.852c3.019-24.525,5.314-49.168,4.652-73.871-.095-3.657-.249-7.315-.486-10.984-.331-5.315-.817-8.132,3.551-11.458,4.865-3.669,11.269-6.238,16.831-8.641,2.995-1.3,35.971-13.02,36.693-10.44a64.25,64.25,0,0,1,2.367,16.831A187.338,187.338,0,0,1,806.6,543.124Z" transform="translate(-15.869 -23.452)" fill="#605d82"/>
    <path id="Path_753" data-name="Path 753" d="M790.47,662.714c-1.184,6.877-2.7,13.719-4.427,20.5-4.806,18.832-11.777,37.238-14.026,56.543-.071.556-.13,1.184-.189,1.693-14.7-21-27.082-43.582-41.428-64.8,1.077-3.03,2.166-6.06,2.983-9.173a110.488,110.488,0,0,0,2.462-15.281c1.906-16.192,4.2-32.349,6.214-48.529l.107-.853a50.242,50.242,0,0,0,3.551,9.955c9.635,19.577,32.526,29.473,43.723,48.209Q790,661.85,790.47,662.714Z" transform="translate(-14.073 -5.492)" opacity="0.1"/>
    <path id="Path_754" data-name="Path 754" d="M680.38,522.789c.485,15.695,2.994,31.26,5.5,46.766l5.172,31.958c2.829,17.518,5.788,35.379,14.074,51.062,6.2,11.741,15.127,21.755,23.211,32.278,19.862,25.874,34.787,55.193,53.619,81.825,5.48,7.741,13.3,16.121,22.643,14.5,6.132-1.054,10.582-6.167,15.387-10.1,5.682-4.64,12.523-8.037,17-13.86s5.35-15.482-.71-19.625c-2.072-1.409-4.593-1.941-6.937-2.841-9.386-3.551-15.47-12.736-19.329-22.016s-6.214-19.234-11.363-27.863c-11.2-18.737-34.1-28.632-43.736-48.222-5.4-10.961-5.918-23.673-6.321-35.829l-1.053-31.142c-.118-3.409-.2-6.948,1.184-10.061,3.681-8.285,14.807-9.067,23.827-10.12a81.383,81.383,0,0,0,29.2-9.209c5.2-2.805,10.262-6.38,13.02-11.588,2.533-4.734,2.876-10.309,3.172-15.683l3.125-56.448c.272-4.853.509-9.883-1.183-14.428-4.3-11.434-18.737-15.174-30.94-14.63-22.7,1.018-43.653,10.783-65.1,17.388a166.447,166.447,0,0,1-16.133,4.2c-4.735.959-10.653.568-15.2,2.107-8.143,2.746-7.942,20.572-9.091,27.958A234.7,234.7,0,0,0,680.38,522.789Z" transform="translate(-23.271 -37.692)" fill="#605d82"/>
    <path id="Path_755" data-name="Path 755" d="M783.421,733.982c2,2.024,2.652,4.983,3.172,7.777a265.324,265.324,0,0,1,4.5,47,7.786,7.786,0,0,0,.841,4.261,5.43,5.43,0,0,0,2.213,1.776c5.788,2.758,12.5-1.089,17.328-5.315,8.937-7.824,16.5-18.334,17.009-30.206.13-3.054-.213-6.143.32-9.161.781-4.474,3.4-8.368,5.693-12.274a104.245,104.245,0,0,0,9.469-21.092c.875-2.77,1.468-6.25-.711-8.179a7.612,7.612,0,0,0-2.568-1.337l-26.159-9.706c-2.273-.84-7.907,13.636-8.794,15.221-2.19,3.87-4.368,6.06-8.759,6.96s-9.812-.4-14,1.835C775.87,725.317,779.409,729.945,783.421,733.982Z" transform="translate(-5.166 11.895)" fill="#535070"/>
    <path id="Path_756" data-name="Path 756" d="M753.253,736.57a7.971,7.971,0,0,0-1.989-2.521,8.913,8.913,0,0,0-4.012-1.361c-4.971-.852-10.866-1.409-14.311,2.3-3.219,3.468-2.663,9.114-5.35,13.02a40.468,40.468,0,0,0-2.746,3.551,13.336,13.336,0,0,0-1.183,6.368c-.142,6.025-.284,12.073.142,18.086.344,5.042,1.184,10.333,4.344,14.287,5.066,6.344,14.2,7.256,22.3,7.658l6.569.344a13.022,13.022,0,0,0,5.374-.5,8.818,8.818,0,0,0,4.64-5.1c3.421-8.5-1.989-17.648-5.326-26.17C757.857,756.715,758.544,745.838,753.253,736.57Z" transform="translate(-15.337 18.244)" fill="#535070"/>
    <path id="Path_757" data-name="Path 757" d="M706.238,215.03a5.362,5.362,0,0,1,.367-2.533c.959-1.693,3.468-1.184,5.362-.758,7.611,1.918,15.636.178,23.483.627s16.678,4.368,18.252,12.061a57.067,57.067,0,0,0,14.476-14.867c2.178-3.255,4.072-6.983,3.776-10.89-.426-5.634-5.149-9.848-9.469-13.422L749.464,174.6a19.772,19.772,0,0,0-5.847-3.717c-3.007-1.03-6.3-.533-9.469-.533-9.469,0-19.625-4.32-28.064,0-3.551,1.811-6.191,4.924-8.747,7.954L685.7,192.08a7.35,7.35,0,0,0-1.87,3.16c-.332,1.681.532,3.338.84,5.03.544,3.077-.781,6.368.237,9.327,1.692,4.9,7.658,5.6,11.3,8.416,1.35,1.042,3.48,4.6,5.1,4.557C704.166,222.511,706.155,217.3,706.238,215.03Z" transform="translate(-22.638 -85.262)" fill="#3f3d56"/>
    <circle id="Ellipse_65" data-name="Ellipse 65" cx="37.285" cy="37.285" r="37.285" transform="translate(666.058 95.834)" fill="#ffc0c6"/>
    <path id="Path_758" data-name="Path 758" d="M740.732,285.786a18.063,18.063,0,0,0-17.53-12.1,5.267,5.267,0,0,1-3.243-.414,4.488,4.488,0,0,1-1.338-1.657,65.972,65.972,0,0,1-5.433-12.854c-.592-1.977-1.409-4.309-3.409-4.818-1.61-.414-3.255.627-4.332,1.894a41.481,41.481,0,0,1-3.1,3.894c-4.735,4.19-13.02.367-17.979,4.214-.817.627-1.491,1.432-2.367,2.012a10.765,10.765,0,0,1-2.734,1.184A262.049,262.049,0,0,0,651,278.187c3.314,19.932,6.7,40.244,14.464,58.886,3.693,8.877,7.871,17.577,10.831,26.727,6.557,20.276,6.841,41.972,6.924,63.289,0,14.583,0,29.473-4.734,43.274-1.065,3.125-2.367,6.226-2.663,9.469s.675,6.912,3.338,8.854a11.255,11.255,0,0,0,5.149,1.811c8.179,1.184,16.417-.971,24.466-2.841,21.578-4.995,43.594-7.859,65.55-10.653l36.811-4.735a21.531,21.531,0,0,0,7.623-1.977c6.735-3.681,7.374-13.813,3.184-20.252-2-3.089-4.83-5.622-6.522-8.889s-1.823-7.859,1.077-10.12c5.918-4.616,4.142-13.174,4.427-20.655q1.184-31.39-.319-62.733a122.824,122.824,0,0,1-.213-13.02c.415-7.362,2.237-14.571,4.06-21.732l11.185-44.031c-2.924-4.616-8.522-7.552-13.813-8.877s-10.819-1.716-16.038-3.338c-10.653-3.314-20.217-11.718-31.378-10.937a5.741,5.741,0,0,0-2.438.592c-2.509,1.432-2.119,5.054-2.273,7.942-.355,6.4-5.066,11.742-10.25,15.494s-11.126,6.474-15.9,10.747a7.1,7.1,0,0,0-2.817,5.3Z" transform="translate(-28.654 -71.079)" fill="#3f3d56"/>
    <path id="Path_759" data-name="Path 759" d="M605.075,317a43.77,43.77,0,0,1-7.835,4.036c-2.6,1.03-5.386,1.846-7.516,3.646a11.9,11.9,0,0,0-2.616,3.231A14.358,14.358,0,0,0,600.34,349.3c3.421-.178,6.652-1.562,9.789-2.924l26.3-11.446c4.451-1.929,9.256-4.178,11.363-8.558a2.061,2.061,0,0,0,.26-1.361,2.237,2.237,0,0,0-1.089-1.184,58.917,58.917,0,0,1-15.3-14.44c-1.077-1.468-2.367-4.924-3.93-5.812C622.166,300.491,609.537,314.115,605.075,317Z" transform="translate(-40.727 -60.525)" fill="#ffc0c6"/>
    <path id="Path_760" data-name="Path 760" d="M849.258,307l9.694,11.079c2.083,2.367,4.167,4.734,6.06,7.291a84.839,84.839,0,0,1,11.1,20.915c2.107,5.528,3.859,11.422,3.125,17.293a42.6,42.6,0,0,1-2.427,8.794,108.714,108.714,0,0,1-6.593,15.861,90.257,90.257,0,0,1-7.374,11.091,259.321,259.321,0,0,1-24.584,28.111c-3.314,3.279-4.734,8.593-6.143,13.02-2.663,8.179-9,14.559-15.115,20.6a41.667,41.667,0,0,1-6.5,5.587A21.069,21.069,0,0,1,798.669,470a13.017,13.017,0,0,1-5.314-1.1c-4.19-1.989-6.321-6.83-6.759-11.446a24.5,24.5,0,0,1,2.036-12.262c5.563-12.322,19.849-17.66,29.946-26.656,5.918-5.267,10.451-11.9,14.926-18.441a63.976,63.976,0,0,0,7.54-13.221c2.249-6.025,1.373-13.15,3.35-19.258.828-2.592,2.367-4.924,3.208-7.492s1.125-5.611-.45-7.824a11.3,11.3,0,0,0-4.391-3.219c-6.451-3.267-13.671-7.481-14.9-14.618a15.649,15.649,0,0,1,2.888-11.162,46.161,46.161,0,0,1,8.132-8.522C841.683,312.244,846.429,309.438,849.258,307Z" transform="translate(-3.772 -59.814)" fill="#ffc0c6"/>
    <path id="Path_761" data-name="Path 761" d="M603.691,329.43c-1.7-3.456-3.847-6.984-7.3-8.7a13.446,13.446,0,0,0-10.653,0,40.385,40.385,0,0,0-9.327,5.634l-8.356,6.167a20.581,20.581,0,0,0-4.96,4.581,19.064,19.064,0,0,0-2.58,7.1c-1.184,5.764-2.143,11.694-1.314,17.53,1.325,9.469,7.007,17.66,13.257,24.856,3.906,4.474,8.735,9,14.677,9.2,2.569.083,5.421-.935,6.486-3.267a8.082,8.082,0,0,0,.58-2.912c.639-10.511-3.125-20.773-7.5-30.348-1.183-2.6-2.462-5.3-2.367-8.155a2.2,2.2,0,0,1,.355-1.373,2.3,2.3,0,0,1,1.42-.7c6-1.184,16.346,3.48,20.548-3.184C609.372,341.456,605.633,333.348,603.691,329.43Z" transform="translate(-45.57 -57.495)" fill="#ffc0c6"/>
    <path id="Path_762" data-name="Path 762" d="M704.574,205.12a5.51,5.51,0,0,1,.379-2.533c.958-1.7,3.468-1.184,5.362-.758,7.611,1.918,15.636.178,23.483.627s16.666,4.368,18.252,12.061a57.441,57.441,0,0,0,14.476-14.867c2.178-3.267,4.072-7,3.776-10.9-.426-5.634-5.161-9.848-9.469-13.411l-13.02-10.653a19.725,19.725,0,0,0-5.835-3.717c-3.018-1.03-6.3-.533-9.469-.533-9.469,0-19.625-4.32-28.064,0-3.551,1.811-6.19,4.924-8.747,7.954L684.05,182.169a7.376,7.376,0,0,0-1.859,3.16c-.332,1.681.533,3.338.841,5.03.544,3.078-.781,6.368.237,9.315,1.693,4.912,7.658,5.61,11.3,8.427,1.349,1.042,3.48,4.6,5.1,4.557C702.479,212.6,704.468,207.393,704.574,205.12Z" transform="translate(-22.94 -87.082)" fill="#3f3d56"/>
    <path id="Path_763" data-name="Path 763" d="M637.286,286.132a15.464,15.464,0,0,0-3.906,3.634c-1.361,2.071-1.645,4.734-2.817,6.865-2.51,4.664-8.392,6.333-12.05,10.156a3.778,3.778,0,0,0-1.183,1.989,4.39,4.39,0,0,0,.982,2.865L636,339.432c5.918.521,11.529-3.172,17.423-2.675,2.19.177,4.45.935,6.557.284a19.057,19.057,0,0,0,4.2-2.569c3.551-2.225,8.191-2.486,11.138-5.409s3.2-7.22,3.161-11.209a44.254,44.254,0,0,0-1.053-10.3c-2.6-10.653-10.76-18.867-15.873-28.313-2.5-4.6-3.847-7.291-9.114-4.131S642.269,282.487,637.286,286.132Z" transform="translate(-34.837 -65.922)" fill="#3f3d56"/>
    <path id="Path_764" data-name="Path 764" d="M820.31,273.8a41.506,41.506,0,0,1,8.9,7.788c2.687,3.468,4.214,7.729,6.806,11.28s5.918,6.107,8.759,9.28c4.32,4.806,7.244,10.653,10.108,16.464a246.889,246.889,0,0,1-22.868,25.8,7.325,7.325,0,0,1-3.48,2.273,5.576,5.576,0,0,1-4.9-2c-1.278-1.326-2.177-2.983-3.4-4.368a17.457,17.457,0,0,0-10.807-5.22,74.229,74.229,0,0,0-12.251-.177,4.734,4.734,0,0,1-2.616-.438,4.325,4.325,0,0,1-1.42-1.633c-4.734-8.143-3.255-18.37-1.562-27.674l3.87-21.305a47.873,47.873,0,0,1,3.231-11.836c1.468-3.137,4.734-8.463,8.783-7.516S816.889,271.335,820.31,273.8Z" transform="translate(-3.136 -67.636)" fill="#3f3d56"/>
    <path id="Path_765" data-name="Path 765" d="M429.277,321.062,347.736,337.74l-1.858-.178L274.22,330.33V239.521l87.719-14.831,63.633,7.422.023.4v.189Z" transform="translate(50.358 41.28)" fill="#36d678"/>
    <path id="Path_766" data-name="Path 766" d="M418.159,319.848l-81.541,16.677-1.858-.178V243.255L414.478,231.3Z" transform="translate(61.475 42.494)" opacity="0.1"/>
    <path id="Path_767" data-name="Path 767" d="M425.6,232.7l-.023.024-79.695,11.742-71.657-4.948,87.719-14.831,63.633,7.422.023.4Z" transform="translate(50.358 41.28)" opacity="0.05"/>
    <path id="Path_768" data-name="Path 768" d="M465.277,245.062l-81.541,16.689-1.858-.189L310.22,254.33V163.521L397.94,148.69l63.633,7.421.024.4v.189Z" transform="translate(56.969 27.323)" fill="#3f3d56"/>
    <path id="Path_769" data-name="Path 769" d="M454.159,243.848l-81.541,16.689-1.858-.189V167.255L450.478,155.3Z" transform="translate(68.086 28.537)" opacity="0.1"/>
    <path id="Path_770" data-name="Path 770" d="M461.6,156.7l-.024.024-79.694,11.742-71.658-4.948L397.94,148.69l63.633,7.421.024.4Z" transform="translate(56.969 27.323)" opacity="0.05"/>
  </g>
</svg>
