<svg xmlns="http://www.w3.org/2000/svg" xmlns:xlink="http://www.w3.org/1999/xlink" width="749.095" height="515.494" viewBox="0 0 749.095 515.494">
  <defs>
    <linearGradient id="linear-gradient" x1="0.5" y1="1" x2="0.5" gradientUnits="objectBoundingBox">
      <stop offset="0" stop-color="gray" stop-opacity="0.251"/>
      <stop offset="0.54" stop-color="gray" stop-opacity="0.122"/>
      <stop offset="1" stop-color="gray" stop-opacity="0.102"/>
    </linearGradient>
  </defs>
  <g id="quick_delivery" transform="translate(0 0.079)">
    <rect id="Rectangle_53" data-name="Rectangle 53" width="55.798" height="20.924" rx="5.17" transform="translate(230.169 53.682)" fill="#36d678" opacity="0.1"/>
    <rect id="Rectangle_54" data-name="Rectangle 54" width="55.798" height="20.924" rx="5.17" transform="translate(396.169 34.85)" fill="#36d678" opacity="0.1"/>
    <rect id="Rectangle_55" data-name="Rectangle 55" width="55.798" height="20.924" rx="5.17" transform="translate(365.48 247.582)" fill="#36d678" opacity="0.1"/>
    <rect id="Rectangle_56" data-name="Rectangle 56" width="55.798" height="20.924" rx="5.17" transform="translate(390.589 270.599)" fill="#36d678" opacity="0.1"/>
    <rect id="Rectangle_57" data-name="Rectangle 57" width="55.798" height="20.924" rx="5.17" transform="translate(539.85 260.137)" fill="#36d678" opacity="0.1"/>
    <rect id="Rectangle_58" data-name="Rectangle 58" width="55.798" height="20.924" rx="5.17" transform="translate(85.79 276.876)" fill="#36d678" opacity="0.1"/>
    <rect id="Rectangle_59" data-name="Rectangle 59" width="55.798" height="20.924" rx="5.17" transform="translate(348.043 293.616)" fill="#36d678" opacity="0.1"/>
    <path id="Path_439" data-name="Path 439" d="M676.295,207.564l-25.57-74.226-9.193,1.395-8.23,1.053c.209-2.79.572-12.806-4.534-18.058-.5-1.8-1.8-3.843-4.31-6.145-12.234-11.215-14.78,11.725-14.78,11.725s-2.79,4.84-6.633,11.606l-2.016-.384-.572,4.994c-8.509,15.045-19.815,35.4-19.815,37.315a25.211,25.211,0,0,1-1.528,7.135s-8.663,14.27-11.725,21.413a34.243,34.243,0,0,1-7.672,11.215s-.739.565-1.953,1.395a17.438,17.438,0,0,1,.7-3.983c1.116-3.648,3.71-6.773,4.4-10.525a12.285,12.285,0,0,0,.181-2.727c.16-4.4-1.981-8.732-2.874-13.134-1.039-5.1-.481-10.713-3.2-15.142-2.093-3.383-5.8-5.489-9.66-6.459-3.543-.886-7.031-.572-10.6-.949-3.278-.349-6.41-1.8-9.688-2.337a12.505,12.505,0,0,0-5.315,0c-5.545,1.527-7.282,8.516-11.564,12.359-1.542,1.395-3.432,2.357-4.827,3.885a11.675,11.675,0,0,0-2.63,8.37,17.829,17.829,0,0,0,.182,3.048c.53,3.648,1.939,7.1,2.79,10.678a36.965,36.965,0,0,1,1.039,8.084c0,.614,0,1.228-.056,1.834a6.439,6.439,0,0,1-.942,3.487,9.848,9.848,0,0,1-3.187,2.267,24.727,24.727,0,0,1-8.035-11.4s-.188.237-.509.7v-.7s-6.975-10.239-8.035-18.6l2.427.251,5.58-78.5-14.25-2.092c-.4-4.052-1.479-9.932-4.345-14.222,2.392-4.715,3.6-11.1-6.891-11.732-12.276-.746-11.522,8.816-10.218,14.047a35.189,35.189,0,0,0-.7,8.684l-12.555-1.827-.07,1.018h-2.985l-9.137,80.085,7.784-.391,28.527,2.971c2.281,20.736,5.866,46.362,10.12,52.4a5.144,5.144,0,0,0,.467.579v36.695s-.509,47.429-9.179,55.052a45.335,45.335,0,0,1,16.586-2.6q-.146.471-.293,1a88.99,88.99,0,0,0-2.643,14.284q-.181,1.6-.328,3.334a179.865,179.865,0,0,0,.439,31.9c3.571,37.72,9.179,64.74,9.179,64.74l1.562,21.929s-1.527,37.211,2.546,49.444a18.462,18.462,0,0,0,5.217,3.383c.035.349.077.7.112,1.067s.091.942.14,1.43c-1.827.83-5.238,4.122-5.977,17.053,0,0,1.018,9.688-1.527,14.27s-1.018,17.842,6.626,19.369a40.853,40.853,0,0,0,14.78,0s3.571,0,1.018-12.743l-.446-3.264c-.056-6.312.209-13.071,1.465-15.086,2.546-4.08-1.019-8.154-1.019-8.154s-.251.139-.662.328a60.288,60.288,0,0,1-1.207-13.608,9.755,9.755,0,0,1,.1-1.081,21.47,21.47,0,0,0,4.317-2.978V465.381s-.509-74.421,5.1-75.956c0,0,2.546,27.013,1.528,40.273s1.527,27.53,1.527,27.53l1.018,54.034s.977.467,2.553,1.018l-.1.983c-.621,6.005-1.618,15.073-2.525,20.625a4.1,4.1,0,0,0-2.476,2.86c-1.527,5.1-.509,17.841-3.571,21.413-1.807,2.092-3.969,6.354-2.908,9.367-.663,2.643-.37,6.773,7.5,7.456,11.725,1.018,16.823-5.1,16.823-5.1s1.528-2.546,0-7.135.509-12.743.509-12.743,1.1-6.919-.7-7.826c-.153-.823-.293-1.346-.293-1.346a6.138,6.138,0,0,0-1.611-4.241c-.042-5.336.174-15.205,2.051-21.706.111-.37.223-.7.342-1.081a13.771,13.771,0,0,0,4.31-1.513s-.509-11.725,3.062-19.878,1.527-40.782,1.527-40.782-1.527-8.572.628-15.519a152.288,152.288,0,0,0,5.538-23.575l3.006-21.057s7.916-25.632-2.511-51.941q-.638-1.632-1.395-3.264c-.865-1.89-1.827-3.787-2.9-5.671-.167-.293-.349-.593-.523-.886,1.095-.272,1.716-.432,1.716-.432s-13.761-32.084-5.1-48.426c0,0,4.882-4.882,5.58-10.246.865-7.093,1.806-14.18,3.355-21.155l.272-1.228s.042-.237.112-.663c.2-.126.384-.258.572-.4,14.689-10.727,27.355-55.52,27.355-55.52l4.08-7.672,1.939-4.1-3.976,34.686L623,222.239l19.878-1.527-.056-4.276,15.149-1.179ZM479.186,106.429l-5.524-.809c-.97-4.987-1.625-8.258-1.625-8.258A30.3,30.3,0,0,0,475.1,92.78c2.671,4.087,3.7,9.667,4.087,13.622ZM458.555,95.723c.383,1.311.732,2.155.732,2.155l.7,5.754-1.883-.272a37.794,37.794,0,0,1,.46-7.665ZM632.786,135.9l-7.477.963c1.053-3.1,2.357-8.175,1.6-12.771a6.41,6.41,0,0,0,2.051-5.336c4.443,5.308,4.025,14.682,3.829,17.123Zm-12.415-7.958a18.526,18.526,0,0,0,6.089-3.425c.642,4.513-.7,9.472-1.716,12.415l-6.975.893-1.925-.37Z" transform="translate(-174.868 -80.5)" fill="url(#linear-gradient)"/>
    <path id="Path_440" data-name="Path 440" d="M699.938,152.257l-18.2,7.6L660.6,86.136l4.959-5.887,9.088-1.409Z" transform="translate(-199.844 -23.875)" fill="#36d678"/>
    <path id="Path_441" data-name="Path 441" d="M699.938,152.257l-18.2,7.6L660.6,86.136l4.959-5.887,9.088-1.409Z" transform="translate(-199.844 -23.875)" fill="#fff" opacity="0.2"/>
    <path id="Path_442" data-name="Path 442" d="M654.012,80.86,622.43,84.912l16.189,78.006,31.575-2.455Z" transform="translate(-188.297 -24.486)" fill="#36d678"/>
    <path id="Path_443" data-name="Path 443" d="M654.012,80.86,622.43,84.912l16.189,78.006,31.575-2.455Z" transform="translate(-188.297 -24.486)" fill="#fff" opacity="0.07"/>
    <path id="Path_444" data-name="Path 444" d="M714.617,154.562l-.5-.063c0-.188,2.093-18.6-9.465-20.924l.1-.5C716.8,135.5,714.659,154.374,714.617,154.562Z" transform="translate(-257.111 -96.43)" fill="#535461"/>
    <rect id="Rectangle_60" data-name="Rectangle 60" width="34.79" height="50.923" transform="translate(340.678 111.88)" fill="#774e55"/>
    <rect id="Rectangle_61" data-name="Rectangle 61" width="34.79" height="50.923" transform="translate(340.678 111.88)" opacity="0.2"/>
    <path id="Path_445" data-name="Path 445" d="M660.982,168.39,641.32,169.9l3.027-76.632L650.9,89.24l9.074,1.514Z" transform="translate(-194.011 -27.021)" fill="#36d678"/>
    <path id="Path_446" data-name="Path 446" d="M660.982,168.39,641.32,169.9l3.027-76.632L650.9,89.24l9.074,1.514Z" transform="translate(-194.011 -27.021)" opacity="0.2"/>
    <path id="Path_447" data-name="Path 447" d="M637.558,86.614,606.3,80.56l-9.074,79.157,30.752,7.561Z" transform="translate(-180.673 -24.395)" fill="#36d678"/>
    <path id="Path_448" data-name="Path 448" d="M385.315,35.03h-4.541L371.7,114.18l20.164-1Z" transform="translate(-112.446 -10.621)" fill="#36d678"/>
    <path id="Path_449" data-name="Path 449" d="M385.315,35.03h-4.541L371.7,114.18l20.164-1Z" transform="translate(-112.446 -10.621)" opacity="0.2"/>
    <path id="Path_450" data-name="Path 450" d="M386.645,33.58,381.1,113.239l48.4,5.043,5.545-77.644Z" transform="translate(-115.29 -10.183)" fill="#36d678"/>
    <path id="Path_451" data-name="Path 451" d="M531.693,706.809s-6.047-.5-7.059,17.144c0,0,1.011,9.576-1.513,14.117s-1.011,17.646,6.556,19.16a40.4,40.4,0,0,0,14.647,0s3.529,0,1.011-12.6l-5.043-36.806Z" transform="translate(-201.854 -269.994)" fill="#5c3d53"/>
    <path id="Path_452" data-name="Path 452" d="M531.693,706.809s-6.047-.5-7.059,17.144c0,0,1.011,9.576-1.513,14.117s-1.011,17.646,6.556,19.16a40.4,40.4,0,0,0,14.647,0s3.529,0,1.011-12.6l-5.043-36.806Z" transform="translate(-201.854 -269.994)" opacity="0.05"/>
    <path id="Path_453" data-name="Path 453" d="M569.574,277.109c-.432,7.5,1.067,11.857,1.067,11.857L557.536,292.5s-21.678,3.027-13.106-5.58c2.964-2.964,4.422-8.049,5.057-13.419a74.362,74.362,0,0,0,.37-11.048,98.443,98.443,0,0,0-.893-10.323s31.763-11.09,24.7,7.059a64.587,64.587,0,0,0-3.034,10.113A53.322,53.322,0,0,0,569.574,277.109Z" transform="translate(-208.035 -131.429)" fill="#f8bdc5"/>
    <path id="Path_454" data-name="Path 454" d="M576.5,259.194a64.548,64.548,0,0,0-3.034,10.113,21.72,21.72,0,0,1-20.778-6.849,98.439,98.439,0,0,0-.893-10.323S583.563,241.045,576.5,259.194Z" transform="translate(-210.871 -131.432)" opacity="0.1"/>
    <circle id="Ellipse_26" data-name="Ellipse 26" cx="21.678" cy="21.678" r="21.678" transform="translate(336.395 93.983)" fill="#f8bdc5"/>
    <path id="Path_455" data-name="Path 455" d="M505.827,207.941V214.5l-11.09,28.736-3.027-3.027a5.112,5.112,0,0,1-.46-.572c-7.323-10.406-12.652-79.59-12.652-79.59l-7.051-58.5s-7.561-18.135,9.067-17.144,3.529,16.635,3.529,16.635,11.09,55.457,9.576,57.472,0,8.07,0,8.07,4.541,11.6,4.031,20.164S505.827,207.941,505.827,207.941Z" transform="translate(-186.074 -81.693)" fill="#f8bdc5"/>
    <path id="Path_456" data-name="Path 456" d="M673.365,143.336l-26.219,55.457-4.031,7.547s-12.555,44.3-27.055,54.913a13.241,13.241,0,0,1-2.692,1.555l-3.027-24.2,2.79-7.031.209-.537a33.868,33.868,0,0,0,7.561-11.09c3.027-7.058,11.6-21.176,11.6-21.176a24.924,24.924,0,0,0,1.514-7.059c0-3.027,28.736-52.939,28.736-52.939s2.518-22.689,14.647-11.6S673.365,143.336,673.365,143.336Z" transform="translate(-228.581 -93.721)" fill="#f8bdc5"/>
    <path id="Path_457" data-name="Path 457" d="M548.628,718.879s-17.144,7.059-15.128.5c1.228-3.976.774-11.488.23-16.74-.349-3.425-.739-5.922-.739-5.922l14.647,1.513a11.854,11.854,0,0,0-.844,4.011C546.312,708.933,548.628,718.879,548.628,718.879Z" transform="translate(-205.181 -266.942)" fill="#f8bdc5"/>
    <path id="Path_458" data-name="Path 458" d="M586.615,697.073c-2.644,9.179-1.953,25.165-1.953,25.165s-15.63,2.016-14.117-2.016c1.053-2.79,2.594-16.614,3.432-24.74.37-3.55.6-6.012.6-6.012l14.117,3.027A14.1,14.1,0,0,0,586.615,697.073Z" transform="translate(-216.511 -264.749)" fill="#f8bdc5"/>
    <path id="Path_459" data-name="Path 459" d="M533,696.69l14.647,1.513a11.861,11.861,0,0,0-.844,4.011,14.947,14.947,0,0,1-13.043.4C533.391,699.18,533,696.69,533,696.69Z" transform="translate(-205.184 -266.933)" opacity="0.1"/>
    <path id="Path_460" data-name="Path 460" d="M590.234,692.49a14.107,14.107,0,0,0-2.093,4.582c-4.764.767-9.765-.579-12.631-1.59.37-3.55.6-6.012.6-6.012Z" transform="translate(-218.044 -264.749)" opacity="0.1"/>
    <path id="Path_461" data-name="Path 461" d="M585.451,496.295l-2.971,20.827A150.582,150.582,0,0,1,577,540.439c-2.134,6.87-.621,15.345-.621,15.345s2.016,32.265-1.513,40.335-3.027,19.662-3.027,19.662c-8.07,4.541-19.662-1.011-19.662-1.011l-1.011-53.441s-2.518-14.117-1.513-27.2-1.514-39.826-1.514-39.826c-5.58,1.513-5.043,75.119-5.043,75.119v47.9c-12.1,10.588-22.689,0-22.689,0-4.031-12.1-2.518-48.907-2.518-48.907l-1.514-21.678a636.7,636.7,0,0,1-9.067-64.029,177.86,177.86,0,0,1-.432-31.547q.146-1.716.321-3.3a88,88,0,0,1,2.609-14.124,31.785,31.785,0,0,1,1.534-4.471l54.173,2.518,3.194.146,7.672.356c.837,1.262,1.625,2.546,2.358,3.829,1.06,1.862,2.016,3.739,2.867,5.58.488,1.074.948,2.155,1.395,3.229C593.3,470.928,585.451,496.295,585.451,496.295Z" transform="translate(-197.128 -186.03)" fill="#5e52ad"/>
    <path id="Path_462" data-name="Path 462" d="M526.17,436.467s-2.371,23.714-19.09,16.851q.147-1.716.321-3.3c3.934,1.067,14.822,2.539,15.233-13.559Z" transform="translate(-197.342 -188.209)" opacity="0.1"/>
    <path id="Path_463" data-name="Path 463" d="M608.627,446.012c-11.578,4.136-15.945-6.877-17.437-13.162l3.194.147c1.737,9.883,8.67,10.462,12.89,9.765Q607.985,444.414,608.627,446.012Z" transform="translate(-222.787 -187.116)" opacity="0.1"/>
    <path id="Path_464" data-name="Path 464" d="M537.416,721.7c-2.574-.4-6.508-1.82-5.273-6.766,0,0-4.764-1.646-4.261,18.016,0,0-.5,9.577-1.514,11.6s0,14.117,10.588,13.106c0,0,7.561,2.518,9.576-1.513,0,0-1.513-23.191,1.011-27.2s-1.011-8.07-1.011-8.07-3.571,1.981-6.138,1.395A27.047,27.047,0,0,0,537.416,721.7Z" transform="translate(-203.085 -272.442)" fill="#5c3d53"/>
    <path id="Path_465" data-name="Path 465" d="M560,761.9s-5.043,8.572,6.557,9.577,16.635-5.043,16.635-5.043,1.514-2.518,0-7.059.5-12.6.5-12.6,1.514-9.577-2.016-7.561S560,761.9,560,761.9Z" transform="translate(-213.021 -279.712)" fill="#5c3d53"/>
    <path id="Path_466" data-name="Path 466" d="M560,761.9s-5.043,8.572,6.557,9.577,16.635-5.043,16.635-5.043,1.514-2.518,0-7.059.5-12.6.5-12.6,1.514-9.577-2.016-7.561S560,761.9,560,761.9Z" transform="translate(-213.021 -279.712)" opacity="0.05"/>
    <path id="Path_467" data-name="Path 467" d="M573.09,727.5s-6.047-2.518-7.561,2.518-.5,17.646-3.529,21.176-7.058,13.106,5.043,12.6,14.647-4.541,14.647-4.541-.5-12.6,1.011-16.133,0-9.067,0-9.067S583.169,726.96,573.09,727.5Z" transform="translate(-213.001 -276.062)" fill="#5c3d53"/>
    <circle id="Ellipse_27" data-name="Ellipse 27" cx="1.011" cy="1.011" r="1.011" transform="translate(283.449 29.445)" opacity="0.2"/>
    <circle id="Ellipse_28" data-name="Ellipse 28" cx="1.011" cy="1.011" r="1.011" transform="translate(304.625 31.963)" opacity="0.2"/>
    <path id="Path_468" data-name="Path 468" d="M491.971,117.38h-.5c0-.216.356-21.482-11.857-23.442a6.424,6.424,0,0,0-5.845,1.618c-5.043,5-2.957,19.125-2.936,19.264l-.5.077c-.091-.593-2.141-14.522,3.083-19.7a6.886,6.886,0,0,1,6.277-1.765C492.334,95.458,491.978,117.163,491.971,117.38Z" transform="translate(-186.084 -84.399)" fill="#535461"/>
    <path id="Path_469" data-name="Path 469" d="M704.844,158.249l-.453-.216c.077-.167,7.847-17-2.42-22.863l.251-.439C712.885,140.826,704.927,158.075,704.844,158.249Z" transform="translate(-256.3 -96.93)" fill="#535461"/>
    <path id="Path_470" data-name="Path 470" d="M570.642,299.65l-13.106,3.529s-21.678,3.027-13.106-5.58c2.964-2.964,4.422-8.049,5.057-13.42,3.425,5.371,7.547,3.843,7.547,3.843l12.5-.244h.049C569.142,295.326,570.642,299.65,570.642,299.65Z" transform="translate(-208.035 -142.141)" opacity="0.1"/>
    <path id="Path_471" data-name="Path 471" d="M616.069,307.645a13.258,13.258,0,0,1-2.693,1.555L610.35,285l2.79-7.031.7-.537C620.136,279.222,616.885,302.407,616.069,307.645Z" transform="translate(-228.584 -140.099)" opacity="0.1"/>
    <path id="Path_472" data-name="Path 472" d="M515.117,261.54V268.1l-11.09,28.736L501,293.806a5.089,5.089,0,0,1-.46-.572C501.851,278.252,515.117,261.54,515.117,261.54Z" transform="translate(-195.364 -135.292)" opacity="0.1"/>
    <path id="Path_473" data-name="Path 473" d="M580.215,436.089c-7.052,1.765-43.864,10.413-54.787,2.225a24.892,24.892,0,0,0-14.138-4.6,31.817,31.817,0,0,1,1.535-4.471L567,431.758l3.195.147,7.672.356Q579.12,434.164,580.215,436.089Z" transform="translate(-198.616 -186.024)" opacity="0.1"/>
    <path id="Path_474" data-name="Path 474" d="M474.1,90.59s7.561,12.6,12.6,0" transform="translate(-187.365 -83.576)" fill="#f8bdc5"/>
    <path id="Path_475" data-name="Path 475" d="M696.944,127.81s-3.027,15.128,9.067,8.07" transform="translate(-254.678 -94.836)" fill="#f8bdc5"/>
    <g id="Group_1103" data-name="Group 1103" transform="translate(313.88 243.237)" opacity="0.1">
      <path id="Path_476" data-name="Path 476" d="M556.177,527.477c-.244-3.069-.426-4.987-.426-4.987-5.58,1.513-5.043,75.119-5.043,75.119v47.9a17.534,17.534,0,0,1-10.009,4.652c3.641.321,7.979-.7,12.555-4.652v-47.9S552.864,544.272,556.177,527.477Z" transform="translate(-521.394 -457.471)"/>
      <path id="Path_477" data-name="Path 477" d="M584.728,444.928c-.426-1.074-.879-2.155-1.395-3.229-.851-1.869-1.807-3.745-2.867-5.58-.7-1.283-1.521-2.56-2.358-3.829l-7.672-.356-3.194-.146-54.173-2.518-.049.112,51.7,2.406,3.194.147,7.672.356c.837,1.262,1.625,2.546,2.358,3.829,1.06,1.862,2.016,3.738,2.867,5.58.488,1.074.948,2.155,1.395,3.229,10.309,26.016,2.483,51.37,2.483,51.37l-2.971,20.827a150.589,150.589,0,0,1-5.482,23.317c-2.134,6.87-.621,15.344-.621,15.344s2.016,32.266-1.514,40.335-3.027,19.662-3.027,19.662a14.642,14.642,0,0,1-6.319,1.744,16.041,16.041,0,0,0,8.837-1.744s-.5-11.6,3.027-19.662,1.513-40.335,1.513-40.335-1.513-8.481.621-15.344a150.547,150.547,0,0,0,5.482-23.317l2.971-20.827S595.037,470.931,584.728,444.928Z" transform="translate(-513.02 -429.27)"/>
    </g>
    <path id="Path_478" data-name="Path 478" d="M553.129,281.977c6.975,3.285,23.3-9.332,23.3-9.332,7.058,2.016,2.016,31.261,2.016,31.261l-.272,1.214c-1.534,6.9-2.462,13.908-3.32,20.924-.649,5.294-5.482,10.134-5.482,10.134-8.572,16.133,5.043,47.9,5.043,47.9s-43.865,11.6-55.959,2.518-30.25-2.016-30.25-2.016c8.572-7.561,9.067-54.452,9.067-54.452V293.855c1.011-15.128,14.647-32.266,14.647-32.266C517.494,277.221,533,278.253,533,278.253c3.439,5.58,7.672,4.011,7.672,4.011Z" transform="translate(-191.631 -135.307)" fill="#eb6475"/>
    <path id="Path_479" data-name="Path 479" d="M553.94,202.438a12.366,12.366,0,0,0-5.252,0c-5.482,1.514-7.205,8.426-11.439,12.22-1.521,1.395-3.4,2.33-4.778,3.843-2.455,2.692-2.95,6.682-2.427,10.288s1.918,7.024,2.79,10.56a36.536,36.536,0,0,1,.969,10.825,6.37,6.37,0,0,1-.934,3.425c-1.011,1.395-2.874,1.834-4.185,2.95-4,3.446-.7,10.595-3.634,15-1.262,1.9-3.627,3.16-4.108,5.392-.342,1.583.384,3.181,1.095,4.638,1.869,3.836,3.808,7.777,6.975,10.636s7.079,4.3,10.971,5.754c1.179.439,2.657.823,3.557-.049,1.109-1.088.272-2.929-.5-4.276-1.214-2.092-2.162-4.617-1.451-6.975s2.992-3.92,4.527-5.887c3.955-5.092,2.657-12.4.7-18.539-.83-2.588-1.765-5.343-1.06-7.972.3-1.13.893-2.155,1.269-3.264,1.674-4.938-1.137-10.358-.314-15.505a22.278,22.278,0,0,1,2.092-5.768l4.429-9.521a9.411,9.411,0,0,1,1.96-3.083,6.975,6.975,0,0,1,4.882-1.521,13.252,13.252,0,0,1,9.506,4.331c4.743,5.273,4.443,13.252,3.871,20.283l-.411,5.078c-.3,3.655-.7,7.554-3,10.4-1.792,2.2-4.687,3.7-5.427,6.452-.642,2.365.565,4.931-.07,7.3-.949,3.536-5.315,4.813-7.623,7.672a7.847,7.847,0,0,0-.572,8.823c.879,1.395,2.281,2.79,2.092,4.429-.16,1.318-1.346,2.385-1.339,3.711a2.95,2.95,0,0,0,2.141,2.56,8.649,8.649,0,0,0,3.536.167l12.506-1.13a4.4,4.4,0,0,0,2.225-.614,3.916,3.916,0,0,0,1.276-2.853c.5-4.45-.7-9.311,1.527-13.2.7-1.248,1.723-2.288,2.5-3.487,4.269-6.7-.035-15.777,2.288-23.373,1.1-3.606,3.669-6.7,4.352-10.406.907-4.938-1.667-9.765-2.664-14.647-1.025-5.043-.474-10.595-3.167-14.982-2.058-3.348-5.74-5.433-9.549-6.389-3.487-.879-6.975-.565-10.462-.942C560.28,204.4,557.183,202.961,553.94,202.438Z" transform="translate(-201.51 -117.327)" opacity="0.1"/>
    <path id="Path_480" data-name="Path 480" d="M553.94,200.988a12.365,12.365,0,0,0-5.252,0c-5.482,1.513-7.205,8.426-11.439,12.22-1.521,1.395-3.4,2.33-4.778,3.843-2.455,2.692-2.95,6.682-2.427,10.288s1.918,7.024,2.79,10.56a36.536,36.536,0,0,1,.969,10.825,6.369,6.369,0,0,1-.934,3.425c-1.011,1.395-2.874,1.834-4.185,2.95-4,3.446-.7,10.595-3.634,15-1.262,1.9-3.627,3.16-4.108,5.391-.342,1.583.384,3.181,1.095,4.638,1.869,3.836,3.808,7.777,6.975,10.637s7.079,4.3,10.971,5.754c1.179.439,2.657.823,3.557-.049,1.109-1.088.272-2.929-.5-4.276-1.214-2.092-2.162-4.617-1.451-6.975s2.992-3.92,4.527-5.887c3.955-5.092,2.657-12.4.7-18.539-.83-2.588-1.765-5.343-1.06-7.972.3-1.13.893-2.155,1.269-3.264,1.674-4.938-1.137-10.358-.314-15.505a22.276,22.276,0,0,1,2.092-5.768l4.429-9.521a9.412,9.412,0,0,1,1.96-3.083,6.975,6.975,0,0,1,4.882-1.52,13.251,13.251,0,0,1,9.506,4.331c4.743,5.273,4.443,13.252,3.871,20.283l-.411,5.078c-.3,3.655-.7,7.554-3,10.4-1.792,2.2-4.687,3.7-5.427,6.452-.642,2.364.565,4.931-.07,7.3-.949,3.536-5.315,4.813-7.623,7.672a7.847,7.847,0,0,0-.572,8.823c.879,1.395,2.281,2.79,2.092,4.429-.16,1.318-1.346,2.385-1.339,3.711a2.95,2.95,0,0,0,2.141,2.56,8.65,8.65,0,0,0,3.536.167l12.506-1.13a4.4,4.4,0,0,0,2.225-.614,3.916,3.916,0,0,0,1.276-2.853c.5-4.45-.7-9.311,1.527-13.2.7-1.249,1.723-2.288,2.5-3.487,4.269-6.7-.035-15.777,2.288-23.373,1.1-3.606,3.669-6.7,4.352-10.406.907-4.938-1.667-9.765-2.664-14.647-1.025-5.043-.474-10.595-3.167-14.982-2.058-3.348-5.74-5.433-9.549-6.389-3.487-.879-6.975-.565-10.462-.942C560.28,202.955,557.183,201.518,553.94,200.988Z" transform="translate(-201.51 -116.888)" fill="#774e55"/>
    <path id="Path_481" data-name="Path 481" d="M529.75,365.179s10.086,3.027,24.7-3.529h7.554s.5,7.058,20.164,4.031" transform="translate(-204.201 -165.577)" opacity="0.1"/>
    <ellipse id="Ellipse_29" data-name="Ellipse 29" cx="374.547" cy="34.177" rx="374.547" ry="34.177" transform="translate(0 447.062)" fill="#36d678" opacity="0.1"/>
    <rect id="Rectangle_62" data-name="Rectangle 62" width="55.798" height="20.924" rx="5.17" transform="translate(175.765 179.926)" fill="#36d678" opacity="0.1"/>
    <rect id="Rectangle_63" data-name="Rectangle 63" width="55.798" height="20.924" rx="5.17" transform="translate(200.875 202.943)" fill="#36d678" opacity="0.1"/>
    <rect id="Rectangle_64" data-name="Rectangle 64" width="55.798" height="20.924" rx="5.17" transform="translate(420.581 181.321)" fill="#36d678" opacity="0.1"/>
    <rect id="Rectangle_65" data-name="Rectangle 65" width="55.798" height="20.924" rx="5.17" transform="translate(445.69 204.338)" fill="#36d678" opacity="0.1"/>
    <rect id="Rectangle_66" data-name="Rectangle 66" width="55.798" height="20.924" rx="5.17" transform="translate(158.328 225.96)" fill="#36d678" opacity="0.1"/>
    <rect id="Rectangle_67" data-name="Rectangle 67" width="55.798" height="20.924" rx="5.17" transform="translate(214.127 307.565)" fill="#36d678" opacity="0.1"/>
    <rect id="Rectangle_68" data-name="Rectangle 68" width="55.798" height="20.924" rx="5.17" transform="translate(239.236 330.582)" fill="#36d678" opacity="0.1"/>
    <rect id="Rectangle_69" data-name="Rectangle 69" width="55.798" height="20.924" rx="5.17" transform="translate(196.69 353.599)" fill="#36d678" opacity="0.1"/>
    <rect id="Rectangle_70" data-name="Rectangle 70" width="55.798" height="20.924" rx="5.17" transform="translate(438.716 366.154)" fill="#36d678" opacity="0.1"/>
    <rect id="Rectangle_71" data-name="Rectangle 71" width="55.798" height="20.924" rx="5.17" transform="translate(396.169 389.171)" fill="#36d678" opacity="0.1"/>
    <g id="Group_1104" data-name="Group 1104" transform="translate(627.923 269.541)" opacity="0.1">
      <path id="Path_482" data-name="Path 482" d="M1007.2,675s-10.1-51.167,10.7-86.236a79.023,79.023,0,0,0,10.9-48.782,132.9,132.9,0,0,0-4.882-23.812" transform="translate(-975.819 -481.864)" fill="none" stroke="#535461" stroke-miterlimit="10" stroke-width="2"/>
      <path id="Path_483" data-name="Path 483" d="M1041.246,479.11c-.558,6.1-13.252,22.794-13.252,22.794s-9.43-18.72-8.865-24.83a11.1,11.1,0,1,1,22.113,2.03Z" transform="translate(-980.163 -466.984)" fill="#36d678"/>
      <path id="Path_484" data-name="Path 484" d="M1062.405,527.316c-3.787,4.82-23.5,11.941-23.5,11.941s2.26-20.841,6.047-25.66a11.1,11.1,0,1,1,17.437,13.719Z" transform="translate(-986.151 -479.687)" fill="#36d678"/>
      <path id="Path_485" data-name="Path 485" d="M1052.426,608.7c-5.706,2.246-26.316-1.562-26.316-1.562s12.471-16.851,18.177-19.1a11.1,11.1,0,1,1,8.14,20.661Z" transform="translate(-982.282 -503.372)" fill="#36d678"/>
      <path id="Path_486" data-name="Path 486" d="M1031.745,670.216c-5.245,3.18-26.2,2.908-26.2,2.908s9.444-18.713,14.689-21.894a11.1,11.1,0,1,1,11.516,18.987Z" transform="translate(-976.059 -522.234)" fill="#36d678"/>
      <path id="Path_487" data-name="Path 487" d="M1004.3,543.051c3.99,4.659,23.986,10.936,23.986,10.936s-3.139-20.729-7.121-25.381a11.1,11.1,0,1,0-16.866,14.446Z" transform="translate(-974.876 -484.452)" fill="#36d678"/>
      <path id="Path_488" data-name="Path 488" d="M979.855,613.919c5.2,3.251,26.163,3.257,26.163,3.257s-9.193-18.832-14.4-22.089a11.1,11.1,0,1,0-11.767,18.833Z" transform="translate(-966.709 -505.227)" fill="#36d678"/>
      <path id="Path_489" data-name="Path 489" d="M967.267,687.194c4.575,4.08,25.235,7.637,25.235,7.637s-5.88-20.122-10.462-24.2a11.1,11.1,0,1,0-14.772,16.565Z" transform="translate(-963.273 -527.662)" fill="#36d678"/>
    </g>
    <g id="Group_1105" data-name="Group 1105" transform="translate(555.021 348.083)" opacity="0.1">
      <path id="Path_490" data-name="Path 490" d="M882.059,690.8s-5.419-27.474,5.74-46.306a42.435,42.435,0,0,0,5.852-26.2,71.367,71.367,0,0,0-2.609-12.785" transform="translate(-865.403 -587.432)" fill="none" stroke="#535461" stroke-miterlimit="10" stroke-width="2"/>
      <path id="Path_491" data-name="Path 491" d="M900.342,585.756c-.3,3.278-7.114,12.241-7.114,12.241s-5.064-10.051-4.764-13.329a5.963,5.963,0,0,1,11.857,1.088Z" transform="translate(-867.735 -579.591)" fill="#36d678"/>
      <path id="Path_492" data-name="Path 492" d="M911.694,611.637c-2.036,2.588-12.624,6.41-12.624,6.41s1.213-11.16,3.25-13.775a5.963,5.963,0,0,1,9.374,7.365Z" transform="translate(-870.948 -586.41)" fill="#36d678"/>
      <path id="Path_493" data-name="Path 493" d="M906.341,655.237c-3.062,1.207-14.131-.837-14.131-.837s6.7-9.067,9.765-10.253a5.963,5.963,0,0,1,4.373,11.09Z" transform="translate(-868.872 -599.014)" fill="#36d678"/>
      <path id="Path_494" data-name="Path 494" d="M895.239,688.17c-2.79,1.709-14.068,1.562-14.068,1.562s5.071-10.051,7.889-11.76a5.964,5.964,0,1,1,6.18,10.2Z" transform="translate(-865.532 -609.07)" fill="#36d678"/>
      <path id="Path_495" data-name="Path 495" d="M880.5,619.95c2.141,2.5,12.883,5.873,12.883,5.873s-1.681-11.16-3.822-13.629a5.966,5.966,0,0,0-9.068,7.756Z" transform="translate(-864.893 -588.823)" fill="#36d678"/>
      <path id="Path_496" data-name="Path 496" d="M867.373,657.993c2.79,1.743,14.047,1.751,14.047,1.751s-4.938-10.114-7.728-11.857A5.963,5.963,0,1,0,867.373,658Z" transform="translate(-860.51 -599.977)" fill="#36d678"/>
      <path id="Path_497" data-name="Path 497" d="M860.71,697.4c2.455,2.19,13.552,4.1,13.552,4.1s-3.153-10.8-5.58-12.994a5.963,5.963,0,1,0-7.938,8.9Z" transform="translate(-858.75 -612.082)" fill="#36d678"/>
    </g>
    <g id="Group_1106" data-name="Group 1106" transform="translate(113.515 352.268)" opacity="0.1">
      <path id="Path_498" data-name="Path 498" d="M249.059,696.8s-5.419-27.474,5.74-46.306a42.435,42.435,0,0,0,5.852-26.2,71.367,71.367,0,0,0-2.609-12.785" transform="translate(-232.403 -593.432)" fill="none" stroke="#535461" stroke-miterlimit="10" stroke-width="2"/>
      <path id="Path_499" data-name="Path 499" d="M267.343,591.756c-.3,3.278-7.114,12.241-7.114,12.241s-5.064-10.051-4.764-13.329a5.963,5.963,0,0,1,11.857,1.088Z" transform="translate(-234.735 -585.592)" fill="#36d678"/>
      <path id="Path_500" data-name="Path 500" d="M278.694,617.637c-2.037,2.588-12.624,6.41-12.624,6.41s1.214-11.16,3.25-13.775a5.963,5.963,0,0,1,9.374,7.365Z" transform="translate(-237.948 -592.41)" fill="#36d678"/>
      <path id="Path_501" data-name="Path 501" d="M273.341,661.238c-3.062,1.206-14.131-.837-14.131-.837s6.7-9.067,9.765-10.253a5.963,5.963,0,0,1,4.373,11.09Z" transform="translate(-235.872 -605.015)" fill="#36d678"/>
      <path id="Path_502" data-name="Path 502" d="M262.238,694.17c-2.79,1.709-14.068,1.562-14.068,1.562s5.071-10.051,7.888-11.76a5.963,5.963,0,1,1,6.18,10.2Z" transform="translate(-232.532 -615.07)" fill="#36d678"/>
      <path id="Path_503" data-name="Path 503" d="M247.5,625.95c2.141,2.5,12.882,5.873,12.882,5.873s-1.681-11.159-3.822-13.629a5.966,5.966,0,1,0-9.067,7.756Z" transform="translate(-231.893 -594.823)" fill="#36d678"/>
      <path id="Path_504" data-name="Path 504" d="M234.374,663.993c2.79,1.744,14.047,1.751,14.047,1.751s-4.938-10.113-7.728-11.857A5.963,5.963,0,1,0,234.373,664Z" transform="translate(-227.51 -605.978)" fill="#36d678"/>
      <path id="Path_505" data-name="Path 505" d="M227.71,703.4c2.455,2.19,13.552,4.1,13.552,4.1s-3.153-10.8-5.58-12.994a5.963,5.963,0,1,0-7.938,8.9Z" transform="translate(-225.75 -618.082)" fill="#36d678"/>
    </g>
  </g>
</svg>
