<svg id="recieved_payment" xmlns="http://www.w3.org/2000/svg" xmlns:xlink="http://www.w3.org/1999/xlink" width="1359.42" height="878.912" viewBox="0 0 1359.42 878.912">
  <defs>
    <linearGradient id="linear-gradient" x1="0.5" y1="1" x2="0.5" gradientUnits="objectBoundingBox">
      <stop offset="0" stop-color="gray" stop-opacity="0.251"/>
      <stop offset="0.54" stop-color="gray" stop-opacity="0.122"/>
      <stop offset="1" stop-color="gray" stop-opacity="0.102"/>
    </linearGradient>
  </defs>
  <rect id="Rectangle_83" data-name="Rectangle 83" width="1359.42" height="9.934" transform="translate(0 868.978)" fill="#85848b"/>
  <path id="Path_559" data-name="Path 559" d="M959.667,654.988c0,7.642-44.542,29.919-97.451,29.919s-94.135-22.277-94.135-29.919,42.884-5.181,95.845-5.181S959.667,647.333,959.667,654.988Z" transform="translate(117.347 38.581)" fill="#504f60"/>
  <path id="Path_560" data-name="Path 560" d="M959.667,653.72c0,7.642-44.542,29.919-97.451,29.919S768.08,661.362,768.08,653.72" transform="translate(117.347 39.848)" opacity="0.2"/>
  <path id="Path_561" data-name="Path 561" d="M505.451,550.088c8.587,1.1,17.5,1.8,25.723-.868,1.3-.4,2.72-1.3,2.591-2.59a3.138,3.138,0,0,0-.583-1.3,80.011,80.011,0,0,1-7.771-14.8,1.3,1.3,0,0,0-.479-.674,1.215,1.215,0,0,0-.829,0c-3.795,1-7.072,3.445-10.841,4.494a15.416,15.416,0,0,1-5.906.44c-1.71-.194-4.041-1.606-5.6-1.425C502.641,539.027,504.791,544.311,505.451,550.088Z" transform="translate(38.729 3.262)" fill="#36d678"/>
  <path id="Path_562" data-name="Path 562" d="M632.149,541.085c5.66-3.885,11.527-7.965,14.869-13.962a2.424,2.424,0,0,0,.4-1.2,2.486,2.486,0,0,0-.479-1.166,48.131,48.131,0,0,0-12.084-13.042,35.232,35.232,0,0,0-6.735,6.217c-1.425,1.5-5.362,3.885-5.4,6.178,0,1.3,1.5,2.8,2.2,3.885.946,1.4,1.839,2.824,2.694,4.274C628.108,532.977,632.6,540.8,632.149,541.085Z" transform="translate(74.436 -2.073)" fill="#36d678"/>
  <path id="Path_563" data-name="Path 563" d="M550.6,565.324a5.762,5.762,0,0,1-1.036,3.756,5.093,5.093,0,0,1-2.176,1.3c-12.007,4.3-25.9-1.062-37.885,3.173-2.461.868-4.792,2.124-7.266,2.953a39.519,39.519,0,0,1-9.066,1.606c-4.235.4-8.5.661-12.745.777a30.657,30.657,0,0,1-9.61-.842,11.542,11.542,0,0,1-7.37-5.842,5.609,5.609,0,0,1-.363-4.157,4.48,4.48,0,0,1,.79-1.3,11.356,11.356,0,0,1,2.824-2.292l4.417-2.85a29.651,29.651,0,0,1,6.7-3.549c1.749-.57,3.6-.816,5.375-1.3,6.2-1.813,10.944-6.735,15.348-11.462l6.01-6.411a6.051,6.051,0,0,1,2.085-1.671,5.776,5.776,0,0,1,2.59-.246,34.631,34.631,0,0,1,16.385,5.492,21.245,21.245,0,0,0,4.041,2.383c3.523,1.373,8.043.337,11.294-1.4,1.542-.829,1.2-1.3,1.852-2.772s2.228-2.422,3.6-1.075a3.806,3.806,0,0,1,.854,1.632c1.3,4.274.8,8.872.8,13.353a5.878,5.878,0,0,0,.259,2.072,11.7,11.7,0,0,0,1.178,1.917,4.369,4.369,0,0,1,.246.492,13.172,13.172,0,0,1,.868,6.256Z" transform="translate(27.24 5.369)" fill="#514e7f"/>
  <path id="Path_564" data-name="Path 564" d="M550.6,560.285a5.762,5.762,0,0,1-1.036,3.756,5.093,5.093,0,0,1-2.176,1.3c-12.007,4.3-25.9-1.062-37.885,3.173-2.461.868-4.792,2.124-7.266,2.953a39.518,39.518,0,0,1-9.066,1.606c-4.235.4-8.5.661-12.745.778a30.657,30.657,0,0,1-9.61-.842,11.542,11.542,0,0,1-7.37-5.842,5.609,5.609,0,0,1-.363-4.157,4.485,4.485,0,0,1,.79-1.3c.7,1.464,1.2,3.406,1.645,4.106a8.406,8.406,0,0,0,5.621,4.054,13.971,13.971,0,0,0,5.181-.661c10.88-2.694,22.446-2.733,32.9-6.813,3.588-1.412,7.007-3.29,10.776-4.145s7.771-.622,11.657-.945c6.139-.492,12.084-2.344,18.133-3.316a13.176,13.176,0,0,1,.816,6.295Z" transform="translate(27.24 10.408)" fill="#464353"/>
  <path id="Path_565" data-name="Path 565" d="M666.73,538.507c-.57,4.559-3.458,8.484-6.631,11.812s-6.761,6.321-9.286,10.154c-3.109,4.753-4.508,10.647-8.548,14.662a23.449,23.449,0,0,1-5.181,3.691,36.118,36.118,0,0,1-6.67,3.07c-6.036,1.93-12.538,1.49-18.845,1.023a16.95,16.95,0,0,1-5.984-1.153,18,18,0,0,1-2.487-1.528,11.874,11.874,0,0,1-3.886-3.885,3.885,3.885,0,0,1-.375-2.823,6.63,6.63,0,0,1,1.8-2.746,42.752,42.752,0,0,1,4.559-4.106,27.282,27.282,0,0,0,5.932-5.181,16.727,16.727,0,0,0,2.292-5.181,45.97,45.97,0,0,0,1.671-9.908,31.378,31.378,0,0,1,.686-6.631c.959-3.419,3.5-6.476,3.212-10.012a2.5,2.5,0,0,1,.129-1.516,2.112,2.112,0,0,1,1.192-.738,21.112,21.112,0,0,1,6.191-1.437,7.215,7.215,0,0,1,5.751,2.253c.881,1.062,1.464,2.591,2.759,3a4.375,4.375,0,0,0,1.969.078c3.186-.324,6.554-.725,9.066-2.784a11.307,11.307,0,0,0,3.756-8.25c0-1.179-.531-2.409,1.3-2.59,1.373-.182,2.461,1.3,3.16,2.2,2.525,3.38,5.116,6.917,6.062,11.035a3.245,3.245,0,0,1,1.153-.22,5.012,5.012,0,0,1,4.132,2.111,8.224,8.224,0,0,1,1.126,5.6Z" transform="translate(67.352 -0.285)" fill="#514e7f"/>
  <path id="Path_566" data-name="Path 566" d="M666.619,535.581c-.57,4.559-3.458,8.484-6.631,11.812s-6.761,6.321-9.287,10.154c-3.109,4.753-4.508,10.646-8.548,14.662a23.441,23.441,0,0,1-5.181,3.691,36.173,36.173,0,0,1-6.67,3.07c-6.036,1.93-12.538,1.49-18.845,1.023a16.958,16.958,0,0,1-5.984-1.153,18.052,18.052,0,0,1-2.487-1.528,11.876,11.876,0,0,1-3.885-3.886,9.474,9.474,0,0,1,3.885-.933c2.8.156,4.844,2.8,7.525,3.614,3.821,1.153,7.628-1.542,11.5-2.461,2.526-.6,5.181-.44,7.681-1.3a18.986,18.986,0,0,0,5.686-3.445,28.94,28.94,0,0,0,6.074-5.854,37.609,37.609,0,0,0,3.562-7.111,101.666,101.666,0,0,1,7.2-13.781,9.737,9.737,0,0,1,1.463-1.917,20.386,20.386,0,0,1,1.982-1.437c2.59-1.956,3.665-5.181,4.572-8.341a14.6,14.6,0,0,1,1.023-2.785,5.012,5.012,0,0,1,4.132,2.111A8.222,8.222,0,0,1,666.619,535.581Z" transform="translate(67.464 2.641)" fill="#464353"/>
  <path id="Path_567" data-name="Path 567" d="M442.691,229.295a27.471,27.471,0,0,1,7.771,9.066c1.813,3.549,12.266,31.085,11.657,35.087,3.406-3.432,16.838-3.989,20.283-7.422,1.438-1.438,9.2-8.613,10.362-10.284s9.818-5.181,10.763-6.942c3.536-6.334-25.075-30.334-21.41-36.589a1.631,1.631,0,0,0,.3-.984,1.6,1.6,0,0,0-.479-.764c-2.344-2.4-5.453-3.886-8.276-5.66s-5.544-4.248-6.308-7.512a27.2,27.2,0,0,0-7.318,4.948q-7.875,6.748-15.478,13.768c-1.982,1.839-5.815,4.287-6.735,6.916C436.734,225.746,440.8,227.753,442.691,229.295Z" transform="translate(19.8 -94.891)" fill="#a1616a"/>
  <path id="Path_568" data-name="Path 568" d="M485.516,214.13a84.308,84.308,0,0,0-12.253,10.025c-3.549,3.51-6.916,7.577-7.771,12.486-.363,1.93-.311,3.886-.609,5.841-1.3,8.484-8.626,14.7-11.864,22.64a39.254,39.254,0,0,0-2.059,7.577,89.539,89.539,0,0,0-1.49,14.869c-.078,4.831,4.663,8.16,6.4,12.667s2.2,9.144,3.083,13.768c1.658,8.73,4.7,17.148,7.771,25.516,6.385,17.641,27.083,66.405,33.468,84.059,19.57-4.909,71.664-16.19,88.993-26.539,5.777-3.445-40.086-42.314-33.908-45a2.305,2.305,0,0,0,1.736-3.251c-6.178-27.018-25.5-49.218-34.271-75.523-3.044-9.131-8.51-16.928-12.654-25.606-3.756-7.862-5.764-16.553-10.258-24.026a15.155,15.155,0,0,0-3.277-4.08,19.328,19.328,0,0,0-3.614-2.189C490.373,216.125,487.99,215.386,485.516,214.13Z" transform="translate(23.292 -89.92)" fill="#514e7f"/>
  <circle id="Ellipse_44" data-name="Ellipse 44" cx="30.632" cy="30.632" r="30.632" transform="translate(432.896 70.071)" fill="#a1616a"/>
  <path id="Path_569" data-name="Path 569" d="M466.4,207.71a10.271,10.271,0,0,1,11.514-1.658c2.072,1.075,3.886,3.251,3.419,5.531l15.193.233a30.5,30.5,0,0,1,7.2.661,10.464,10.464,0,0,1,6.01,3.769c.181.246.389.544.7.583a1.115,1.115,0,0,0,.7-.233,13.185,13.185,0,0,1,7.564-1.3c8.212.531,15.8,4.637,22.239,9.766a7.189,7.189,0,0,1,2.59,3.225c.531,1.723-.1,3.886,1.3,5.116,0,14.247,4.9,27.562,8.16,41.447.583,2.474,2.953,4.663,4.6,6.606a26.645,26.645,0,0,1,4.909,7.331c2.772,7.2-1.049,15.672,1.645,22.9,1.14,3.057,3.342,5.569,5.181,8.224a21.27,21.27,0,0,1,4.429,10.621c.117,1.736-.1,3.484,0,5.181a31.359,31.359,0,0,0,1.3,6.878q1.658,6.269,3.471,12.525c1.969,6.735,4.533,14,10.569,17.589-14.571,2.474-29.932,4.9-43.817-.168a22.718,22.718,0,0,1-5.466-2.733c-5.012-3.575-7.435-9.688-9.6-15.465-2.409-6.476-4.857-13.069-5.349-19.959a22.9,22.9,0,0,0-.919-6.476c-1.412-3.756-5.181-6.023-8.6-8.108a41.289,41.289,0,0,1-10.362-8.056,16.1,16.1,0,0,1-4.2-12.1c.259-2.137,1.1-4.2,1.178-6.346s-.881-4.611-2.94-5.181c-10.608-3.212-15.672-15.776-18.029-26.6a85.406,85.406,0,0,1-1.36-16.967l-.143-11.048a14.584,14.584,0,0,1-4.766-10.478,12.451,12.451,0,0,0-.065-3.471,9.573,9.573,0,0,0-2.435-3.691,32.953,32.953,0,0,1-5.815-8.147Z" transform="translate(28.29 -92.618)" fill="#464353"/>
  <path id="Path_570" data-name="Path 570" d="M441.7,236.205c-.35,3.419.427,6.929-.337,10.284-.3,1.3-.816,2.59-1.191,3.795A22.277,22.277,0,0,0,441.58,264.7a80.3,80.3,0,0,0,7.37,12.758,20.723,20.723,0,0,1,2.357,4.417,22.859,22.859,0,0,1,.907,5.038,156.5,156.5,0,0,0,3.6,20.361c1.451,5.8,17.926,55.409,21.759,60.007a4.883,4.883,0,0,0,2.953,2.008,5.376,5.376,0,0,0,2.513-.518l7.771-2.979a5.077,5.077,0,0,0,1.8-.984,4.637,4.637,0,0,0,1.114-3.057c.557-6.321-15.957-56.277-18.055-62.248-6.347-18.029-14.791-35.411-18.923-54.075-1.153-5.181-1.761-13.159-5.557-17.291-1.567-1.71-1.036-.984-2.914-.091a21.246,21.246,0,0,0-2.746,1.438A8.988,8.988,0,0,0,441.7,236.205Z" transform="translate(20.368 -86.091)" fill="#464353"/>
  <path id="Path_571" data-name="Path 571" d="M556.62,320.79" transform="translate(54.923 -58.434)" fill="#464353"/>
  <path id="Path_572" data-name="Path 572" d="M459.839,272.623c2.085,11.022,4.235,22.018,6.372,33.041l30.411-7.966c.246-3.186-1.451-6.139-2.59-9.066-2.772-6.955-2.836-14.7-5.077-21.85-1.7-5.44-4.65-10.439-6.243-15.918-.92-3.186-1.386-6.476-2.293-9.7a70.466,70.466,0,0,0-3.575-9.261,57.983,57.983,0,0,0-6.631-12.291c-3.886,1.451-8.03,3.134-10.245,6.644a14.35,14.35,0,0,0-1.891,6.476c-.531,6.826,1.943,13.69,1.127,20.477A60.221,60.221,0,0,0,459.839,272.623Z" transform="translate(25.811 -88.302)" fill="#36d678"/>
  <path id="Path_573" data-name="Path 573" d="M492.062,388.725c1.71,6.476-.764,13.289-2.784,19.7a152.665,152.665,0,0,0-6.191,29.66,25.67,25.67,0,0,1-1.528,7.5c-.958,2.163-2.591,3.989-3.7,6.049-3.057,5.414-2.979,12.019-2.318,18.21.44,4.08,1.1,8.147,1.917,12.162,1,4.909,2.228,10.038.79,14.83,2.409-.531,4.041,2.59,3.886,5.038s-.946,5.181.233,7.292c2.979,1.088,3,5.181,2.914,8.354a70.288,70.288,0,0,0,2.072,16.32q6.761,32.509,14.351,64.838c10.944,3.393,23.728,6.929,34.167,2.228,1.943-.868,3.885-2.254,4.326-4.352a7.592,7.592,0,0,0-.414-3.342l-4.948-18c-1.2-4.352-2.409-8.846-1.774-13.315.479-3.329,1.93-6.916.3-9.857-.557-1.01-1.438-1.8-2.085-2.759-2.59-3.795-1.23-8.872-1.023-13.47a10.68,10.68,0,0,0-.207-3.083,15.4,15.4,0,0,0-1.477-3.38,51.7,51.7,0,0,1-5.7-25.723,6.359,6.359,0,0,0-.453-3.355,10.853,10.853,0,0,1-.842-1.373,3.757,3.757,0,0,1,.272-2.474,22.662,22.662,0,0,1-3.989-3.886,5.582,5.582,0,0,0,.958-8.73,2.914,2.914,0,0,0,1.386-5.012c-.635-.44-1.477-.635-1.93-1.3-.7-.958-.13-2.292.44-3.316l3.018-5.453c2.254-4.054,2.759-9.066,5.181-12.952,3.471-5.66,5.738-11.968,7.979-18.211l8.717-24.052,5.867,5.09a18.55,18.55,0,0,1,4.818,5.492,23.7,23.7,0,0,1,1.567,6.58c2.15,13.056,10.362,24.376,13.405,37.237.673,2.862,1.127,5.867,2.771,8.315a18.1,18.1,0,0,1,1.58,2.383,12.639,12.639,0,0,1,.66,3.95,18.432,18.432,0,0,0,7.771,13.211c2.888,1.982,6.476,3.342,8.043,6.476a12.07,12.07,0,0,0,1.3,2.759c1.4,1.684,4.417,1.878,5.012,3.989.337,1.179-.285,2.59.376,3.627A3.43,3.43,0,0,0,598.2,513.7l8.432,4.209c9.429,4.715,14.247,15.542,21.2,23.43a50.526,50.526,0,0,1,6.346,8.393c3,5.375,4.391,12.123,9.468,15.542a14.324,14.324,0,0,1,3.678,2.733c1.593,2.1,1.01,5.038,1.153,7.681s2.163,5.789,4.676,4.986a18.434,18.434,0,0,0,0,9.779,49.219,49.219,0,0,0,29.867-12.1c2.461-2.15,4.831-4.9,4.857-8.16a2.925,2.925,0,0,0-.363-1.619,4.625,4.625,0,0,0-1.9-1.438c-7.888-4.274-10.258-14.182-14.247-22.226-3.484-7.1-8.639-13.211-12.952-19.8-9.377-14.183-15.776-31.344-29.958-40.708-3.121-2.059-6.748-3.886-8.315-7.292-.868-1.9-.971-4.08-1.658-6.049s-2.332-3.886-4.43-3.886c1.166-2.849.933-6.321,1.01-9.4a11.871,11.871,0,0,0-.466-4.054,19.713,19.713,0,0,0-2.085-4.015,38.521,38.521,0,0,1-5.336-20.723c.1-3.743.764-7.6-.363-11.178-.57-1.8-1.567-3.445-2.253-5.181a32.372,32.372,0,0,1-1.619-9.74l-.777-12.447a61.236,61.236,0,0,0-1.606-12.3c-2.591-9.662-5.181-50.137-14.053-54.7s-24.117,26.591-34.1,27.2a44.411,44.411,0,0,0-12.952,2.5c-6.645,2.487-12.214,7.124-17.641,11.657l-18.366,15.426C499.561,383.415,496.349,386.471,492.062,388.725Z" transform="translate(30.877 -57.788)" fill="#464353"/>
  <path id="Path_574" data-name="Path 574" d="M421.926,171.705c4.041-5.518,10.983-8.445,17.822-8.691s13.574,1.9,19.7,4.948a24.339,24.339,0,0,0,5.751,2.357c3.238.661,6.839-.22,9.766,1.3,3.886,2.059,4.637,7.3,4.3,11.657s-1.153,9.183,1.166,12.952a29.963,29.963,0,0,1,2.241,3.38c1,2.241.414,4.831-.181,7.2-1.516-1.3-2.37-3.251-3.717-4.753s-3.691-2.513-5.362-1.386-1.645,3.173-1.736,5.012-.557,4.041-2.292,4.637A3.717,3.717,0,0,1,465.5,208.8c-2.966-3.627-1.774-9.416-4.715-13.069-1.671-2.072-4.455-3.083-6-5.259-1.217-1.71-1.528-3.886-2.59-5.725s-3.536-3.186-5.181-1.917a7.009,7.009,0,0,0-1.386,1.852,7.966,7.966,0,0,1-9.455,2.849,15.811,15.811,0,0,0-4.093-1.774,5.064,5.064,0,0,0-4.676,2.59,10.115,10.115,0,0,0-1.3,5.414c0,2.59.466,5.349-1.01,7.422a7.68,7.68,0,0,1-2.072,1.969c-2.163,1.386-5.181,2.318-7.175.738a5.388,5.388,0,0,1-1.606-5.025,40.619,40.619,0,0,1,1.528-5.31c1.14-4.015-.35-8.535.894-12.317A39.317,39.317,0,0,1,421.926,171.705Z" transform="translate(12.861 -105.015)" fill="#464353"/>
  <path id="Path_575" data-name="Path 575" d="M432.842,252.85a4.715,4.715,0,0,0,.285,2.811,4.47,4.47,0,0,0,1.528,1.464,31.421,31.421,0,0,0,14.429,4.676,4.393,4.393,0,0,1,1.995.518c1.218.8,1.3,2.59.842,4.015a10.449,10.449,0,0,0-.92,4.274c.376,2.707,3.588,3.886,6.295,4.287,3.795.479,7.953.233,10.957-2.137a16.926,16.926,0,0,0,4.52-6.774c7.435-17.084,10.038-35.968,17.563-53a11.242,11.242,0,0,0,1.127-3.549,3.5,3.5,0,0,0-1.4-3.264c-1.4-.868-3.575-.376-4.52-1.736-.466-.686-.414-1.619-.829-2.344-.868-1.541-3.147-1.3-4.7-2.189-1.217-.648-2.059-1.982-3.419-2.241a4.3,4.3,0,0,0-3.536,1.528c-4.417,4.119-6.735,9.96-9.2,15.478a181.435,181.435,0,0,1-13.159,24.4c.583-.907-2.8-7.771-4.119-8.069-2.318-.466-5.284,3.6-6.541,5.116a32.587,32.587,0,0,0-7.2,16.734Z" transform="translate(18.355 -94.784)" fill="#36d678"/>
  <path id="Path_576" data-name="Path 576" d="M472.442,200.32a6.2,6.2,0,0,0-4.805,2.409c-1.386,1.8-1.658,4.184-2.008,6.476A56.274,56.274,0,0,1,458,229.7" transform="translate(25.81 -93.997)" opacity="0.1"/>
  <path id="Path_577" data-name="Path 577" d="M477.474,204.31a7.4,7.4,0,0,0-6.282,3.769,21.172,21.172,0,0,0-1.58,6.4,35.112,35.112,0,0,1-6.282,13.457" transform="translate(27.384 -92.819)" opacity="0.1"/>
  <path id="Path_578" data-name="Path 578" d="M877.062,413.652V397.566A44.659,44.659,0,0,0,832.4,352.92H197.119a44.659,44.659,0,0,0-44.659,44.646v29.66Z" transform="translate(-64.386 -48.949)" fill="#33323d"/>
  <path id="Path_579" data-name="Path 579" d="M323.4,360.963s-1.813,112.5,18.133,149.518,28.495,198.05,28.495,198.05,209.1,21.63,354.808-25.9,455.756-66.975,455.756-66.975L1128.343,263.5s-258.121-16.553-404.958,53.479S323.4,360.963,323.4,360.963Z" transform="translate(-13.937 -75.85)" fill="#8dd070"/>
  <path id="Path_580" data-name="Path 580" d="M323.4,360.963s-1.813,112.5,18.133,149.518,28.495,198.05,28.495,198.05,209.1,21.63,354.808-25.9,455.756-66.975,455.756-66.975L1128.343,263.5s-258.121-16.553-404.958,53.479S323.4,360.963,323.4,360.963Z" transform="translate(-13.937 -75.85)" opacity="0.1"/>
  <path id="Path_581" data-name="Path 581" d="M359.413,396.393s-6.541,92.827,9.869,122.487,17.174,162.069,17.174,162.069,188.18,8.73,322.04-36.836,415.152-75.122,415.152-75.122L1091.683,281s-232.748-2.4-368.589,61.742S359.413,396.393,359.413,396.393Z" transform="translate(-3.673 -70.182)" fill="#8dd070"/>
  <ellipse id="Ellipse_45" data-name="Ellipse 45" cx="48.855" cy="104.782" rx="48.855" ry="104.782" transform="translate(642.969 319.284) rotate(-7.1)" opacity="0.1"/>
  <path id="Path_582" data-name="Path 582" d="M1003.407,130.66S752.643,194.125,634.39,305.836,267.2,470.444,267.2,470.444s32.795,107.619,63.128,136.735,87.867,179.774,87.867,179.774,205.64-43.6,329.72-133.587,413.261-203.645,413.261-203.645Z" transform="translate(-30.514 -114.561)" opacity="0.2"/>
  <path id="Path_583" data-name="Path 583" d="M264.29,458s32.782,107.631,63.089,136.748S415.246,774.51,415.246,774.51s205.665-43.584,329.759-133.574,413.248-203.606,413.248-203.606l-157.769-319.1s-250.751,63.465-369,175.176S264.29,458,264.29,458Z" transform="translate(-31.373 -118.23)" fill="#8dd070"/>
  <path id="Path_584" data-name="Path 584" d="M264.29,458s32.782,107.631,63.089,136.748S415.246,774.51,415.246,774.51s205.665-43.584,329.759-133.574,413.248-203.606,413.248-203.606l-157.769-319.1s-250.751,63.465-369,175.176S264.29,458,264.29,458Z" transform="translate(-31.373 -118.23)" opacity="0.1"/>
  <path id="Path_585" data-name="Path 585" d="M308,476.051s22.265,90.366,46.99,113.551S421.046,738.55,421.046,738.55s181.769-49.451,295.19-133.9,372.1-198.775,372.1-198.775L969.551,141.5S747.307,210.625,637.694,313.361,308,476.051,308,476.051Z" transform="translate(-18.47 -111.361)" fill="#8dd070"/>
  <ellipse id="Ellipse_46" data-name="Ellipse 46" cx="48.855" cy="104.782" rx="48.855" ry="104.782" transform="translate(560.817 269.956) rotate(-24.97)" opacity="0.1"/>
  <path id="Path_586" data-name="Path 586" d="M894.2,422.267V869.113a38.636,38.636,0,0,1-38.649,38.636H191.113a38.636,38.636,0,0,1-38.623-38.636V377.22c19.039,7.072,19.039,7.072,38.623,6.476h664.44A38.649,38.649,0,0,1,894.2,422.267Z" transform="translate(-64.377 -41.775)" opacity="0.1"/>
  <path id="Path_587" data-name="Path 587" d="M894.2,426.66V873.506a38.649,38.649,0,0,1-38.649,38.636H191.113a38.636,38.636,0,0,1-38.623-38.636V381.6c19.039,7.059,19.039,7.059,38.623,6.476h664.44A38.649,38.649,0,0,1,894.2,426.66Z" transform="translate(-64.377 -40.482)" fill="#504f60"/>
  <path id="Path_588" data-name="Path 588" d="M771.563,543.941v142.9H632.977a71.453,71.453,0,1,1,0-142.906Z" transform="translate(56.37 7.44)" opacity="0.1"/>
  <path id="Path_589" data-name="Path 589" d="M773.023,541V683.926H634.437a71.453,71.453,0,1,1,0-142.906Z" transform="translate(56.801 6.573)" fill="#33323d"/>
  <circle id="Ellipse_47" data-name="Ellipse 47" cx="27.86" cy="27.86" r="27.86" transform="translate(670.022 594.978)" opacity="0.1"/>
  <circle id="Ellipse_48" data-name="Ellipse 48" cx="27.86" cy="27.86" r="27.86" transform="translate(671.913 591.196)" fill="#36d678"/>
  <path id="Path_590" data-name="Path 590" d="M931.559,544.608c1.1,11.929-7.927,23.508-5.3,35.19.57,2.5,1.645,4.857,2.033,7.383,1.088,6.942-3.044,13.509-6.994,19.312L887.366,656.28a30.916,30.916,0,0,1-4.844,5.984c-6.476,5.777-16.216,5.181-24.739,6.9a42.271,42.271,0,0,0-16.579,7.331,1.062,1.062,0,0,0-.155,1.451,14.247,14.247,0,0,0,12.33,5.789c.894,1.179,0,2.9-1.3,3.743-1.826,1.3-4.326,1.606-4.689,4.689a5.09,5.09,0,0,0,.622,3.108,9.649,9.649,0,0,0,5.932,4.131C865.7,703,878.39,696.69,887.185,688.1s15.1-19.428,23.728-28.171c4.779-4.831,10.206-8.976,15.128-13.664,9.818-9.352,17.446-20.723,24.816-32.108,2.215-3.432,4.443-6.955,5.375-10.932s.492-7.991,1.541-11.838c1.373-5.051,5.064-9.066,8.134-13.3,6.023-8.289,10.038-18.431,9.248-28.637s-7.124-20.3-16.76-23.767a14.9,14.9,0,0,0-9.39-.57c-3.95,1.217-6.865,4.481-9.559,7.6l-6.476,7.448a17.453,17.453,0,0,0-3.756,5.7,5.971,5.971,0,0,0,1.295,6.334" transform="translate(138.824 1.735)" fill="#fbbebe"/>
  <path id="Path_591" data-name="Path 591" d="M931.559,544.608c1.1,11.929-7.927,23.508-5.3,35.19.57,2.5,1.645,4.857,2.033,7.383,1.088,6.942-3.044,13.509-6.994,19.312L887.366,656.28a30.916,30.916,0,0,1-4.844,5.984c-6.476,5.777-16.216,5.181-24.739,6.9a42.271,42.271,0,0,0-16.579,7.331,1.062,1.062,0,0,0-.155,1.451,14.247,14.247,0,0,0,12.33,5.789c.894,1.179,0,2.9-1.3,3.743-1.826,1.3-4.326,1.606-4.689,4.689a5.09,5.09,0,0,0,.622,3.108,9.649,9.649,0,0,0,5.932,4.131C865.7,703,878.39,696.69,887.185,688.1s15.1-19.428,23.728-28.171c4.779-4.831,10.206-8.976,15.128-13.664,9.818-9.352,17.446-20.723,24.816-32.108,2.215-3.432,4.443-6.955,5.375-10.932s.492-7.991,1.541-11.838c1.373-5.051,5.064-9.066,8.134-13.3,6.023-8.289,10.038-18.431,9.248-28.637s-7.124-20.3-16.76-23.767a14.9,14.9,0,0,0-9.39-.57c-3.95,1.217-6.865,4.481-9.559,7.6l-6.476,7.448a17.453,17.453,0,0,0-3.756,5.7,5.971,5.971,0,0,0,1.295,6.334" transform="translate(138.824 1.735)" opacity="0.05"/>
  <path id="Path_592" data-name="Path 592" d="M937.463,780.294c-7.409,4.521-16.643,4.792-25.257,3.743-1.385-.168-3.031-.272-3.885.8-1.3,1.554.233,3.885,1.813,5.09a37.368,37.368,0,0,0,17.343,7.137,114.24,114.24,0,0,0,16.967,1.127c15.542.272,31.085.531,46.381-1.7a6.564,6.564,0,0,0,2.59-.751,4.742,4.742,0,0,0,1.917-2.914c1.049-3.99-.971-8.264-4.028-11.035s-6.981-4.313-10.815-5.8l-13.47-5.246c-3.16-1.23-8.224-4.494-11.657-4.235C948.913,766.98,942.812,777.16,937.463,780.294Z" transform="translate(158.603 73.141)" fill="#3f3d56"/>
  <path id="Path_593" data-name="Path 593" d="M937.463,780.294c-7.409,4.521-16.643,4.792-25.257,3.743-1.385-.168-3.031-.272-3.885.8-1.3,1.554.233,3.885,1.813,5.09a37.368,37.368,0,0,0,17.343,7.137,114.24,114.24,0,0,0,16.967,1.127c15.542.272,31.085.531,46.381-1.7a6.564,6.564,0,0,0,2.59-.751,4.742,4.742,0,0,0,1.917-2.914c1.049-3.99-.971-8.264-4.028-11.035s-6.981-4.313-10.815-5.8l-13.47-5.246c-3.16-1.23-8.224-4.494-11.657-4.235C948.913,766.98,942.812,777.16,937.463,780.294Z" transform="translate(158.603 73.141)" opacity="0.05"/>
  <path id="Path_594" data-name="Path 594" d="M940.333,656.512c-5.608,7.46-11.411,16.073-10.025,25.308.751,4.974,3.536,9.364,5.583,13.962,2.772,6.243,4.222,12.952,5.647,19.635,2.1,9.766,4.209,19.557,5.492,29.479,1.464,11.2-5.414,43.623-6.048,54.9-.156,2.72-.479,5.66-2.37,7.615-.738.777-1.723,1.4-2.06,2.409a4.118,4.118,0,0,0,.453,2.85c3.161,7.124,9.624,12.434,16.838,15.465s24.609,8.263,32.471,8.535a6.472,6.472,0,0,0,3.057-.4,5.948,5.948,0,0,0,2.358-2.707c5.634-10.776.22-49.088.3-61.25.077-10.141,2.474-20.218,2.033-30.347-.362-8.134-2.59-16.086-3.328-24.194-1.3-13.289,1.14-26.643,3.588-39.776,1.865-10.077,3.743-20.153,6.14-30.1,1.463-6.075,3.16-12.2,6.476-17.472,2.59-4.183,6.23-7.68,9.248-11.657a52.613,52.613,0,0,0,10.361-38.52c-.181-1.3-19.428,4.883-21.125,5.621a65.817,65.817,0,0,0-18.833,12.11c-4.455,4.249-7.965,9.921-11.864,14.675q-8.276,10.09-16.345,20.322Q949.166,644.674,940.333,656.512Z" transform="translate(165.176 18.108)" fill="#464353"/>
  <path id="Path_595" data-name="Path 595" d="M940.333,656.148c-5.608,7.46-11.411,16.086-10.025,25.308.751,4.986,3.536,9.377,5.583,13.975,2.772,6.23,4.222,12.952,5.647,19.622,2.1,9.779,4.209,19.571,5.492,29.479,1.464,11.216-5.414,43.622-6.048,54.9-.156,2.72-.479,5.673-2.37,7.629-.738.764-1.723,1.386-2.06,2.4A4.107,4.107,0,0,0,937,812.31c3.161,7.136,9.624,12.434,16.838,15.542s24.609,5.816,32.471,6.074a6.475,6.475,0,0,0,3.057-.4,5.855,5.855,0,0,0,2.358-2.694c5.634-10.776.22-46.627.3-58.8.077-10.154,2.474-20.218,2.033-30.359-.362-8.134-2.59-16.086-3.328-24.181-1.3-13.3,1.14-26.655,3.588-39.789,1.865-10.064,3.743-20.141,6.14-30.1,1.463-6.075,3.16-12.2,6.476-17.472,2.59-4.183,6.23-7.68,9.248-11.657a52.584,52.584,0,0,0,10.361-38.519c-.181-1.3-19.428,4.883-21.125,5.621A66.117,66.117,0,0,0,986.584,597.7c-4.455,4.235-7.965,9.908-11.864,14.662q-8.276,10.089-16.345,20.335Q949.166,644.3,940.333,656.148Z" transform="translate(165.176 18.019)" opacity="0.05"/>
  <circle id="Ellipse_49" data-name="Ellipse 49" cx="31.435" cy="31.435" r="31.435" transform="translate(1011.671 447.441)" fill="#fbbebe"/>
  <path id="Path_596" data-name="Path 596" d="M918.51,488.307a40.711,40.711,0,0,0,26.1,18.211l-2.37,8.613c-4.093,14.791-8.691,30.437-20.114,40.7,1.295-5.012-.363-10.362-3.186-14.714s-6.787-7.771-10.673-11.152l-18.094-15.672a5.459,5.459,0,0,1-1.3-1.529,4.6,4.6,0,0,1,0-3.445c2.305-7.176,8.885-11.657,14.247-16.5a49.325,49.325,0,0,0,7.163-8.341C913.9,479.318,916.14,484.5,918.51,488.307Z" transform="translate(152.908 -10.753)" fill="#fbbebe"/>
  <path id="Path_597" data-name="Path 597" d="M859.636,469.309l-.712-5.906c4.961,1.3,9.675-2.927,12.848-7.292s6.113-9.507,10.944-11.333c5.867-2.2,12.084,1.3,17.692,4.248a55.943,55.943,0,0,0,20.3,6.605,13.355,13.355,0,0,1,3.355.544c3.653,1.3,5.388,5.88,5.919,10.038s.388,8.574,2.189,12.278c1.3,2.811,3.7,4.9,5.181,7.668,3.886,7.434.13,17.6,4.183,24.894l-10.076-9.235c-.92-.842-2.215-1.723-3.238-1.01-.8.57-.868,1.8-1.192,2.785-.971,2.875-4.572,3.73-7.175,2.59s-4.507-3.614-6.476-5.867c-4.456-5.259-9.766-9.882-15.983-12.123a20.515,20.515,0,0,0-16.838,1.114c-4.7,2.655-8.147,8.846-13.91,9.066-7.9.3-11.191-14.416-14.843-20.231a7.123,7.123,0,0,0,2.073-8.911C854.4,469.011,859.52,468.4,859.636,469.309Z" transform="translate(142.062 -22.036)" fill="#464353"/>
  <path id="Path_598" data-name="Path 598" d="M559.984,323.368A61.127,61.127,0,0,0,553,330.7a14.675,14.675,0,0,0-3.212,9.416,4.819,4.819,0,0,0,.907,2.759,2.332,2.332,0,0,0,2.591.79,3.482,3.482,0,0,0,1.295-1.14,62.655,62.655,0,0,1,4.352-4.715c.557-.557,1.3-1.14,2.047-.932a2.187,2.187,0,0,1,.881.583,5.958,5.958,0,0,1,1.826,2.849c.453,1.982-.7,3.963-2.008,5.517s-2.85,3.044-3.381,5a2.215,2.215,0,0,0,0,1.606,2.409,2.409,0,0,0,1.01.855,14.455,14.455,0,0,0,12.227.8c2.59-1.049,4.9-2.849,7.564-3.782a17.483,17.483,0,0,0,3.342-1.3,6.942,6.942,0,0,0,2.966-4.443,18.326,18.326,0,0,0,.194-5.453,62.7,62.7,0,0,0-4.456-20.5,2.59,2.59,0,0,0-.751-1.088,2.4,2.4,0,0,0-1.3-.35c-3.316-.35-8.755-2.046-11.955-.816a8.448,8.448,0,0,0-2.824,2.513C563.727,319.534,559.984,322.5,559.984,323.368Z" transform="translate(52.907 -59.871)" fill="#a1616a"/>
  <path id="Path_599" data-name="Path 599" d="M567.449,347c0-3.16-3.886-10.789,2.293-11.294,0-3.38-4.78-5.479-3.886-9.067.285-1.192,1.3-2.163,1.412-3.38.388-3.458-5.854-5.336-4.818-8.652.388-1.3,1.761-2.046,2.059-3.329.7-2.992-4.65-4.326-4.753-7.4,0-1.036.583-2.008.531-3.044,0-1.3-1.127-2.28-1.749-3.406-1.619-2.888-.829-7.357-3.782-8.846,1.956.168,2.591-2.733,1.787-4.507s-2.448-3.316-2.461-5.284a7.965,7.965,0,0,0,0-2.15c-.544-1.891-3.64-2.046-4.158-3.886a16.54,16.54,0,0,1-.064-2.124c-.208-1.464-1.71-2.4-3.122-2.811a12.731,12.731,0,0,1-4.17-1.49c-.907-.686-1.956-1.826-2.927-1.3-.363.22-.544.635-.816.946-1.166,1.36-3.393.764-4.857-.233-4.326-2.94-6.476-8.212-7.4-13.354s-.894-10.452-2.047-15.542a33.192,33.192,0,0,0-1.4-4.663c-.492-1.3-2.072-3.329-2.176-4.637-.233-2.979,5.932-.946,8.276-.648a36.861,36.861,0,0,1,6.722,1.3,71.893,71.893,0,0,1,6.878,3.018c9.351,4.132,20.646,4.637,28.157,11.579,2.474,2.28,4.559,5.271,7.771,6.308a35.156,35.156,0,0,1,4.352,1.127c3.562,1.671,4.119,6.4,6.062,9.818a19.288,19.288,0,0,1,1.593,2.849,10.99,10.99,0,0,1,.518,3.627l.272,8.976c.44,15.037.881,30.114-.726,45.06-.518,4.935-1.295,10.012.168,14.752.388,1.3.933,2.513,1.3,3.821a23.307,23.307,0,0,1,.492,4.663l.207,5.815a1.814,1.814,0,0,1-.285,1.3,1.865,1.865,0,0,1-1.567.376c-8.095-.725-16.281-5.284-23.922-2.526" transform="translate(44.392 -86.43)" fill="#464353"/>
  <ellipse id="Ellipse_50" data-name="Ellipse 50" cx="95.793" cy="13.846" rx="95.793" ry="13.846" transform="translate(885.466 679.723)" fill="#504f60"/>
  <path id="Path_600" data-name="Path 600" d="M973.607,795.481c-1.684-7.214-2.733-13.548-2.733-13.548s.388-7.849-3.134-13.742v-1.969h0V751.717a49.47,49.47,0,0,1,3.666-7.6c2.591-4.559,0-21.267,0-21.267s-9.675-23.56-7.331-38.506-19.869-66.366-19.869-66.366a65.564,65.564,0,0,1,2.085-14.688,11.2,11.2,0,0,0,.285-3.083v-.259c-.337-9.857-8.134-28.326-8.134-28.326l1.049-35.2s4.974-20.723-3.134-48.635c-2.837-9.727-4.65-17.511-5.8-23.521-.129-.673-.259-1.3-.363-1.956,16.7-2.59,29.453-4.663,29.453-4.663s-9.688-40.527-16.229-47.625-11.773-29.388-11.773-29.388-3.406-28.611,2.1-36.978,6.281-22.8,6.281-22.8,12.551-9.066,14.131-13.172,4.184-13.172,4.184-17.977-1.567-9.066-1.049-11.657-3.665-12.162-1.567-16.721a12.267,12.267,0,0,0,.829-4.391.574.574,0,0,0,0-.13h0a61.547,61.547,0,0,0-1.1-11.89,33.744,33.744,0,0,0-12.434-6.644l-.272-1.088-.712-2.849a13.818,13.818,0,0,0-1.231-.725v-1.036l-.117-4.119,1.969-9.248c3.885-16.086-17.6-18.483-17.6-18.483a11.333,11.333,0,0,0-6.087-5.336c-4.313-1.515-.712,24.194,1.295,25.9,1.516,1.3,6.2,9.3,8.471,13.263h0l.363.648a9.083,9.083,0,0,0-.984,1.036l.816,5.582.129.855a23.167,23.167,0,0,0-3.432,5.841s3.886,4.3,3.147,9.066,1.2,10.815,1.3,11.139c-.233-.272-2.992-3.251-5.75-2.526s-10.465,3.044-10.465,3.044-5.751,1.01-5.181,2.28-3.885,6.839-3.885,6.839L889.315,263.7c-.156-.44-.324-.881-.453-1.3a35.661,35.661,0,0,1-1.3-6.476,35.369,35.369,0,0,0,4.948-1.567,10.67,10.67,0,0,0,4.274-2.746c1.568-1.852,1.865-4.365,2.5-6.67,1.217-4.507,3.885-8.509,5.738-12.8a41.6,41.6,0,0,0,2.915-23.029,15.026,15.026,0,0,0-2.37-6.735c-2.526-3.471-7.111-4.883-10.439-7.655s-5.479-7.007-9.364-9.066c-3.51-1.878-7.771-1.658-11.735-1.01a63.247,63.247,0,0,0-21.928,7.978c-2.254,1.3-4.74,2.888-7.331,2.409-2.228-.4-3.886-2.176-5.285-3.886a.256.256,0,0,0-.1-.414,27.32,27.32,0,0,0-2.409,11.579,14.231,14.231,0,0,0,.078,1.852v1.179h0a2.949,2.949,0,0,1-.117.816,5.888,5.888,0,0,1-1.45,2.085,13.939,13.939,0,0,0-1.3,1.723,2.137,2.137,0,0,1,.207-.635,9.208,9.208,0,0,0-1.606,4.883,4.987,4.987,0,0,0,1.166,3.5,16.831,16.831,0,0,0,2.526,2.021,29.47,29.47,0,0,0-.466,5.181A29.932,29.932,0,0,0,850.6,250.447c.181.427.35.868.518,1.3,1.982,5.181,3.471,11.268,2.811,16.838a7.906,7.906,0,0,1-.181,1.218c-.065.4-.388.427-.557.648h0s-25.554.259-31.564-5.181-15.18,13.3-15.18,13.3-9.157,1.774-11,0-12.551-.246-12.551-.246a23.093,23.093,0,0,0-15.97-5.828,46.877,46.877,0,0,0-11.657-6.476h0l-.285-.1h0a13.057,13.057,0,0,0-5.764-.725S736.663,254.825,733,249.229s-21.112-26.254-21.189-26.345v-1l-.194-3a10.766,10.766,0,0,1-1.567.13c-.091-.3-.22-.648-.35-1.049a57.915,57.915,0,0,0-3.7-8.509s0-3.795,1.1-4.753-.453-14.882-.453-14.882-11.32-26.461-21.461-6.709c0,0-19.169,12.784-3.083,27.679,0,0,6.476,3.108,7.331,5.569.6,1.593,2.772,6.062,4.236,9.066l.661,1.3-.182.155.233,2.487.1.959c-3.031,1.723-5.09,3.432-4.585,4.714a28.32,28.32,0,0,1,1.826,6.839s22.252,27.873,25.127,39.776c0,0,59.67,35.463,79.292,37.988l-3.471,17.68a141.122,141.122,0,0,0-.777,14.441c.259,3.795-2.357,21.021-2.357,21.021s-3.406,25.334-6.282,28.883-2.357,18.742-2.357,18.742a128.046,128.046,0,0,1-3.886,21.526c-2.875,9.623-.79,21.539-.79,21.539s-9.934,22.8,13.872,7.344c0,0,11.657-.725,25.153-1.192v1.3c0,1.736,0,3.614-.091,5.582-.181,13.056-.259,31.085.337,44.659,1.049,24.065,8.38,71.69,8.38,71.69v23.974a32.623,32.623,0,0,0-.7,6.839,44.5,44.5,0,0,0,6.476,23.948l1.839,15.957s4.3,10.517,4.378,16.838a8.837,8.837,0,0,1-.182,1.515,10.188,10.188,0,0,0-.207,2.448c-.246,7.253,4.119,24.609,4.119,24.609s.259,17.472,2.875,18.5c2.241.868-2.992,10.064-4.546,12.706a3.62,3.62,0,0,1-.091-.492l-.324.518a12.407,12.407,0,0,0-.816,4.43,6.347,6.347,0,0,0,2.9,6.139c4.974,3.044,7.642,5.569,3.419,6.58a43.924,43.924,0,0,0-4.611.972,2,2,0,0,0-.22-.583,2.772,2.772,0,0,0-1.723,3.057,12.954,12.954,0,0,0,1.541,5.88c4.184,9.377,7.085,12.952,7.085,12.952l2.008-.22a9.8,9.8,0,0,1-1.166,2.163,8.339,8.339,0,0,1-2.953,2.59,9.141,9.141,0,0,1-3.587,1.23,10.1,10.1,0,0,0-7.409,3.6c-2.59,3.38-4.248,7.978.906,12.019l18.716,6.476s32.2,4.183,30.489-3.044-2.746-13.548-2.746-13.548a28.565,28.565,0,0,0-2.591-12.809,16.6,16.6,0,0,0-1.14-1.891l1.14-.117s2.357-15.97,5.492-19c.725-.7.894-1.3.725-1.658.324-.868-.505-1.373-1.554-1.671l-.233.635a15.272,15.272,0,0,0-3.122-.35s-1.049-8.354,2.357-11.4a3.224,3.224,0,0,0,.66-2.487,13.366,13.366,0,0,0-.363-3.406,1.657,1.657,0,0,1-.117.207c-1.71-7.59-7.512-19.648-7.512-19.648s-.259-7.59,1.839-10.634-.272-41.291-.272-41.291.79-18.483-1.567-27.1,2.875-18.755,2.875-18.755v-.673l-.3-2.914a.727.727,0,0,0,0,.181c-.531-4.9-1.528-13.768-2.267-17.861-1.049-5.828.272-33.675.272-33.675l4.7-11.916,8.38,20.529,8.9,27.355s4.4,5.776,4.507,11.657v.855a14.967,14.967,0,0,0-.1,1.826,16.268,16.268,0,0,0,2.707,9.753s2.357,12.952,6.023,16.2,3.666,9.623,3.666,9.623,4.443,18.755,6.476,22.019c1.761,2.772,1.852,10.362,1.839,12.732h0v.674s.622,6.709.6,12.33v2.008a.567.567,0,0,0,0-.142,19.538,19.538,0,0,1-.544,4.559l-.078.259a3.308,3.308,0,0,1,.091-.946,47.6,47.6,0,0,0-1.295,11.657c-.117,6.735.906,14.714,4.987,19.428,7.072,8.108,11.514,7.1,11.514,7.1s-3.394,10.129-7.59,12.162a1.962,1.962,0,0,0-.441.285,4.369,4.369,0,0,0-.1-.6,4.936,4.936,0,0,0-1.3,3.782c-.3,4.456,2.513,11.657,5.181,15.011a8.456,8.456,0,0,0,3.536,2.072,5.58,5.58,0,0,1-.661.4,14.1,14.1,0,0,1-1.437.687,7.552,7.552,0,0,1-2.137.557,9.974,9.974,0,0,0-7.408,3.6c-2.59,3.368-4.248,7.966.906,12.007L943.3,798.59S975.291,802.7,973.607,795.481Z" transform="translate(90.066 -101.239)" fill="url(#linear-gradient)"/>
  <path id="Path_601" data-name="Path 601" d="M815.668,671.574,797.535,665.1c-5-4.041-3.406-8.639-.881-12.02a9.688,9.688,0,0,1,7.175-3.6,8.606,8.606,0,0,0,3.458-1.23,8.289,8.289,0,0,0,2.875-2.59,13.378,13.378,0,0,0,2.059-7.007s19.894-5.829,25.334,0a14.715,14.715,0,0,1,2.409,3.536A29.593,29.593,0,0,1,842.556,655s1.01,6.321,2.655,13.548S815.668,671.574,815.668,671.574Z" transform="translate(125.078 34.635)" fill="#2d293d"/>
  <path id="Path_602" data-name="Path 602" d="M884.108,664.68,865.975,658.2c-5-4.041-3.406-8.639-.881-12.007a9.572,9.572,0,0,1,7.163-3.6,6.719,6.719,0,0,0,2.073-.557,13.76,13.76,0,0,0,1.4-.687c5.064-2.784,4.935-9.623,4.935-9.623s19.881-5.828,25.334,0a14.341,14.341,0,0,1,1.9,2.59c3.406,5.893,3.031,13.755,3.031,13.755s1.01,6.333,2.591,13.548S884.108,664.68,884.108,664.68Z" transform="translate(145.281 32.593)" fill="#2d293d"/>
  <path id="Path_603" data-name="Path 603" d="M833.941,638.641a14.713,14.713,0,0,1,2.409,3.536h0l-29.79,3.458a13.381,13.381,0,0,0,2.059-7.007S828.5,632.813,833.941,638.641Z" transform="translate(128.707 34.632)" opacity="0.1"/>
  <path id="Path_604" data-name="Path 604" d="M905.272,634.341v5.582c-4.637,7.629-27.057,5.958-33.572,2.137a13.791,13.791,0,0,0,1.4-.687c5.064-2.785,4.935-9.623,4.935-9.623s19.882-5.828,25.334,0A14.352,14.352,0,0,1,905.272,634.341Z" transform="translate(147.936 32.598)" opacity="0.1"/>
  <path id="Path_605" data-name="Path 605" d="M934.859,682.073a50.76,50.76,0,0,0-3.536,7.6v20.011c-5.077,8.354-31.409,5.569-34.97,1.01s-7.279-16.423-3.277-18.483,7.344-12.162,7.344-12.162-4.313,1.01-11.152-7.1-4.805-26.085-3.536-30.385,0-18.742,0-18.742.259-10.141-1.761-13.431-6.334-22.018-6.334-22.018,0-6.334-3.549-9.623-5.828-16.216-5.828-16.216a16.618,16.618,0,0,1-2.525-10.893c.751-6.334-4.313-13.172-4.313-13.172l-8.613-27.368L844.7,490.589l-4.559,11.9s-1.3,27.86-.246,33.675,2.59,21.28,2.59,21.28-5.064,10.129-2.785,18.742,1.451,27.121,1.451,27.121,2.28,38.235.246,41.278-1.774,10.647-1.774,10.647,10.362,22.278,7.1,25.321-2.28,11.4-2.28,11.4,7.085,0,4.054,3.044-5.323,19-5.323,19l-30.632,3.588s-2.8-3.536-6.852-12.952.751-8.354,4.831-9.377,1.5-3.536-3.316-6.58-2.021-9.882-2.021-9.882,7.344-12.408,4.805-13.418-2.785-18.5-2.785-18.5-5.064-20.723-3.795-26.344-4.054-18.988-4.054-18.988l-1.774-15.957a43.908,43.908,0,0,1-5.569-30.152V530.832s-7.1-47.612-8.108-71.677c-.647-15.413-.466-36.447-.259-49.567.129-7.357.259-12.24.259-12.24l109.419-11.4s-.1,5.051,1.982,16.255c1.126,6.01,2.875,13.794,5.621,23.521,7.849,27.86,3.044,48.622,3.044,48.622l-1.024,35.217s9.624,23.547,7.6,31.655a67.521,67.521,0,0,0-2.046,14.714s21.526,51.42,19.247,66.366,7.085,38.506,7.085,38.506S937.4,677.514,934.859,682.073Z" transform="translate(121.885 -39.198)" fill="#464353"/>
  <path id="Path_606" data-name="Path 606" d="M852.05,513.713l33.313-4.443S866.492,528.53,852.05,513.713Z" transform="translate(142.135 -2.793)" opacity="0.05"/>
  <path id="Path_607" data-name="Path 607" d="M875.435,484.14s1.14,11.786-6.075,16.216C869.36,500.356,882.273,498.335,875.435,484.14Z" transform="translate(147.246 -10.212)" opacity="0.1"/>
  <path id="Path_608" data-name="Path 608" d="M881.445,455.2s-27.847,22.925-37.976,21.021S881.445,455.2,881.445,455.2Z" transform="translate(139.189 -18.755)" opacity="0.1"/>
  <path id="Path_609" data-name="Path 609" d="M825.139,521s-21.151,4.805-21.785,13.3S825.139,521,825.139,521Z" transform="translate(127.756 0.669)" opacity="0.1"/>
  <path id="Path_610" data-name="Path 610" d="M828.982,602.56s-29.88,5.569-21.4,9.365,22.42,6.838,22.42,6.838S839.655,619.268,828.982,602.56Z" transform="translate(128.562 24.746)" opacity="0.05"/>
  <g id="Group_1116" data-name="Group 1116" transform="translate(905.332 357.36)" opacity="0.05">
    <path id="Path_611" data-name="Path 611" d="M803.456,615.436a5.9,5.9,0,0,1-2.733-4.326l-.311.531s-2.785,6.839,2.033,9.869c.544.35,1.075.7,1.554,1.036.894-.168,1.852-.3,2.772-.531C810.852,621.005,808.274,618.48,803.456,615.436Z" transform="translate(-778.677 -330.09)"/>
    <path id="Path_612" data-name="Path 612" d="M832.619,614.061c.829-.751.8-2.694.3-5.181-1.3,1.956-1.671,5.013-1.7,7.331A6.321,6.321,0,0,1,832.619,614.061Z" transform="translate(-769.346 -330.748)"/>
    <path id="Path_613" data-name="Path 613" d="M829.211,515.59a34.54,34.54,0,0,0-2.021,9.313,37.566,37.566,0,0,1,2.318-6.4Z" transform="translate(-770.536 -358.287)"/>
    <path id="Path_614" data-name="Path 614" d="M881.717,505.962a11.884,11.884,0,0,0,.272-2.772c-.376,1.891-.635,3.639-.829,5.181C881.329,507.581,881.51,506.829,881.717,505.962Z" transform="translate(-754.604 -361.948)"/>
    <path id="Path_615" data-name="Path 615" d="M828.363,586.4c.414-.622.648-2.72.751-5.634a19.124,19.124,0,0,0-1.463,7.111A6.81,6.81,0,0,1,828.363,586.4Z" transform="translate(-770.4 -339.046)"/>
    <path id="Path_616" data-name="Path 616" d="M842.922,622a100.482,100.482,0,0,0-3.484,15.542l-30.632,3.536s-2.8-3.536-6.852-12.952a23.467,23.467,0,0,1-.868-2.228c-1.839.842-2.591,2.746-.156,8.3,4.054,9.377,6.865,12.952,6.865,12.952l30.632-3.549s2.28-15.957,5.31-19C845.292,623.14,844.334,622.376,842.922,622Z" transform="translate(-778.743 -326.875)"/>
    <path id="Path_617" data-name="Path 617" d="M807.218,643.778s.246,17.472,2.784,18.483h0c1.3-2.888,2.137-5.634,1-6.087-2.59-1.01-2.785-18.5-2.785-18.5s-5.064-20.723-3.795-26.344-4.054-18.988-4.054-18.988l-1.775-15.957a43.91,43.91,0,0,1-5.569-30.152V521.627s-7.1-47.612-8.108-71.676c-.647-15.413-.466-36.447-.259-49.568,0-2.37.078-4.468.117-6.243l-.868.091s-.142,4.87-.259,12.24c-.207,13.12-.4,34.154.259,49.554,1.01,24.065,8.095,71.69,8.095,71.69v24.609a43.934,43.934,0,0,0,5.583,30.139l1.761,15.957s5.323,13.418,4.054,19S807.218,643.778,807.218,643.778Z" transform="translate(-783.449 -394.14)"/>
    <path id="Path_618" data-name="Path 618" d="M872.8,634.2a29.62,29.62,0,0,1-4.857-12.033c-3.122,2.823.466,13.781,3.885,18.133,3.536,4.559,29.88,7.344,34.971-1.023v-4.818C899.9,641.236,876.141,638.516,872.8,634.2Z" transform="translate(-758.859 -326.825)"/>
    <path id="Path_619" data-name="Path 619" d="M901.949,609.4A51.2,51.2,0,0,0,898.4,617v3.588a53.2,53.2,0,0,1,2.59-5.077,15.544,15.544,0,0,0,1.114-6.282S901.988,609.347,901.949,609.4Z" transform="translate(-749.514 -330.645)"/>
    <path id="Path_620" data-name="Path 620" d="M875.927,620.981a50.032,50.032,0,0,0,2.5-6.023s-4.313,1.01-11.152-7.1c-4.973-5.893-5.259-17.032-4.546-24.311-1.3,4.313-3.3,22.29,3.536,30.4C870.733,619.246,874.114,620.645,875.927,620.981Z" transform="translate(-760.432 -338.226)"/>
    <path id="Path_621" data-name="Path 621" d="M872.616,600.835a134.946,134.946,0,0,1,.505,15.011,20.444,20.444,0,0,1,.518-2.344c1.3-4.313,0-18.742,0-18.742s.259-10.141-1.774-13.431-6.269-22.044-6.269-22.044,0-6.334-3.549-9.624-5.829-16.216-5.829-16.216a16.671,16.671,0,0,1-2.59-10.893c.764-6.334-4.3-13.172-4.3-13.172l-8.613-27.355-8.108-20.516-4.572,11.916s0,1.5-.156,3.886l3.7-9.675,8.108,20.477,8.613,27.355s5.064,6.839,4.3,13.172a16.673,16.673,0,0,0,2.59,10.893s2.28,12.952,5.829,16.216,3.536,9.623,3.536,9.623,4.313,18.742,6.333,22.019S872.616,600.835,872.616,600.835Z" transform="translate(-770.332 -374.252)"/>
  </g>
  <path id="Path_622" data-name="Path 622" d="M884.514,214.718l-1.9,9.248.117,4.119.078,3.031L872.236,232.2l-1.179-2.189h0c-2.189-3.963-6.735-12.019-8.2-13.263-1.956-1.632-5.44-27.355-1.3-25.826a11.048,11.048,0,0,1,5.88,5.323S888.257,198.631,884.514,214.718Z" transform="translate(144.37 -96.79)" fill="#ffcdd3"/>
  <path id="Path_623" data-name="Path 623" d="M880.2,222.913,869.629,224l-1.178-2.189h0a9.313,9.313,0,0,1,11.657-1.917Z" transform="translate(146.977 -88.587)" opacity="0.1"/>
  <path id="Path_624" data-name="Path 624" d="M883,227.707l-13.937,3.225-.3-2.072-.79-5.582s5.517-7.357,13.5-1.839l.7,2.837Z" transform="translate(146.838 -88.368)" fill="#36d678"/>
  <path id="Path_625" data-name="Path 625" d="M712.934,220.193l-14.882,7.978-1.3-2.8c-1.412-2.966-3.523-7.434-4.106-9.066-.881-2.461-7.085-5.569-7.085-5.569-15.542-14.882,2.979-27.679,2.979-27.679,9.817-19.752,20.723,6.709,20.723,6.709s1.528,13.949.453,14.882-1.075,4.753-1.075,4.753a58.463,58.463,0,0,1,3.588,8.509C712.688,219.325,712.934,220.193,712.934,220.193Z" transform="translate(91.155 -101.254)" fill="#ffcdd3"/>
  <path id="Path_626" data-name="Path 626" d="M708.967,210.6l-14.882,7.978-1.3-2.8c2.1-1.761,9.546-7.771,11.994-7.525a17.919,17.919,0,0,0,3.523.091C708.721,209.728,708.967,210.6,708.967,210.6Z" transform="translate(95.121 -91.658)" opacity="0.1"/>
  <path id="Path_627" data-name="Path 627" d="M710.391,214.858,693.67,223.1l-.336-3.588-.233-2.487s9.688-8.3,12.55-7.978a15.215,15.215,0,0,0,4.365,0l.195,3Z" transform="translate(95.213 -91.425)" fill="#36d678"/>
  <path id="Path_628" data-name="Path 628" d="M861.446,269.588s-72.894,8.225-59.269,3.795c9.481-3.1,13.25-9.066,14.04-15.8.647-5.608-.8-11.657-2.707-16.838a73.421,73.421,0,0,0-6.476-13.172s55.694-30.645,44.568-2.785a44.925,44.925,0,0,0-3.16,13.2,37.288,37.288,0,0,0,1.438,13.367A39.8,39.8,0,0,0,861.446,269.588Z" transform="translate(126.912 -90.228)" fill="#ffcdd3"/>
  <path id="Path_629" data-name="Path 629" d="M850.069,224.756a44.924,44.924,0,0,0-3.16,13.2c-5.246,4.417-11,4.119-18.392,4.119-5.673,0-11.967,1.373-16.5-1.36a73.4,73.4,0,0,0-6.476-13.172S861.221,196.9,850.069,224.756Z" transform="translate(128.406 -90.237)" opacity="0.1"/>
  <circle id="Ellipse_51" data-name="Ellipse 51" cx="30.139" cy="30.139" r="30.139" transform="translate(925.799 93.501)" fill="#ffcdd3"/>
  <path id="Path_630" data-name="Path 630" d="M861.446,261.592s-72.894,8.225-59.269,3.795c9.481-3.1,13.25-9.066,14.04-15.8,3.626-3.886,10.919-6.774,15.542-8.276a21.811,21.811,0,0,1,13.211-.22,18.782,18.782,0,0,1,4.805,2.228A39.8,39.8,0,0,0,861.446,261.592Z" transform="translate(126.912 -82.232)" opacity="0.1"/>
  <path id="Path_631" data-name="Path 631" d="M882.824,226.7l-13.937,3.225-.3-2.072A12.33,12.33,0,0,1,882,223.272Z" transform="translate(147.018 -87.366)" opacity="0.1"/>
  <path id="Path_632" data-name="Path 632" d="M710.338,214.174l-16.721,8.237-.337-3.588a121.962,121.962,0,0,1,16.838-7.473Z" transform="translate(95.266 -90.741)" opacity="0.1"/>
  <path id="Path_633" data-name="Path 633" d="M895.26,402.225c-28.248,4.507-68.4,10.258-74.772,8.315-5.3-1.606-22.187-1.438-36.887-.933.129-7.357.259-12.24.259-12.24l109.419-11.4S893.175,391.021,895.26,402.225Z" transform="translate(121.929 -39.192)" opacity="0.1"/>
  <path id="Path_634" data-name="Path 634" d="M951.08,446.915s-92.957,15.957-102.93,12.952-61.2.246-61.2.246c-23.055,15.452-13.431-7.344-13.431-7.344s-2.021-11.9.764-21.526A131.514,131.514,0,0,0,778.1,409.69s-.5-15.206,2.28-18.755,6.087-28.87,6.087-28.87,2.526-17.226,2.28-21.021.751-14.441.751-14.441l3.3-17.731c-19-2.526-76.754-37.988-76.754-37.988-2.785-11.9-24.311-39.763-24.311-39.763a29.322,29.322,0,0,0-1.774-6.839c-1.515-4.054,21.28-12.162,21.28-12.162s16.967,20.723,20.516,26.344,15.7,15.957,15.7,15.957a12.215,12.215,0,0,1,5.569.725l.3.091h0a45.142,45.142,0,0,1,11.333,6.476,22.019,22.019,0,0,1,15.452,5.828s10.362-1.528,12.162.246,10.634,0,10.634,0,8.859-18.742,14.688-13.3,30.554,5.181,30.554,5.181c3.29-4.378,11.307-7.512,16.32-9.066a21.9,21.9,0,0,1,13.211-.22,16.758,16.758,0,0,1,5.18,2.59L897.9,267.658s4.3-5.582,3.795-6.839,5.064-2.28,5.064-2.28,7.344-2.28,10.129-3.044,5.336,2.254,5.569,2.526c-.091-.324-1.995-6.476-1.3-11.139s-3.043-9.066-3.043-9.066c8.859-21.785,28.87-3.549,28.87-3.549s2.279,11.9.259,16.462,2.021,14.182,1.516,16.721,1.023,6.839,1.023,11.657-2.591,13.923-4.054,17.977-13.677,13.172-13.677,13.172-.764,14.442-6.087,22.8-1.982,36.926-1.982,36.926,5.064,22.291,11.4,29.388S951.08,446.915,951.08,446.915Z" transform="translate(94.267 -90.513)" fill="#3f3d56"/>
  <path id="Path_635" data-name="Path 635" d="M789.817,268.248s-2.785-8.354-5.323-9.066a58.56,58.56,0,0,1-7.344-3.29l1.632-3.121s9.507,2.59,11.035,5.4S789.817,268.248,789.817,268.248Z" transform="translate(120.025 -78.513)" opacity="0.1"/>
  <path id="Path_636" data-name="Path 636" d="M752.875,251.959c-.505,2.59-23.055,4.805-23.055,4.805l11.4-11.424h0l.285.1h0A45.16,45.16,0,0,1,752.875,251.959Z" transform="translate(106.053 -80.707)" opacity="0.1"/>
  <circle id="Ellipse_52" data-name="Ellipse 52" cx="2.021" cy="2.021" r="2.021" transform="translate(791.68 134.468)" fill="#575988"/>
  <circle id="Ellipse_53" data-name="Ellipse 53" cx="2.021" cy="2.021" r="2.021" transform="translate(794.271 138.522)" fill="#575988"/>
  <circle id="Ellipse_54" data-name="Ellipse 54" cx="2.021" cy="2.021" r="2.021" transform="translate(796.81 142.265)" fill="#575988"/>
  <circle id="Ellipse_55" data-name="Ellipse 55" cx="2.021" cy="2.021" r="2.021" transform="translate(799.465 146.306)" fill="#575988"/>
  <circle id="Ellipse_56" data-name="Ellipse 56" cx="1.645" cy="1.645" r="1.645" transform="translate(1038.598 146.462)" fill="#575988"/>
  <circle id="Ellipse_57" data-name="Ellipse 57" cx="1.645" cy="1.645" r="1.645" transform="translate(1038.857 150.205)" fill="#575988"/>
  <circle id="Ellipse_58" data-name="Ellipse 58" cx="1.645" cy="1.645" r="1.645" transform="translate(1039.077 153.935)" fill="#575988"/>
  <path id="Path_637" data-name="Path 637" d="M787,317.72c-.246-.3,56.859,71.806,101.181,30.139C888.221,347.873,818.189,357.366,787,317.72Z" transform="translate(122.932 -59.34)" opacity="0.1"/>
  <path id="Path_638" data-name="Path 638" d="M761.7,346.66s34.168.932,37.742,10.763v10.232a6.554,6.554,0,0,1-6.36,0c-3.445-1.865-24.1-12.356-31.383-7.3Z" transform="translate(115.464 -50.797)" opacity="0.1"/>
  <path id="Path_639" data-name="Path 639" d="M762.19,346.66s32.678.894,36.1,10.271v9.74a6.269,6.269,0,0,1-6.087,0c-3.29-1.761-23.042-11.773-30.01-6.955Z" transform="translate(115.608 -50.797)" fill="#3f3d56"/>
  <path id="Path_640" data-name="Path 640" d="M776.1,289.38a109.962,109.962,0,0,0,13.25,22.731,89.2,89.2,0,0,0,20.723,20.037S776.67,294.069,776.1,289.38Z" transform="translate(119.715 -67.706)" opacity="0.1"/>
  <path id="Path_641" data-name="Path 641" d="M767.47,258.73s5.7,24.609,20.386,32.963Z" transform="translate(117.167 -76.754)" opacity="0.1"/>
  <path id="Path_642" data-name="Path 642" d="M760.836,260.652c-.142-.453-5.064,19.428,18.936,30.476C779.772,291.128,769.579,287.67,760.836,260.652Z" transform="translate(115.058 -76.189)" opacity="0.1"/>
  <path id="Path_643" data-name="Path 643" d="M875.912,247.914c-.375,0,11.838,7.771,15.167,11.4C891.079,259.312,883.126,247.4,875.912,247.914Z" transform="translate(149.177 -79.952)" opacity="0.1"/>
  <path id="Path_644" data-name="Path 644" d="M821.943,250.285a4.753,4.753,0,0,0,5.181,4.7c9.183.57,18.754.971,27.2-2.59a10.363,10.363,0,0,0,4.145-2.746c1.5-1.852,1.8-4.365,2.409-6.67,1.192-4.507,3.73-8.509,5.556-12.8a42.872,42.872,0,0,0,2.992-22.99,15.542,15.542,0,0,0-2.305-6.722c-2.435-3.484-6.877-4.9-10.1-7.668s-5.3-7.007-9.066-9.066c-3.393-1.891-7.551-1.658-11.372-1.01a59.693,59.693,0,0,0-21.215,7.966c-2.189,1.3-4.585,2.888-7.1,2.409-2.2-.414-3.808-2.267-5.181-4a28.051,28.051,0,0,0-2.163,13.146,5.643,5.643,0,0,1-.065,1.982,5.957,5.957,0,0,1-1.412,2.085c-2.267,2.59-3.678,6.8-1.438,9.468.971,1.153,2.474,1.787,3.419,2.966,1.7,2.111,1.127,5.181,1.088,7.875a4.053,4.053,0,0,0,.673,2.668,3.886,3.886,0,0,0,3.718.894,10.112,10.112,0,0,1,3.963-.376,6.644,6.644,0,0,1,3.445,2.59C818.5,237.851,820.156,243.783,821.943,250.285Z" transform="translate(125.848 -99.329)" fill="#2d293d"/>
  <g id="Group_1117" data-name="Group 1117" transform="translate(922.726 89.499)" opacity="0.1">
    <path id="Path_645" data-name="Path 645" d="M859.543,241.618a10.363,10.363,0,0,1-4.145,2.746c-8.5,3.536-18.055,3.134-27.2,2.59a6.37,6.37,0,0,1-2.836-.635c-1.4-.816-1.93-2.526-2.357-4.08-1.788-6.476-3.432-12.421-7.681-17.822a6.657,6.657,0,0,0-3.445-2.655,10.621,10.621,0,0,0-3.963.376,3.885,3.885,0,0,1-3.717-.881,4.053,4.053,0,0,1-.674-2.668c0-2.72.609-5.764-1.088-7.875-.946-1.179-2.448-1.813-3.419-2.979a5.906,5.906,0,0,1-.583-6.036c-1.619,2.59-2.306,5.841-.427,8.069.971,1.153,2.474,1.787,3.419,2.966,1.7,2.124,1.127,5.181,1.088,7.875a4.029,4.029,0,0,0,.661,2.668,3.886,3.886,0,0,0,3.73.894,10.115,10.115,0,0,1,3.963-.376,6.645,6.645,0,0,1,3.445,2.59c4.235,5.4,5.893,11.333,7.681,17.835a6.473,6.473,0,0,0,2.241,4.106,6.283,6.283,0,0,0,2.849.622c9.183.57,18.754.984,27.2-2.59a10.261,10.261,0,0,0,4.145-2.746,7.928,7.928,0,0,0,1.3-2.435A.64.64,0,0,1,859.543,241.618Z" transform="translate(-796.877 -183.088)"/>
    <path id="Path_646" data-name="Path 646" d="M800.02,201.94a4.425,4.425,0,0,0,.919-1.528,5.641,5.641,0,0,0,0-1.982,28.1,28.1,0,0,1,1.412-10.906l-.168-.194a27.849,27.849,0,0,0-2.163,13.133,9.4,9.4,0,0,1,0,1.477Z" transform="translate(-795.975 -187.33)"/>
  </g>
  <path id="Path_647" data-name="Path 647" d="M812.08,249.031s37.651,5,41.032-.661" transform="translate(130.336 -79.812)" opacity="0.1"/>
  <path id="Path_648" data-name="Path 648" d="M868.59,236.85s20.93,0,25.529,7.875" transform="translate(147.018 -83.213)" opacity="0.1"/>
  <path id="Path_649" data-name="Path 649" d="M965.309,781.13a33.2,33.2,0,0,1-22.6,8.445c-2.124,0-5.064.4-5.077,2.525a3.558,3.558,0,0,0,.622,1.736,20.786,20.786,0,0,0,11.656,9.157c4.533,1.373,9.377,1.14,14.1.894l13.794-.713c2.59-.142,5.181-.272,7.771-.6s5.414-.855,8.121-1.3a106.235,106.235,0,0,1,20.089-.932c1.788.065,3.886,0,4.948-1.3s.518-3.769.117-5.712c-.829-4,0-8.2-.764-12.214-1.3-7.046-7.4-12.447-14.079-15-6.217-2.357-17.226-5.064-23.106-1.127C974.7,769.137,970.9,776.04,965.309,781.13Z" transform="translate(167.399 72.111)" fill="#3f3d56"/>
  <path id="Path_650" data-name="Path 650" d="M975.893,601.294c1.218,5.789,6.826,10.219,6.981,16.125.142,4.74-3.238,8.717-5.673,12.771a85.175,85.175,0,0,0-5.789,13.107,200.265,200.265,0,0,1-16.993,33.8c-3.238,5.181-6.865,10.711-6.126,16.734a25.076,25.076,0,0,0,2.94,8l9.714,19.3a55.878,55.878,0,0,1,4.96,12.188c.842,3.666.92,7.46,1.412,11.191,1.528,11.838,7.084,23.754,3.794,35.229-.285.984-1.295,2.176-2.085,1.49,3.212,6,5.79,12.032,5.543,18.832-.129,3.562-1.218,7.279.09,10.595.558,1.385,1.528,2.681,1.516,4.17a26.518,26.518,0,0,1-.557,2.863c-.272,2.733,2.241,5.012,4.844,5.88s5.44.8,8.069,1.593c5.051,1.515,8.665,5.867,12.952,8.885a27.571,27.571,0,0,0,14.92,4.857,3.756,3.756,0,0,0,2.2-.44,3.562,3.562,0,0,0,1.217-2.668,14.817,14.817,0,0,0-5.336-12.874,5.826,5.826,0,0,1-1.982-2.072,5,5,0,0,1-.181-2.319,174.563,174.563,0,0,0-.57-31.862,48.383,48.383,0,0,1-.5-10.142c.272-2.823,1.126-5.621.816-8.432s-1.749-5.375-2.59-8.082c-1.5-4.818-1.088-10-1.3-15.037-.259-8.756-2.267-17.356-4.261-25.9-.79-3.355-1.658-6.865-4.028-9.352-2.021-2.111-5.284-4.132-4.52-6.942a8.222,8.222,0,0,1,1.852-2.759,11.073,11.073,0,0,0,2.306-8.445,3.8,3.8,0,0,0,4.365-2.046c15.776-7.447,28.495-22.342,34.167-38.856a12.837,12.837,0,0,1,1.528-3.471c1.464-2.046,4-2.927,6.256-4.054,7.072-3.562,11.955-10.232,16.437-16.76,2.59-3.782,5.181-7.693,6.346-12.149a39.841,39.841,0,0,0,.868-8.769l.4-15.219a8.227,8.227,0,0,0-.285-2.979,7.454,7.454,0,0,0-1.645-2.409,29.259,29.259,0,0,0-16.138-8.7c-4.145-.738-8.38-.6-12.577-.945-8.134-.674-16.164-3.2-24.3-2.591-12.783.946-24.168,9.8-30.191,21.125C982.654,597.745,980.426,601.217,975.893,601.294Z" transform="translate(170.518 15.883)" fill="#464353"/>
  <path id="Path_651" data-name="Path 651" d="M918,526a17,17,0,0,1-.932,6.929c-1,2.124-3.5,3.782-5.686,2.914.66-1.49-1.088-3.186-2.72-3a5.091,5.091,0,0,0-3.588,3.083,11.465,11.465,0,0,0-1.036,7.033c.518,2.979,2.241,5.842,1.787,8.833-.362,2.487-2.189,4.961-1.217,7.266a11.769,11.769,0,0,0,2.344,2.811,7.926,7.926,0,0,1-.842,10.88l24.505.492c-.894,4.093.946,8.276,3.044,11.916a75.121,75.121,0,0,0,56,36.563,4.87,4.87,0,0,0-1.179,7.448c1.995,1.981,5.375,1.735,7.875.453s4.456-3.406,6.735-5.051a20.726,20.726,0,0,1,13.846-3.73c3.07.3,6.049,1.3,9.131,1.451,9.066.479,16.838-6.049,25.567-8.717,6.36-1.956,13.573-1.956,18.91-5.932,2.305-1.709,4.2-4.52,3.523-7.292a12.186,12.186,0,0,0-2.591-4.287c-3.07-3.976-4.883-8.755-7.085-13.276a79.414,79.414,0,0,0-17.705-23.728,158.38,158.38,0,0,0-17.563-13.315,29.917,29.917,0,0,0-4.74-2.863c-2.15-.945-4.533-1.4-6.476-2.59-2.875-1.813-4.533-5.012-6.748-7.59-4.857-5.673-12.317-8.277-18.3-12.732-4.015-2.992-7.564-6.929-12.356-8.367-2.331-.712-4.805-.764-7.137-1.464-5.3-1.606-9.157-6.308-14.351-8.212-4.106-1.5-8.639-1.114-12.952-1.645a30.323,30.323,0,0,1-13.535-5.155,16.059,16.059,0,0,0-4.313-2.513c-6.566-1.995-7.1,10.232-7.771,14.468C919.58,513.372,918,519.628,918,526Z" transform="translate(157.434 -7.776)" fill="#36d678"/>
  <path id="Path_652" data-name="Path 652" d="M940.409,554.55c1.1,11.941-7.914,23.508-5.284,35.2.557,2.487,1.632,4.857,2.021,7.383,1.1,6.929-3.044,13.5-6.994,19.3l-33.935,49.8a31.323,31.323,0,0,1-4.844,5.983c-6.476,5.764-16.216,5.181-24.739,6.891a42.738,42.738,0,0,0-16.579,7.331,1.075,1.075,0,0,0-.207,1.49,14.248,14.248,0,0,0,12.318,5.79c.894,1.166,0,2.9-1.231,3.743-1.813,1.3-4.326,1.593-4.689,4.689a5.184,5.184,0,0,0,.622,3.109,9.676,9.676,0,0,0,5.932,4.119c11.748,3.6,24.44-2.72,33.235-11.307s15.1-19.428,23.728-28.158c4.779-4.844,10.206-8.976,15.128-13.665,9.818-9.364,17.459-20.723,24.816-32.108,2.215-3.432,4.455-6.955,5.375-10.932s.492-8,1.541-11.851c1.373-5.038,5.064-9.066,8.134-13.289,6.023-8.289,10.051-18.431,9.248-28.65s-7.124-20.3-16.76-23.767a15.065,15.065,0,0,0-9.39-.57c-3.95,1.218-6.865,4.481-9.559,7.616l-6.476,7.434a17.338,17.338,0,0,0-3.639,5.712,5.971,5.971,0,0,0,1.3,6.347" transform="translate(141.423 4.681)" fill="#fbbebe"/>
  <path id="Path_653" data-name="Path 653" d="M938,512.279c-4.456.259-9.364.7-12.512,3.886a17.811,17.811,0,0,0-3.16,4.948c-3.057,6.23-6.036,12.745-6.256,19.687-.181,5.544,1.425,10.97,2.267,16.449.7,4.559-1.075,9.209-1.412,13.82,5.531-1.7,12.836-4,17.848-6.864,3.419-1.956,6.722-4.184,10.452-5.427,5.323-1.775,14.247,1.3,19.311,3.756.272-3.549-2.4-9.74-2.111-13.3a14.854,14.854,0,0,1,.79-4.4,26.726,26.726,0,0,1,2.681-4.261,17.433,17.433,0,0,0-1.567-20.425c-4.494-5.052-11.527-6.942-18.236-7.771a78.884,78.884,0,0,0-12.732-.44" transform="translate(161.031 -2.033)" fill="#36d678"/>
</svg>
