<svg xmlns="http://www.w3.org/2000/svg" width="201.315" height="26.196" viewBox="0 0 201.315 26.196">
  <g id="review_star" transform="translate(-5541.313 -1896.076)">
    <g id="star" transform="translate(5541.313 1896.076)">
      <path id="Path_325" data-name="Path 325" d="M27.422,21.743a.8.8,0,0,0-.649-.548l-8.513-1.237-3.807-7.714a.8.8,0,0,0-1.443,0L9.2,19.959.689,21.2a.8.8,0,0,0-.446,1.372l6.16,6L4.949,37.051a.8.8,0,0,0,1.167.848l7.614-4,7.614,4a.8.8,0,0,0,1.167-.848l-1.454-8.479,6.161-6A.8.8,0,0,0,27.422,21.743Z" transform="translate(0 -11.796)" fill="#ffbd27"/>
    </g>
    <g id="star-2" data-name="star" transform="translate(5584.777 1896.076)">
      <path id="Path_325-2" data-name="Path 325" d="M27.422,21.743a.8.8,0,0,0-.649-.548l-8.513-1.237-3.807-7.714a.8.8,0,0,0-1.443,0L9.2,19.959.689,21.2a.8.8,0,0,0-.446,1.372l6.16,6L4.949,37.051a.8.8,0,0,0,1.167.848l7.614-4,7.614,4a.8.8,0,0,0,1.167-.848l-1.454-8.479,6.161-6A.8.8,0,0,0,27.422,21.743Z" transform="translate(0 -11.796)" fill="#ffbd27"/>
    </g>
    <g id="star-3" data-name="star" transform="translate(5628.24 1896.076)">
      <path id="Path_325-3" data-name="Path 325" d="M27.422,21.743a.8.8,0,0,0-.649-.548l-8.513-1.237-3.807-7.714a.8.8,0,0,0-1.443,0L9.2,19.959.689,21.2a.8.8,0,0,0-.446,1.372l6.16,6L4.949,37.051a.8.8,0,0,0,1.167.848l7.614-4,7.614,4a.8.8,0,0,0,1.167-.848l-1.454-8.479,6.161-6A.8.8,0,0,0,27.422,21.743Z" transform="translate(0 -11.796)" fill="#ffbd27"/>
    </g>
    <g id="star-4" data-name="star" transform="translate(5671.704 1896.076)">
      <path id="Path_325-4" data-name="Path 325" d="M27.422,21.743a.8.8,0,0,0-.649-.548l-8.513-1.237-3.807-7.714a.8.8,0,0,0-1.443,0L9.2,19.959.689,21.2a.8.8,0,0,0-.446,1.372l6.16,6L4.949,37.051a.8.8,0,0,0,1.167.848l7.614-4,7.614,4a.8.8,0,0,0,1.167-.848l-1.454-8.479,6.161-6A.8.8,0,0,0,27.422,21.743Z" transform="translate(0 -11.796)" fill="#ffbd27"/>
    </g>
    <g id="star-5" data-name="star" transform="translate(5715.167 1896.076)">
      <path id="Path_325-5" data-name="Path 325" d="M27.422,21.743a.8.8,0,0,0-.649-.548l-8.513-1.237-3.807-7.714a.8.8,0,0,0-1.443,0L9.2,19.959.689,21.2a.8.8,0,0,0-.446,1.372l6.16,6L4.949,37.051a.8.8,0,0,0,1.167.848l7.614-4,7.614,4a.8.8,0,0,0,1.167-.848l-1.454-8.479,6.161-6A.8.8,0,0,0,27.422,21.743Z" transform="translate(0 -11.796)" fill="#ffbd27"/>
    </g>
  </g>
</svg>
