<svg xmlns="http://www.w3.org/2000/svg" width="639.918" height="479.962" viewBox="0 0 639.918 479.962">
  <g id="review_us_icon" transform="translate(0 0)">
    <rect id="Rectangle_94" data-name="Rectangle 94" width="595.954" height="282.758" transform="translate(0 197.203)" fill="#36d678"/>
    <rect id="Rectangle_95" data-name="Rectangle 95" width="398.905" height="168.213" transform="translate(98.525 311.749)" fill="#f0f0f0"/>
    <rect id="Rectangle_96" data-name="Rectangle 96" width="398.905" height="1.602" transform="translate(98.525 322.012)" fill="#3f3d56"/>
    <circle id="Ellipse_66" data-name="Ellipse 66" cx="2.869" cy="2.869" r="2.869" transform="translate(102.847 314.468)" fill="#3f3d56"/>
    <circle id="Ellipse_67" data-name="Ellipse 67" cx="2.869" cy="2.869" r="2.869" transform="translate(112.682 314.468)" fill="#3f3d56"/>
    <circle id="Ellipse_68" data-name="Ellipse 68" cx="2.869" cy="2.869" r="2.869" transform="translate(122.518 314.468)" fill="#3f3d56"/>
    <path id="Path_771" data-name="Path 771" d="M513.4,651.159l4.247,8.605,9.5,1.379-6.871,6.7,1.622,9.458-8.494-4.465L504.9,677.3l1.622-9.458-6.871-6.7,9.5-1.379Z" transform="translate(-194.561 -253.556)" fill="#36d678"/>
    <path id="Path_772" data-name="Path 772" d="M575.972,651.159l4.247,8.605,9.5,1.379-6.872,6.7,1.622,9.458-8.494-4.465-8.493,4.465,1.622-9.458-6.871-6.7,9.5-1.379Z" transform="translate(-218.927 -253.556)" fill="#36d678"/>
    <path id="Path_773" data-name="Path 773" d="M638.547,651.159l4.247,8.605,9.5,1.379-6.872,6.7,1.622,9.458-8.494-4.465-8.494,4.465,1.622-9.458-6.871-6.7,9.5-1.379Z" transform="translate(-243.293 -253.556)" fill="#36d678"/>
    <path id="Path_774" data-name="Path 774" d="M701.122,651.159l4.247,8.605,9.5,1.379-6.872,6.7,1.623,9.458-8.494-4.465-8.494,4.465,1.622-9.458-6.871-6.7,9.5-1.379Z" transform="translate(-267.659 -253.556)" fill="#36d678"/>
    <path id="Path_775" data-name="Path 775" d="M763.7,651.159l4.247,8.605,9.5,1.379-6.872,6.7,1.622,9.458-8.494-4.465L755.2,677.3l1.622-9.458-6.871-6.7,9.5-1.379Z" transform="translate(-292.026 -253.556)" fill="#36d678"/>
    <rect id="Rectangle_97" data-name="Rectangle 97" width="155.397" height="98.525" transform="translate(125.759 361.411)" fill="#3f3d56"/>
    <path id="Path_776" data-name="Path 776" d="M157.447,322.962,0,431.051V375.677l76.785-52.715Z" transform="translate(0 -125.759)" opacity="0.1"/>
    <path id="Path_777" data-name="Path 777" d="M336.514,322.962,0,553.983V498.6L255.852,322.962Z" transform="translate(0 -125.759)" opacity="0.1"/>
    <path id="Path_778" data-name="Path 778" d="M218.2,497.716l-10.786-11.564,11.564-10.786,10.786,11.564Zm-9.067-11.5L218.263,496l9.785-9.126-9.126-9.785Z" transform="translate(-127.173 -219.897)" fill="#f0f0f0"/>
    <path id="Path_779" data-name="Path 779" d="M797.916,489.972H782.1V474.159h15.813Zm-14.6-1.216H796.7v-13.38h-13.38Z" transform="translate(-350.95 -219.427)" fill="#3f3d56"/>
    <circle id="Ellipse_69" data-name="Ellipse 69" cx="8.073" cy="8.073" r="8.073" transform="translate(536.865 389.349)" fill="#f0f0f0"/>
    <path id="Path_780" data-name="Path 780" d="M953.577,716.292A23.322,23.322,0,1,1,976.9,692.97,23.323,23.323,0,0,1,953.577,716.292Zm0-44.851a21.528,21.528,0,1,0,21.528,21.528,21.528,21.528,0,0,0-21.528-21.528Z" transform="translate(-408.639 -295.548)" fill="#2f2e41"/>
    <path id="Path_781" data-name="Path 781" d="M375.695,757.35c3.708,13.708,16.41,22.2,16.41,22.2s6.69-13.736,2.981-27.444-16.41-22.2-16.41-22.2S371.986,743.642,375.695,757.35Z" transform="translate(-192.262 -319.012)" fill="#fff"/>
    <path id="Path_782" data-name="Path 782" d="M369.115,763.179c10.176,9.906,11.419,25.133,11.419,25.133s-15.255-.833-25.431-10.739-11.419-25.133-11.419-25.133S358.939,753.273,369.115,763.179Z" transform="translate(-180.234 -327.787)" fill="#36d678"/>
    <path id="Path_783" data-name="Path 783" d="M418.577,757.35c-3.708,13.708-16.41,22.2-16.41,22.2s-6.689-13.736-2.981-27.444,16.41-22.2,16.41-22.2S422.286,743.642,418.577,757.35Z" transform="translate(-201.41 -319.012)" fill="#fff"/>
    <path id="Path_784" data-name="Path 784" d="M415.451,763.179c-10.176,9.906-11.419,25.133-11.419,25.133s15.255-.833,25.431-10.739,11.419-25.133,11.419-25.133S425.627,753.273,415.451,763.179Z" transform="translate(-203.733 -327.787)" fill="#36d678"/>
    <rect id="Rectangle_98" data-name="Rectangle 98" width="63" height="73" transform="translate(453.959 13.962)" fill="#f2f2f2"/>
    <path id="Path_785" data-name="Path 785" d="M883.338,311.256l-.874-.853a44.637,44.637,0,0,0,8.953-15.663c2.971-8.941,4.423-23.062-5.537-39.557-10.19-16.877-10.648-30.585-9.239-39.113,1.534-9.279,5.447-14.48,5.613-14.7l.97.742c-.039.051-3.918,5.224-5.39,14.227-1.359,8.311-.885,21.687,9.091,38.21,10.214,16.917,8.7,31.43,5.633,40.626A44.971,44.971,0,0,1,883.338,311.256Z" transform="translate(-387.535 -113.206)" fill="#3f3d56"/>
    <path id="Path_786" data-name="Path 786" d="M906.928,146.909H819V58.981h87.928Zm-86.707-1.221h85.485V60.2H820.221Z" transform="translate(-365.318 -57.76)" fill="#3f3d56"/>
    <rect id="Rectangle_99" data-name="Rectangle 99" width="54" transform="translate(472.959 26.962)" fill="#3f3d56"/>
    <rect id="Rectangle_100" data-name="Rectangle 100" width="54" height="3" transform="translate(472.959 39.962)" fill="#3f3d56"/>
    <rect id="Rectangle_101" data-name="Rectangle 101" width="54" height="4" transform="translate(472.959 51.962)" fill="#3f3d56"/>
    <rect id="Rectangle_102" data-name="Rectangle 102" width="64" height="73" transform="translate(551.959 67.962)" fill="#f2f2f2"/>
    <path id="Path_787" data-name="Path 787" d="M1044.337,398.256l-.874-.853a44.642,44.642,0,0,0,8.953-15.663c2.971-8.941,4.422-23.062-5.537-39.557-10.19-16.877-10.648-30.585-9.239-39.113,1.534-9.279,5.447-14.48,5.613-14.7l.971.742c-.039.051-3.918,5.224-5.39,14.227-1.359,8.311-.885,21.687,9.091,38.21,10.214,16.917,8.7,31.43,5.634,40.626A44.968,44.968,0,0,1,1044.337,398.256Z" transform="translate(-450.227 -147.083)" fill="#3f3d56"/>
    <path id="Path_788" data-name="Path 788" d="M1067.928,233.909H980V145.981h87.928Zm-86.707-1.221h85.485V147.2H981.221Z" transform="translate(-428.01 -91.637)" fill="#3f3d56"/>
    <rect id="Rectangle_103" data-name="Rectangle 103" width="54" transform="translate(570.959 80.962)" fill="#3f3d56"/>
    <rect id="Rectangle_104" data-name="Rectangle 104" width="54" transform="translate(570.959 93.962)" fill="#3f3d56"/>
    <rect id="Rectangle_105" data-name="Rectangle 105" width="54" height="4" transform="translate(570.959 105.962)" fill="#3f3d56"/>
    <rect id="Rectangle_106" data-name="Rectangle 106" width="63" height="73" transform="translate(84.959 13.962)" fill="#f2f2f2"/>
    <path id="Path_789" data-name="Path 789" d="M278.338,309.256l-.874-.853a44.64,44.64,0,0,0,8.953-15.663c2.971-8.941,4.422-23.062-5.537-39.557-10.19-16.877-10.648-30.585-9.239-39.113,1.534-9.279,5.447-14.48,5.613-14.7l.971.742c-.039.051-3.918,5.224-5.39,14.227-1.359,8.311-.885,21.687,9.091,38.21,10.214,16.917,8.7,31.43,5.633,40.626A44.975,44.975,0,0,1,278.338,309.256Z" transform="translate(-151.953 -112.428)" fill="#3f3d56"/>
    <path id="Path_790" data-name="Path 790" d="M301.928,144.909H214V56.981h87.928Zm-86.706-1.221h85.485V58.2H215.221Z" transform="translate(-129.736 -56.981)" fill="#3f3d56"/>
    <rect id="Rectangle_107" data-name="Rectangle 107" width="54" transform="translate(103.959 26.962)" fill="#3f3d56"/>
    <rect id="Rectangle_108" data-name="Rectangle 108" width="54" transform="translate(103.959 39.962)" fill="#3f3d56"/>
    <rect id="Rectangle_109" data-name="Rectangle 109" width="54" transform="translate(103.959 51.962)" fill="#3f3d56"/>
    <path id="Path_791" data-name="Path 791" d="M460.7,366.159l4.247,8.605,9.5,1.379-6.872,6.7,1.622,9.458-8.494-4.465L452.2,392.3l1.622-9.458-6.871-6.7,9.5-1.379Z" transform="translate(-174.04 -142.579)" fill="#f0f0f0"/>
    <path id="Path_792" data-name="Path 792" d="M551.1,105.392h0c14.674,0,26.57,13.2,26.57,29.487v20.69h-6.364l-3.684-7.666.921,7.666h-40.9L524.3,148.6l.837,6.969H520.53V139.324C520.53,120.584,534.219,105.392,551.1,105.392Z" transform="translate(-249.096 -75.832)" fill="#2f2e41"/>
    <path id="Path_793" data-name="Path 793" d="M618.121,326.777l16.314,6.933,56.69,46.086a16.685,16.685,0,0,1,3.67,8.972c.408,5.3,17.537,33.035,11.42,36.706s-28.141,14.682-29.365,7.341-7.749-38.745-7.749-38.745L614.451,345.13Z" transform="translate(-285.668 -162.037)" fill="#2f2e41"/>
    <path id="Path_794" data-name="Path 794" d="M725.326,489.38l6.933,20.392s-7.341,7.749-3.67,14.275v22.431h5.71l1.631-11.828s6.5,11.678,9.788,11.828c6.886.313,20.522,2.763,20.93-.908s-10.326-7.249-10.326-7.249l-11.42-31.4-4.894-19.169Z" transform="translate(-328.842 -224.718)" fill="#2f2e41"/>
    <path id="Path_795" data-name="Path 795" d="M550.605,305.61s-3.671,35.89,6.933,42.416,57.506,27.326,57.506,27.326-19.984,18.761-15.906,23.247,22.431,16.722,24.879,14.275,29.773-31.812,26.51-41.192-48.533-39.969-48.533-39.969l-5.3-19.169-1.631-15.5-17.129-11.012Z" transform="translate(-260.568 -146.172)" fill="#2f2e41"/>
    <circle id="Ellipse_70" data-name="Ellipse 70" cx="17.002" cy="17.002" r="17.002" transform="translate(291.72 41.872)" fill="#ffb9b9"/>
    <path id="Path_796" data-name="Path 796" d="M551.018,164.8s.816,15.5-11.827,20.392,31.4,36.706,31.4,36.706V186.421s-5.71-6.118,0-15.5Z" transform="translate(-255.475 -98.967)" fill="#ffb9b9"/>
    <path id="Path_797" data-name="Path 797" d="M515.6,284.03l3.263,15.906,9.788,54.651s-8.157,23.247,2.855,22.839,5.71-25.286,5.71-25.286l-5.71-45.27V289.332Z" transform="translate(-247.175 -145.392)" fill="#ffb9b9"/>
    <path id="Path_798" data-name="Path 798" d="M626.58,271.339l3.671,14.275,16.722,40.376s11.42,19.169,2.039,18.761-9.381-18.761-9.381-18.761l-19.168-32.627V275.01Z" transform="translate(-288.009 -140.45)" fill="#ffb9b9"/>
    <path id="Path_799" data-name="Path 799" d="M614.349,466.374l-13.459,12.643s-9.38-2.039-13.051,8.973-6.118,17.945-6.118,17.945l4.894,2.855,6.118-8.565s3.671,15.5,7.341,16.721,22.023,9.38,20.392,0L611.494,503.9s-1.224-14.682,2.447-15.906S627.4,474.531,627.4,474.531Z" transform="translate(-272.924 -216.395)" fill="#2f2e41"/>
    <path id="Path_800" data-name="Path 800" d="M549.159,326.49s38.337-13.867,40.784-12.643a18.394,18.394,0,0,0,5.745,1.491l-.035-5.569s-12.643-4.486-19.576-1.631-28.141,15.5-28.141,15.5Z" transform="translate(-259.767 -154.409)" fill="#3f3d56"/>
    <path id="Path_801" data-name="Path 801" d="M556.854,225.314s-11.012-12.643-14.275-20.392a20.023,20.023,0,0,0-10.585-10.409s-24.489,5.514-24.082,15.3,15.5,24.878,15.5,24.878-2.039,54.243,8.973,53.427a23.62,23.62,0,0,0,4.894-9.788c1.224-5.71,39.153-11.827,39.153-11.827s3.263,5.71,3.671,3.263-3.263-62.4-3.263-62.4l-19.449-12.856Z" transform="translate(-244.181 -110.535)" fill="#d0cde1"/>
    <path id="Path_802" data-name="Path 802" d="M508.642,212.664l-.273.153a5.627,5.627,0,0,0-2.873,4.908l0,30.267a5.671,5.671,0,0,1-2.017,4.316c-1.571,1.336-3.028,3.262-.021,4.264,4.894,1.631,24.063,9.788,24.47,6.933s1.224-6.118,0-6.118c-.958,0-6.665-29.246-11.251-41.75a5.628,5.628,0,0,0-8.039-2.974Z" transform="translate(-241.769 -117.322)" fill="#d0cde1"/>
    <path id="Path_803" data-name="Path 803" d="M611.779,213.23l5.71,1.631L624.014,243s7.749,1.631,5.3,4.486-12.643,10.2-12.643,10.2Z" transform="translate(-284.628 -117.823)" fill="#d0cde1"/>
    <path id="Path_804" data-name="Path 804" d="M547.557,115.117a13.934,13.934,0,0,1,10.995-5.611h.522c10.058,0,18.211,9.1,18.211,20.328h-3.37l-.544-4.143-.8,4.143H552.584l-1.675-3.5.419,3.5H547.4q-2.752,13.669,7.909,27.337h-6.7l-3.349-7.01.837,7.01H533.327l-2.512-16.122C530.814,128.975,537.829,118.737,547.557,115.117Z" transform="translate(-253.101 -77.434)" fill="#2f2e41"/>
  </g>
</svg>
