<svg xmlns="http://www.w3.org/2000/svg" width="243.621" height="192.998" viewBox="0 0 243.621 192.998">
  <g id="rider_icon" transform="translate(216 -6.618)">
    <g id="Group_1083" data-name="Group 1083" transform="translate(-216 6.618)">
      <circle id="Ellipse_16" data-name="Ellipse 16" cx="18.84" cy="18.84" r="18.84" transform="translate(151.816 0)" fill="#202731"/>
      <path id="Path_327" data-name="Path 327" d="M54.655,277.408A41.141,41.141,0,1,0,95.8,318.549,41.141,41.141,0,0,0,54.655,277.408Zm0,63.315A22.175,22.175,0,1,1,76.83,318.549,22.2,22.2,0,0,1,54.655,340.723Z" transform="translate(-6.887 -166.691)" fill="#202731"/>
      <path id="Path_328" data-name="Path 328" d="M6.317,273.121a6.31,6.31,0,0,0,5.243-2.784,43.67,43.67,0,0,1,72.4-.015,6.322,6.322,0,1,0,10.474-7.083,56.313,56.313,0,0,0-93.352.019,6.326,6.326,0,0,0,5.233,9.864Z" transform="translate(0 -146.831)" fill="#202731"/>
      <path id="Path_329" data-name="Path 329" d="M356.679,277.408a41.141,41.141,0,1,0,41.14,41.141A41.139,41.139,0,0,0,356.679,277.408Zm0,63.315a22.175,22.175,0,1,1,22.175-22.174A22.2,22.2,0,0,1,356.679,340.723Z" transform="translate(-160.813 -166.691)" fill="#202731"/>
      <path id="Path_330" data-name="Path 330" d="M349.792,238.441a56.275,56.275,0,0,0-46.683,24.819,6.321,6.321,0,1,0,10.477,7.077,43.67,43.67,0,0,1,72.4-.016,6.322,6.322,0,0,0,10.475-7.084A56.283,56.283,0,0,0,349.792,238.441Z" transform="translate(-153.926 -146.831)" fill="#202731"/>
      <path id="Path_331" data-name="Path 331" d="M249.294,157.2a4.113,4.113,0,0,0,4.436.9L290.528,142a9.043,9.043,0,1,0-7.792-16.322l-23.967,11.9a4.007,4.007,0,0,1-4.42-.788L213.983,96.838a2.775,2.775,0,0,0-3.939-.1L154,153.112a2.483,2.483,0,0,0,.1,3.752c7.1,6.117,30.089,25.93,38.026,32.921a4.022,4.022,0,0,1,.936,4.4l-19.213,42.447a5.294,5.294,0,0,0,.493,4.8l12.8,17.555a12.058,12.058,0,1,0,19.488-14.206l-4.523-6.2a5.459,5.459,0,0,1-.554-4.829l19.38-45.658a4.365,4.365,0,0,0-.92-4.511c-4.589-4.429-15.87-15.292-21.353-20.4a2.611,2.611,0,0,1-.052-3.835l24.389-23.678a2.7,2.7,0,0,1,3.9.109Z" transform="translate(-78.073 -74.22)" fill="#202731"/>
    </g>
  </g>
</svg>
