<svg xmlns="http://www.w3.org/2000/svg" xmlns:xlink="http://www.w3.org/1999/xlink" width="808.703" height="697.299" viewBox="0 0 808.703 697.299">
  <defs>
    <linearGradient id="linear-gradient" x1="0.5" y1="1" x2="0.5" gradientUnits="objectBoundingBox">
      <stop offset="0" stop-color="gray" stop-opacity="0.251"/>
      <stop offset="0.54" stop-color="gray" stop-opacity="0.122"/>
      <stop offset="1" stop-color="gray" stop-opacity="0.102"/>
    </linearGradient>
    <linearGradient id="linear-gradient-2" x1="0.246" y1="1" x2="0.246" y2="0" xlink:href="#linear-gradient"/>
  </defs>
  <g id="splash_3" transform="translate(-0.004 0.001)">
    <ellipse id="Ellipse_73" data-name="Ellipse 73" cx="267.319" cy="43.032" rx="267.319" ry="43.032" transform="translate(161.826 611.234)" opacity="0.1"/>
    <path id="Path_834" data-name="Path 834" d="M544.268,602.852c55.837-30.9,119.62-40.772,181.951-27.514,88.333,18.778,199.337,11.414,220.81-133.451C983.749,194.467,829.86,129.163,829.86,129.163s-102.338-8.572-162.852-41.206C581.049,41.6,482.8,35.684,396.4,74.917,341.158,99.979,295.666,134.9,287.885,182.809c-21.733,134.033,13.961,207.874-52.812,251.628s-9.71,163.877,41.5,159.722,166.868-49.778,211.943,3.06C504.539,615.936,524.795,613.632,544.268,602.852Z" transform="translate(-143.984 -48.95)" opacity="0.1"/>
    <ellipse id="Ellipse_74" data-name="Ellipse 74" cx="39.12" cy="13.909" rx="39.12" ry="13.909" transform="translate(703.175 611.043)" opacity="0.1"/>
    <path id="Path_835" data-name="Path 835" d="M985.765,753.075s10.432-35.5-1.965-61.636a56.08,56.08,0,0,1-4.538-35.182,94.288,94.288,0,0,1,4.981-16.517" transform="translate(-245.052 -126.149)" fill="none" stroke="#535461" stroke-miterlimit="10" stroke-width="2"/>
    <path id="Path_836" data-name="Path 836" d="M976.269,619.566c0,4.346,7.876,16.969,7.876,16.969s7.876-12.614,7.876-16.969a7.88,7.88,0,1,0-15.761,0Z" transform="translate(-244.797 -122.483)" fill="#36d678"/>
    <path id="Path_837" data-name="Path 837" d="M961.1,646.652c2.365,3.651,15.84,9.962,15.84,9.962s-.244-14.874-2.609-18.525a7.876,7.876,0,1,0-13.222,8.563Z" transform="translate(-242.652 -125.463)" fill="#36d678"/>
    <path id="Path_838" data-name="Path 838" d="M961.289,693.609c3.886,1.956,18.7.609,18.7.609s-7.719-12.719-11.605-14.674a7.877,7.877,0,0,0-7.094,14.066Z" transform="translate(-242.275 -131.239)" fill="#36d678"/>
    <path id="Path_839" data-name="Path 839" d="M970.03,729.451c3.477,2.608,18.325,3.756,18.325,3.756s-5.459-13.831-8.954-16.439a7.878,7.878,0,1,0-9.371,12.666Z" transform="translate(-243.565 -136.012)" fill="#36d678"/>
    <path id="Path_840" data-name="Path 840" d="M995.875,658.877c-3.121,3.034-17.665,6.172-17.665,6.172s3.564-14.44,6.685-17.474a7.878,7.878,0,0,1,10.979,11.3Z" transform="translate(-245.052 -126.881)" fill="#36d678"/>
    <path id="Path_841" data-name="Path 841" d="M1005.189,700.579c-3.886,1.956-18.7.609-18.7.609s7.719-12.719,11.605-14.675a7.877,7.877,0,0,1,7.094,14.066Z" transform="translate(-246.133 -132.15)" fill="#36d678"/>
    <path id="Path_842" data-name="Path 842" d="M1008.906,742.694c-3.478,2.608-18.326,3.755-18.326,3.755s5.459-13.84,8.954-16.421a7.878,7.878,0,0,1,9.372,12.666Z" transform="translate(-246.668 -137.745)" fill="#36d678"/>
    <ellipse id="Ellipse_75" data-name="Ellipse 75" cx="39.12" cy="13.909" rx="39.12" ry="13.909" transform="translate(16.405 593.657)" opacity="0.1"/>
    <path id="Path_843" data-name="Path 843" d="M196.337,711.638s22.316-75.779-4.181-131.547a119.9,119.9,0,0,1-9.676-75.084,201.288,201.288,0,0,1,10.589-35.277" transform="translate(-140.778 -103.933)" fill="none" stroke="#535461" stroke-miterlimit="10" stroke-width="2"/>
    <path id="Path_844" data-name="Path 844" d="M176.07,426.653c0,9.284,16.813,36.216,16.813,36.216S209.7,435.92,209.7,426.653a16.813,16.813,0,1,0-33.626,0Z" transform="translate(-140.236 -96.108)" fill="#36d678"/>
    <path id="Path_845" data-name="Path 845" d="M143.662,484.4c5.051,7.824,33.8,21.264,33.8,21.264s-.522-31.748-5.572-39.537a16.813,16.813,0,1,0-28.227,18.256Z" transform="translate(-135.62 -102.414)" fill="#36d678"/>
    <path id="Path_846" data-name="Path 846" d="M144.1,584.694c8.267,4.182,39.911,1.33,39.911,1.33s-16.517-27.141-24.767-31.3A16.815,16.815,0,0,0,144.1,584.755Z" transform="translate(-134.85 -114.804)" fill="#36d678"/>
    <path id="Path_847" data-name="Path 847" d="M162.755,661.181c7.468,5.52,39.12,8.015,39.12,8.015s-11.649-29.557-19.125-35.052a16.813,16.813,0,1,0-19.995,27.036Z" transform="translate(-137.605 -124.987)" fill="#36d678"/>
    <path id="Path_848" data-name="Path 848" d="M217.924,510.537c-6.659,6.468-37.694,13.17-37.694,13.17s7.6-30.826,14.257-37.294a16.829,16.829,0,0,1,23.472,24.124Z" transform="translate(-140.779 -105.491)" fill="#36d678"/>
    <path id="Path_849" data-name="Path 849" d="M237.841,599.569c-8.294,4.182-39.911,1.3-39.911,1.3s16.517-27.141,24.767-31.3A16.815,16.815,0,0,1,237.841,599.6Z" transform="translate(-143.092 -116.744)" fill="#36d678"/>
    <path id="Path_850" data-name="Path 850" d="M245.71,689.441c-7.467,5.52-39.12,8.015-39.12,8.015S218.239,667.9,225.715,662.4a16.813,16.813,0,0,1,19.995,27.036Z" transform="translate(-144.224 -128.68)" fill="#36d678"/>
    <path id="Path_851" data-name="Path 851" d="M899.16,388.634a12.17,12.17,0,0,0,5.129-4.677,56.605,56.605,0,0,1-8.624-3.477l2.495-10.867a7.823,7.823,0,0,0-6.085-9.354l-2.956-.652a8.024,8.024,0,0,0-9.563,5.911l-.548,2.382a55.485,55.485,0,0,1-9.875-14.866,11.3,11.3,0,0,1-1.313-5.329c.165-2.217,1.478-4.164,2.547-6.085a32.428,32.428,0,0,0,3.373-21.864c-1.348-6.676-4.764-12.753-6.955-19.2a55.209,55.209,0,0,1,1.391-39.12c3.017-7.111,7.65-14.474,5.7-21.933-2.165-8.32-11.3-12.544-19.125-16.517s-16.109-10.936-14.483-19.377c.513-2.66,2.017-5.268,1.408-7.9-.817-3.477-4.86-5.216-8.38-6.294-9.415-2.991-18.969-6.007-28.862-6.468-8.12-.374-16.6,1.191-23.368,5.416a28.881,28.881,0,0,0-5.563,3.973,49.714,49.714,0,0,1-4.929,4.477c-3.564,1.8-7.824,1.565-11.849,1.947a30.428,30.428,0,0,0-13.092,4.347,24.249,24.249,0,0,0-6.511,5.016c-4.564,5.042-6.572,12.431-4.347,18.786a14.782,14.782,0,0,0,1.852,3.538,36.03,36.03,0,0,0-5.268,18.786c0,18.847,14.492,34.382,33.191,36.6,1.1,4.2,2.156,8.6,2.982,12.675a6.971,6.971,0,0,1-.7.556c-1.539.739-3.295,1.208-4.9,1.843a19.518,19.518,0,0,0-3.4,1.739c-7.954,4.286-12.031,13.57-15.317,22.055,2.26-.409,4.5-.869,6.728-1.417-.113.278-.2.548-.278.8-2.286,7.824-14.892,51.412-14.892,51.412l2.677-5.755a4.216,4.216,0,0,1-.391,2.4c-1.113,2.165,1.017.591,4.4-2.53,0,.183.044.287.174.3-7.946,12.97-32.965,53.473-45.414,69.9-15.465,2.078-26.732,3.86-26.732,3.86a15.65,15.65,0,0,0-7.033,1.739,19.125,19.125,0,0,0-10.38,16.517L651.2,489.45s-6.624,33.113-6.494,51.969a42.528,42.528,0,0,0,.765,9.5,65.057,65.057,0,0,1,1.521,14.387,103.935,103.935,0,0,1-1.521,16.908c.043.044.122.087.174.131-.1.635-.174.982-.174.982,1.26,1.226,5.12,2.121,10.049,2.765-1.391,7.737-6.5,15.648-21.5,16.23-21.907.826-26.454,4.668-27.323,6.642h0a1.737,1.737,0,0,0-.156,1.182c1.147,14.526,33.782,12.849,43.519,13.414a18.533,18.533,0,0,0,4.277-.391c.869-.156,1.739-.356,2.669-.591,2.339-.591,4.964-1.426,7.7-2.417,3.286-1.191,6.746-2.608,10.1-4.147,1.678-.765,3.321-1.556,4.911-2.356q1.592-.809,3.078-1.617c4.964-2.695,8.989-5.39,10.771-7.485a5.365,5.365,0,0,0,.452-.609l.13-.235c.043-.078.156-.278.226-.426a2.229,2.229,0,0,0,.122-.3c.035-.1.1-.261.139-.391s.069-.235.1-.356.052-.243.078-.365.052-.27.07-.409a1.771,1.771,0,0,0,0-.3c.452-4.686-3.069-11.058-5.929-15.352V567.655s4.051-42.745,3.973-61.609a43.486,43.486,0,0,0-.539-8.8,14.22,14.22,0,0,1-.435-2.756,6.337,6.337,0,0,1,5.016-6.181c10.189-5.3,36.512-3.138,56.193-.5-17.1,2.608-55.35,7.111-55.35,12.24v12.171A11.849,11.849,0,0,0,708.717,523.9V731.393H722.33V523.963H843.315V731.393h13.614V521.581a20.048,20.048,0,0,0,10.893-17.734V500.83l25.341-109.535A22.765,22.765,0,0,0,899.16,388.634ZM848.652,499.2c-.8-3.478-6.45-6.564-15.457-8.963,15.283-7.494,18.508-22.359,18.395-33.9a65.682,65.682,0,0,0-.965-11.684,7.294,7.294,0,0,0,2.5-6.772,11.49,11.49,0,0,0-1.435-6.607c-9.041-18.256-10.431-28.688-10.623-42.875a21.4,21.4,0,0,0,6.129,4.008c5.337,2.3,11.3,2.712,17.152,2.66,2.825,0,5.65-.165,8.476-.382ZM755.46,389.956c.73,1.373,1.173,2.243,1.173,2.243l2.5-2.208c11.936.409,14.492,6.181,14.857,10.015a8.574,8.574,0,0,1-.174,1.13L763.5,431.309c-17.9-2.756-25.724,2.043-27.932,3.834-5.52.522-11.136,1.13-16.665,1.739C730.006,422.434,745.306,402.926,755.46,389.956Z" transform="translate(-196.48 -66.452)" fill="url(#linear-gradient)"/>
    <path id="Path_852" data-name="Path 852" d="M733.243,377.46S692.7,445.815,683.2,454.891c0,0-40.545,42.076-19.934,39.12,1.513-.218,31.183-25.3,32.913-29.4s57.836-76.988,57.836-76.988l-8-7.363Z" transform="translate(-203.134 -91.877)" fill="#f8bdc5"/>
    <rect id="Rectangle_131" data-name="Rectangle 131" width="12.857" height="204.675" transform="translate(654.841 654.336) rotate(180)" fill="#40414d"/>
    <rect id="Rectangle_132" data-name="Rectangle 132" width="12.857" height="204.675" transform="translate(526.284 654.336) rotate(180)" fill="#40414d"/>
    <path id="Path_853" data-name="Path 853" d="M713.61,541.874c0,7.824,53.438,14.144,86.116,14.144S857.6,549.7,857.6,541.874s-25.211-14.144-57.88-14.144S713.61,534.05,713.61,541.874Z" transform="translate(-210.476 -111.512)" fill="#f6c6cd"/>
    <path id="Path_854" data-name="Path 854" d="M15.648,0H152.863a9.128,9.128,0,0,1,9.171,9.128V23.15H0v-7.5A15.648,15.648,0,0,1,15.648,0Z" transform="translate(665.125 453.512) rotate(180)" fill="#40414d"/>
    <path id="Path_855" data-name="Path 855" d="M11.032,0h7.007V154.689a6.085,6.085,0,0,1-6.085,6.085H6.085A6.085,6.085,0,0,1,0,154.689V11.006A11.006,11.006,0,0,1,11.006,0Z" transform="translate(660.112 453.516) rotate(-167.28)" fill="#40414d"/>
    <path id="Path_856" data-name="Path 856" d="M690.773,632.762s12.979,16.23,7.572,22.724-32.409,18.908-41.111,18.4c-9.2-.539-39.989,1.078-41.111-12.979,0,0-2.165-6.494,25.967-7.572S661.529,623,661.529,623Z" transform="translate(-197.733 -123.961)" fill="#594c76"/>
    <path id="Path_857" data-name="Path 857" d="M850.881,476.555s12.979,44.336-25.967,51.934l-42.2-2.165s-59.506-11.9-75.736-3.243c0,0-6.494,1.078-4.346,9.736s-3.243,67.078-3.243,67.078v19.473s-36.79,0-41.111-4.347c0,0,3.243-17.308,0-31.374s5.407-58.428,5.407-58.428l.869-26.654a18.568,18.568,0,0,1,9.806-16.013,14.5,14.5,0,0,1,6.642-1.687s73.572-11.9,99.538-9.737S850.881,476.555,850.881,476.555Z" transform="translate(-203.151 -104.082)" opacity="0.1"/>
    <path id="Path_858" data-name="Path 858" d="M850.882,475.3s12.979,44.336-25.967,51.934l-42.2-2.165s-59.506-11.9-75.736-3.243c0,0-6.494,1.078-4.347,9.737s-3.234,67.043-3.234,67.043v19.473s-36.79,0-41.111-4.347c0,0,3.243-17.308,0-31.374S663.7,523.93,663.7,523.93l.869-26.654a18.568,18.568,0,0,1,9.806-16.013,14.5,14.5,0,0,1,6.641-1.687s73.572-11.9,99.538-9.737S850.882,475.3,850.882,475.3Z" transform="translate(-203.152 -103.914)" fill="#8b9cd1"/>
    <path id="Path_859" data-name="Path 859" d="M789.395,313.13s-19.473,22.724-21.638,30.3-25.967,27.045-25.967,27.045,17.308,12.961,14.092,19.473,22.69-21.637,22.69-21.637l30.3-44.336Z" transform="translate(-214.158 -83.471)" fill="#36d678"/>
    <path id="Path_860" data-name="Path 860" d="M789.395,313.13s-19.473,22.724-21.638,30.3-25.967,27.045-25.967,27.045,17.308,12.961,14.092,19.473,22.69-21.637,22.69-21.637l30.3-44.336Z" transform="translate(-214.158 -83.471)" opacity="0.1"/>
    <path id="Path_861" data-name="Path 861" d="M781.61,281.825s9.736,31.374,9.736,43.275,41.111-3.243,39.99-9.737-23.8-30.3-24.889-39.989S781.61,281.825,781.61,281.825Z" transform="translate(-219.362 -78.132)" fill="#f8bdc5"/>
    <path id="Path_862" data-name="Path 862" d="M810.7,308.05s37.868-9.737,43.275,45.44-4.347,61.67,11.9,95.209-110.361,4.347-110.361,4.347,6.494-7.572,27.045-4.347L792.3,419.49s3.243-12.979-15.144-12.979-9.736-37.868-9.736-37.868,9.736-32.461,15.144-35.7S797.665,310.215,810.7,308.05Z" transform="translate(-215.952 -82.72)" opacity="0.1"/>
    <path id="Path_863" data-name="Path 863" d="M810.7,305.56s37.868-9.737,43.275,45.44-4.347,61.67,11.9,95.209-110.361,4.347-110.361,4.347,6.494-7.572,27.045-4.347L792.3,417s3.243-12.979-15.144-12.979-9.736-37.868-9.736-37.868,9.736-32.461,15.144-35.7S797.665,307.725,810.7,305.56Z" transform="translate(-215.952 -82.395)" fill="#36d678"/>
    <path id="Path_864" data-name="Path 864" d="M754.243,394.46S713.7,462.815,704.2,471.891c0,0-40.546,42.075-19.934,39.12,1.512-.217,31.183-25.3,32.913-29.4s57.837-76.988,57.837-76.988l-8-7.363Z" transform="translate(-205.878 -94.098)" fill="#f8bdc5"/>
    <path id="Path_865" data-name="Path 865" d="M834.33,357.86l-57.375,51.934s-10.788-21.638-14.031-21.638,38.946-63.835,38.946-63.835,10.823-12.979,17.308-6.494S845.145,319.992,834.33,357.86Z" transform="translate(-216.897 -83.847)" opacity="0.1"/>
    <path id="Path_866" data-name="Path 866" d="M835.565,355.37,778.189,407.3s-10.823-21.638-14.066-21.638,38.989-63.835,38.989-63.835,10.823-12.979,17.309-6.494S846.388,317.5,835.565,355.37Z" transform="translate(-217.053 -83.522)" fill="#36d678"/>
    <circle id="Ellipse_76" data-name="Ellipse 76" cx="35.703" cy="35.703" r="35.703" transform="translate(536.281 151.759)" fill="#f8bdc5"/>
    <path id="Path_867" data-name="Path 867" d="M770.436,243.323c-6.459.869-12.97-3.721-15.109-9.875s-.243-13.31,4.069-18.186,10.728-7.607,17.213-8.241c3.938-.383,8.137-.1,11.571-2.069,2.165-1.234,3.773-3.234,5.59-4.938,6.807-6.416,16.674-8.745,26.019-8.311s18.369,3.364,27.271,6.259c3.321,1.078,7.146,2.686,7.911,6.085.583,2.556-.869,5.086-1.33,7.65-1.53,8.163,6.338,14.874,13.683,18.76s16,7.972,18.047,16.03c1.834,7.224-2.539,14.344-5.39,21.229a54.68,54.68,0,0,0-1.313,37.851c2.086,6.242,5.32,12.171,6.589,18.595a32.077,32.077,0,0,1-3.181,21.168c-1.017,1.9-2.26,3.782-2.408,5.92a11.137,11.137,0,0,0,1.234,5.164,55.047,55.047,0,0,0,33.2,29.931c-2.321,4.207-7.39,5.964-12.066,7.068a111.112,111.112,0,0,1-24.341,2.938c-5.512.052-11.171-.339-16.2-2.608s-9.406-6.607-10.354-12.04c-.548-3.147.061-6.4-.331-9.563-.869-7.129-6.6-12.718-8.693-19.586-2.008-6.563-3.173-7.563-2.4-14.387s.626-14.4-3.824-19.63c-4.66-5.477-12.849-6.694-19.873-5.138s-10.658-.643-17.074,2.608a132,132,0,0,1-35.59,12.1c3.355-8.885,7.572-18.682,16.37-22.272,2.521-1.026,5.442-1.573,7.155-3.686,2.73-3.373.869-8.78,3.225-12.414s7.963-3.8,11.188-6.824c2.738-2.608,3.242-6.876,2.182-10.475s-3.4-6.668-5.764-9.563q-3.138-3.9-6.424-7.685a28.912,28.912,0,0,1-5.059-7.163c-.739-1.739-.6-5.025-1.808-6.407C781.355,238.116,774.166,242.828,770.436,243.323Z" transform="translate(-215.812 -67.597)" opacity="0.1"/>
    <path id="Path_868" data-name="Path 868" d="M771.946,242.413c-6.459.869-12.97-3.721-15.109-9.876s-.244-13.309,4.068-18.186,10.728-7.607,17.213-8.241c3.938-.383,8.136-.1,11.571-2.069,2.165-1.234,3.773-3.234,5.59-4.938,6.807-6.416,16.674-8.745,26.019-8.311s18.369,3.364,27.271,6.259c3.321,1.078,7.146,2.686,7.911,6.085.583,2.556-.869,5.086-1.33,7.65-1.53,8.163,6.337,14.874,13.683,18.76s16,7.972,18.047,16.03c1.834,7.224-2.538,14.344-5.39,21.229a54.682,54.682,0,0,0-1.313,37.851c2.086,6.242,5.32,12.171,6.59,18.595a32.08,32.08,0,0,1-3.182,21.168c-1.017,1.9-2.26,3.782-2.408,5.92a11.137,11.137,0,0,0,1.235,5.164,55.045,55.045,0,0,0,33.2,29.931c-2.321,4.208-7.389,5.964-12.066,7.068a111.107,111.107,0,0,1-24.341,2.938c-5.511.052-11.171-.339-16.2-2.608s-9.406-6.607-10.354-12.04c-.548-3.147.061-6.4-.33-9.563-.869-7.129-6.6-12.718-8.693-19.586-2.008-6.563-3.173-7.563-2.4-14.387s.626-14.4-3.825-19.629c-4.66-5.477-12.849-6.694-19.873-5.138s-10.658-.643-17.074,2.608a132,132,0,0,1-35.59,12.1c3.356-8.884,7.572-18.682,16.369-22.272,2.521-1.026,5.442-1.574,7.155-3.686,2.73-3.373.869-8.78,3.225-12.414s7.963-3.8,11.188-6.824c2.739-2.608,3.243-6.876,2.182-10.475s-3.4-6.668-5.763-9.563q-3.138-3.9-6.425-7.685a28.906,28.906,0,0,1-4.99-7.155c-.739-1.739-.6-5.025-1.808-6.407C782.865,237.206,775.676,241.926,771.946,242.413Z" transform="translate(-216.009 -67.478)" fill="#eb6475"/>
    <g id="Group_1215" data-name="Group 1215" transform="translate(418.32 499.065)" opacity="0.1">
      <path id="Path_869" data-name="Path 869" d="M669.595,631.55a37.393,37.393,0,0,0-1.235-8.52l.548.183A37.662,37.662,0,0,1,669.595,631.55Z" transform="translate(-622.883 -623.03)" fill="#fff"/>
      <path id="Path_870" data-name="Path 870" d="M657.2,675.774c8.693.513,35.7-11.9,41.111-18.4a5.77,5.77,0,0,0,1.252-3.069,6.789,6.789,0,0,1-1.252,5.216c-5.407,6.494-32.409,18.908-41.111,18.4-9.2-.539-39.989,1.078-41.11-12.979a1.739,1.739,0,0,1,.147-1.139C618.71,676.791,648.232,675.27,657.2,675.774Z" transform="translate(-616.047 -627.117)" fill="#fff"/>
    </g>
    <path id="Path_871" data-name="Path 871" d="M396.948,612.893c5.216-1.739,13.04-3.721,19.2-3.017,5.859-2.139,19.647-7.72,29.062-15.987a209.522,209.522,0,0,1,.617-24.55c4.816-54.768-6.016-90.836-6.016-90.836s-8.5-27.532-7.572-50.378c-.548,1.034-.869,1.652-.869,1.652-.748-19.708-7.459-40.1-12.484-52.8a4.247,4.247,0,0,1-.565-.209l-5.711-13.318a11.556,11.556,0,0,1-1.061-2.46l-.869-2.112.27-.113c-.087-.348-.183-.713-.27-1.087h0c-3.59-15.187-6.329-51.2-6.329-51.2-9.623-37.9,13.231-61.357,13.231-61.357l38.781-33.408a4.909,4.909,0,0,0-.383,1.365l.322-.278c.548-1.565,1.147-3.477,1.739-5.6a29.485,29.485,0,0,1-3.877-3.277,29.793,29.793,0,0,1-8.693-15.518c-.939-4.616-.756-9.371-.565-14.074l.643-16.1a51.121,51.121,0,0,1,.956-9.389c2.93-12.814,16.022-21.733,29.157-22.3a107.647,107.647,0,0,1,12.518.669,84.184,84.184,0,0,0,10.171.217,1.844,1.844,0,0,0,1.1-.287,1.609,1.609,0,0,0,.478-1.113,5.539,5.539,0,0,0-1.356-4.147,5.165,5.165,0,0,0-1.739-1.008l.939.226a5.112,5.112,0,0,0-1.539-.826c3.356.791,6.79,1.617,9.676,3.477a12.5,12.5,0,0,1,2.26,1.9,9.867,9.867,0,0,1,3.269,6.085,11.629,11.629,0,0,0,3.477-5.1,5.156,5.156,0,0,0,0-2.469q.339.426.661.869a.414.414,0,0,0-.061-.261,25.817,25.817,0,0,1,5.051,10.432,4.051,4.051,0,0,0,.826-3c.191.591.374,1.191.539,1.8a4.164,4.164,0,0,0,.061-1.2A41.137,41.137,0,0,1,524,147.089c0,4.833-2.138,12.353-7.32,14.048a8,8,0,0,1-.817.217,32.469,32.469,0,0,1-21.9,49.6q-.122.869-.243,1.852h-.209c-.139,1.3-.252,2.677-.339,4.112a27.674,27.674,0,0,0,4.26,3.425,35.174,35.174,0,0,0,14.2,4.7,42.273,42.273,0,0,1,17.082,5.077c6.19,3.477,13.04,8.511,15.17,14.639,3.582,10.232,23.263,26.08,36.512,28.053l4.694-.269.339-.1v.087l1.147-.07h.374v.07l1.191-.07s.122.548.278,1.521c6.65-2.278,20.76-8.624,39.12-25.28,20.464-18.56,48.083-14.909,58.732-12.571a1.826,1.826,0,0,1,.487,3.382c-4.294,2.365-10.971,5.8-14.1,6.181,0,0,6.45,6.676-.4,10.241a4.929,4.929,0,0,1-5.155-.5c-3.295-2.408-12.457,3.051-25.724,5.894,0,0-37.451,38.755-56.028,44.753a26.761,26.761,0,0,1-1.417,2.469l-1.148-.1-.061.1h-.157l-.139,1.217s-28.905-1.521-38.25-12.014a15.059,15.059,0,0,1-1.834-1.956L552.4,422.266h-.1l.1,1.2h-7.389a278.722,278.722,0,0,0,1.982,46.622V552.5s.382,7.259-14.683,17.821a563.236,563.236,0,0,0-45.622,35.356l-1.826,1.582c2.773,25.211,8.572,72.224,13.405,73.98l-2.982.522c5.138,6.477,19.612,24.246,24.037,24.741,5.416.6,9.024,9.024,0,10.832-8.328,1.669-29.974,3.843-53.594-5.286a8.181,8.181,0,0,1-5.147-8.693l1.739-13.283a1.86,1.86,0,0,0-.765.808c-1.2,3.608,0-4.816,0-4.816a376.37,376.37,0,0,1-11.632-48.544l-17.9,15.413s-.365-.443-.982-1.243c-4.347,9.945-12.171,30.261-10.432,45.161,2.408,20.456-20.455,2.408-18.047-9.623,1.947-9.736-6.737-50.977-10.128-66.365a6.859,6.859,0,0,1,4.512-7.972Z" transform="translate(-168.487 -58.269)" fill="url(#linear-gradient-2)"/>
    <path id="Path_872" data-name="Path 872" d="M611.554,296.985s17.039-2.938,42.293-25.845c19.995-18.126,46.944-14.553,57.376-12.275a1.739,1.739,0,0,1,.478,3.295c-4.2,2.3-10.719,5.659-13.77,6.042,0,0,6.294,6.52-.391,10.006a4.816,4.816,0,0,1-5.033-.487c-3.217-2.347-12.171,2.982-25.115,5.755,0,0-50.517,52.281-62.261,43.466Z" transform="translate(-196.301 -76.132)" fill="#fec3be"/>
    <path id="Path_873" data-name="Path 873" d="M506.507,217.484s-4.7,19.995,0,34.069l-21.151,2.938-18.786-9.432v-12.3s8.815-18.795,6.459-40.528Z" transform="translate(-178.195 -67.673)" fill="#fec3be"/>
    <path id="Path_874" data-name="Path 874" d="M437.49,713.989s-15.292,29.957-12.918,49.926-19.995,2.347-17.621-9.4c1.9-9.5-6.581-49.778-9.884-64.8a6.694,6.694,0,0,1,4.451-7.824c7.068-2.321,18.882-5.216,24.828-.817C435.142,687.553,437.49,713.989,437.49,713.989Z" transform="translate(-169.092 -131.251)" fill="#5a5773"/>
    <path id="Path_875" data-name="Path 875" d="M505.655,756.845s19.995,25.845,25.263,26.437,8.815,8.815,0,10.571c-8.128,1.626-29.27,3.756-52.334-5.164a7.989,7.989,0,0,1-5.025-8.5l3.312-25.107Z" transform="translate(-179.099 -141.22)" fill="#5a5773"/>
    <path id="Path_876" data-name="Path 876" d="M531.6,441.56l19.125,2.556a280.588,280.588,0,0,0,.226,67.347v80.474s.374,7.085-14.335,17.387a549.9,549.9,0,0,0-44.544,34.521l-53.307,46.179S417.61,664.178,420.548,648.9c0,0,35.243-11.162,39.946-29.374,2.695-10.432,16.361-19.125,27.549-24.646,14.413-7.12,22.272-23.3,18.325-38.876a29.963,29.963,0,0,0-3-7.555C493.972,532.005,480.462,495,480.462,495l25.845-49.343Z" transform="translate(-172.145 -100.253)" fill="#605d82"/>
    <path id="Path_877" data-name="Path 877" d="M531.7,441.56l19.125,2.556a280.6,280.6,0,0,0,.226,67.347v80.474s.374,7.085-14.335,17.387a549.937,549.937,0,0,0-44.51,34.538L438.9,690.04S417.75,664.2,420.688,648.921c0,0,35.243-11.162,39.946-29.375,2.7-10.432,16.361-19.125,27.549-24.646,14.413-7.12,22.272-23.3,18.325-38.876a29.975,29.975,0,0,0-3-7.554c-9.4-16.448-22.907-53.455-22.907-53.455l25.845-49.343Z" transform="translate(-172.163 -100.253)" opacity="0.05"/>
    <path id="Path_878" data-name="Path 878" d="M506.2,717.678s-34.678,5.877-35.834,9.441,0-4.7,0-4.7-19.995-60.505-15.274-113.961-5.877-88.672-5.877-88.672-12.336-39.946-5.286-62.852S525,444,525,444s-25.845,60.444-25.254,89.254c0,0-2.938,86.933-8.224,96.922C491.52,630.154,499.744,715.331,506.2,717.678Z" transform="translate(-174.953 -100.289)" fill="#605d82"/>
    <path id="Path_879" data-name="Path 879" d="M505.332,238.85s-3.521,21.733-38.772,12.336l23.472,178.569s68.138,2.347,67.556-5.877L543.513,315.8Z" transform="translate(-178.194 -73.764)" fill="#fff"/>
    <path id="Path_880" data-name="Path 880" d="M510.149,237.5a28.65,28.65,0,0,0,16.969,8.059,41.288,41.288,0,0,1,16.674,4.964c6.085,3.382,12.718,8.3,14.778,14.3,4.112,11.745,29.957,31.131,41.728,27.019l-4.112,35.243s-33.478-1.739-39.354-14.683l9.989,125.705h-8.8s-4.7-34.069-8.224-41.119-10.571-45.814-11.162-55.22-9.4-63.461-17.039-72.841L510.14,241.021Z" transform="translate(-183.889 -73.588)" opacity="0.1"/>
    <path id="Path_881" data-name="Path 881" d="M510.149,239.53s7.824,6.581,18.143,7.467a41.286,41.286,0,0,1,16.674,4.964c6.085,3.382,12.719,8.3,14.779,14.3,4.112,11.745,29.957,31.131,41.728,27.019l-4.112,35.243s-33.478-1.739-39.354-14.683l10,125.7H559.2s-4.7-34.069-8.224-41.119S540.4,352.6,539.81,343.2s-9.4-63.461-17.039-72.841L510.14,243.042Z" transform="translate(-183.889 -73.853)" opacity="0.1"/>
    <path id="Path_882" data-name="Path 882" d="M510.149,238.18s7.824,6.581,18.143,7.468a41.284,41.284,0,0,1,16.674,4.964c6.085,3.382,12.719,8.3,14.779,14.3,4.112,11.745,29.957,31.131,41.728,27.019l-4.112,35.243s-33.478-1.739-39.354-14.683L567.994,438.2h-8.8s-4.7-34.069-8.224-41.119-10.571-45.814-11.162-55.22-9.4-63.461-17.039-72.841L510.14,241.7Z" transform="translate(-183.889 -73.677)" fill="#67647e"/>
    <path id="Path_883" data-name="Path 883" d="M475.469,209.82c.765-5.564-.765-9.041-1.469-15.57l33.478,25.263s-.8,3.416-1.408,8.406a31.935,31.935,0,0,1-5.051.409C489.335,228.328,480.955,219.243,475.469,209.82Z" transform="translate(-179.166 -67.936)" opacity="0.1"/>
    <circle id="Ellipse_77" data-name="Ellipse 77" cx="31.722" cy="31.722" r="31.722" transform="translate(290.131 95.192)" fill="#fec3be"/>
    <path id="Path_884" data-name="Path 884" d="M533.357,155.322a40.151,40.151,0,0,0-2.608-15.7,3.912,3.912,0,0,1-.669,5.068,25.132,25.132,0,0,0-7.937-14.118c2.26.365,3.416,3.173,2.869,5.4s-2.269,3.938-3.921,5.52c.191-3.364-2.026-6.494-4.842-8.346s-6.172-2.608-9.45-3.425a5.476,5.476,0,0,1,3.625,5.616,1.564,1.564,0,0,1-.469,1.087,1.8,1.8,0,0,1-1.069.287,82.2,82.2,0,0,1-9.928-.209,104.063,104.063,0,0,0-12.223-.652c-12.831.539-25.61,9.258-28.471,21.733a49.918,49.918,0,0,0-.93,9.163l-.626,15.718c-.182,4.59-.365,9.241.557,13.744a29.114,29.114,0,0,0,14.961,19.821c4.608-6.676,5.016-15.257,6.615-23.211a11.746,11.746,0,0,1,1.991-5.129,4.491,4.491,0,0,1,4.912-1.669c1.721.687,2.469,3.321,1.035,4.494,1.234,1.5,3.669.382,5.085-.956a27.436,27.436,0,0,0,7.963-14.214c.574-2.738,1.148-6.085,3.79-7.033a7.129,7.129,0,0,1,2.843-.191c5.59.382,14.335,2.695,19.76.921C531.27,167.345,533.357,160.034,533.357,155.322Z" transform="translate(-176.887 -59.504)" opacity="0.1"/>
    <path id="Path_885" data-name="Path 885" d="M532.687,154.639a40.16,40.16,0,0,0-2.608-15.7,3.912,3.912,0,0,1-.67,5.068,25.132,25.132,0,0,0-7.937-14.135c2.26.365,3.417,3.173,2.869,5.4s-2.269,3.938-3.921,5.52c.191-3.364-2.025-6.494-4.842-8.346s-6.172-2.608-9.45-3.425a5.477,5.477,0,0,1,3.625,5.616,1.566,1.566,0,0,1-.469,1.087,1.8,1.8,0,0,1-1.069.287,82.2,82.2,0,0,1-9.928-.209,104.07,104.07,0,0,0-12.223-.652c-12.832.539-25.611,9.258-28.471,21.733a49.908,49.908,0,0,0-.93,9.163l-.626,15.718c-.183,4.59-.365,9.241.556,13.744a29.114,29.114,0,0,0,14.961,19.769c4.608-6.676,5.016-15.257,6.616-23.211a11.743,11.743,0,0,1,1.991-5.129,4.491,4.491,0,0,1,4.912-1.669c1.721.687,2.469,3.321,1.034,4.494,1.234,1.5,3.669.383,5.086-.956a27.436,27.436,0,0,0,7.963-14.214c.574-2.738,1.148-6.085,3.79-7.033a7.127,7.127,0,0,1,2.843-.191c5.59.382,14.335,2.695,19.76.921C530.592,166.705,532.687,159.36,532.687,154.639Z" transform="translate(-176.8 -59.413)" fill="#916168"/>
    <path id="Path_886" data-name="Path 886" d="M615.542,300s4.7,21.733-4.112,35.243l-4.99-.409,2.721-34.469Z" transform="translate(-196.472 -81.755)" opacity="0.1"/>
    <path id="Path_887" data-name="Path 887" d="M614.192,300s4.7,21.733-4.112,35.243l-4.99-.409,2.721-34.469Z" transform="translate(-196.296 -81.755)" fill="#fd6f8d"/>
    <path id="Path_888" data-name="Path 888" d="M462.294,231.76l-37.885,32.6s-22.342,22.907-12.927,59.914c0,0,4.112,54.038,8.815,56.394,0,0,16.448,32.9,17.621,64.026,0,0,22.029-44.336,32.017-17.326S503.127,458.2,503.127,458.2L490.2,298.429S457.6,241.74,462.294,231.76Z" transform="translate(-170.694 -72.838)" opacity="0.1"/>
    <path id="Path_889" data-name="Path 889" d="M460.945,231.76l-37.885,32.6s-22.324,22.907-12.927,59.914c0,0,4.112,54.038,8.815,56.394,0,0,16.448,32.9,17.621,64.026,0,0,23.2-46.7,33.191-19.682S501.778,458.2,501.778,458.2L488.825,298.429S456.242,241.74,460.945,231.76Z" transform="translate(-170.519 -72.838)" fill="#67647e"/>
    <path id="Path_890" data-name="Path 890" d="M445.292,390.036s-9.4-6.459-24.672,11.162l37.59,68.138,12.631-19.125S444.118,397.678,445.292,390.036Z" transform="translate(-172.191 -93.369)" fill="#fec3be"/>
    <path id="Path_891" data-name="Path 891" d="M454,393.1s-20.786,23.35-28.9,19.6l-7.511-17.517,28.175-12.075Z" transform="translate(-171.795 -92.615)" opacity="0.1"/>
    <path id="Path_892" data-name="Path 892" d="M454,391.749s-20.786,23.35-28.9,19.6L417.59,393.87l28.175-12.11Z" transform="translate(-171.795 -92.438)" fill="#fd6f8d"/>
    <path id="Path_893" data-name="Path 893" d="M474.648,454.38s-9.893,20.281-15.178,21.464l7.633,8.815,11.162-21.151Z" transform="translate(-177.268 -101.928)" opacity="0.1"/>
    <path id="Path_894" data-name="Path 894" d="M475.328,455.05s-9.893,20.281-15.178,21.464l7.633,8.815,11.162-21.151Z" transform="translate(-177.356 -102.015)" fill="#4d4981"/>
    <path id="Path_895" data-name="Path 895" d="M456.07,310.81s-1.174,42.293,3.521,58.149" transform="translate(-176.806 -83.167)" opacity="0.1"/>
    <path id="Path_896" data-name="Path 896" d="M564.5,319.034s-7.05-2.347-7.05-8.224" transform="translate(-190.071 -83.167)" opacity="0.1"/>
    <rect id="Rectangle_133" data-name="Rectangle 133" width="49.908" height="3.564" transform="translate(467.168 184.567) rotate(9.18)" fill="#40414d"/>
    <path id="Path_897" data-name="Path 897" d="M744.5,274.235s-5.1,3.478-10.006,4.1a9.562,9.562,0,0,1-2.7,0c-4.494-.722-6.824-2.921-7.25-5.5a5.943,5.943,0,0,1,.565-3.477c1.217-2.321,4.12-3.669,8.615-2.938a11.039,11.039,0,0,1,3.86,1.53A28.229,28.229,0,0,1,744.5,274.235Z" transform="translate(-211.897 -77.341)" fill="#40414d"/>
    <path id="Path_898" data-name="Path 898" d="M745.992,274.485s-5.1,3.477-10.006,4.1a2.468,2.468,0,0,1,.1-1.634,12.073,12.073,0,0,1,1.652-2.034c.513-.713.652-1.9-.1-2.33a2.964,2.964,0,0,1-.513-.278c-.452-.409,0-1.139.382-1.573a4.161,4.161,0,0,0,1.556-2.608A28.221,28.221,0,0,1,745.992,274.485Z" transform="translate(-213.388 -77.59)" fill="#f8bdc5"/>
  </g>
</svg>
