<svg xmlns="http://www.w3.org/2000/svg" width="1224.597" height="1110.624" viewBox="0 0 1224.597 1110.624">
  <g id="splash_2" transform="translate(0.001)">
    <path id="Path_399" data-name="Path 399" d="M488.882,285.856h0A169.882,169.882,0,0,1,658.765,455.738V862.763H319V455.738A169.882,169.882,0,0,1,488.882,285.856Z" transform="translate(123.388 110.568)" fill="#e6e6e6"/>
    <rect id="Rectangle_41" data-name="Rectangle 41" width="30.509" height="101.236" transform="translate(522.822 600.668)" fill="#fff"/>
    <rect id="Rectangle_42" data-name="Rectangle 42" width="101.236" height="91.528" transform="translate(561.653 710.225)" fill="#fff"/>
    <rect id="Rectangle_43" data-name="Rectangle 43" width="101.236" height="101.236" transform="translate(561.653 600.668)" fill="#fff"/>
    <path id="Path_400" data-name="Path 400" d="M642.5,496.045h30.51v-2.081a89.212,89.212,0,0,0-30.51-67.254Z" transform="translate(28.709 96.303)" fill="#fff"/>
    <path id="Path_401" data-name="Path 401" d="M563.5,502.235H664.736V426.413a89.018,89.018,0,0,0-50.618-15.708h0A89.018,89.018,0,0,0,563.5,426.413Z" transform="translate(-1.847 90.113)" fill="#fff"/>
    <path id="Path_402" data-name="Path 402" d="M566.01,561.706H535.5v69.339a22.19,22.19,0,0,0,22.189,22.189h8.321Z" transform="translate(-12.678 148.519)" fill="#fff"/>
    <path id="Path_403" data-name="Path 403" d="M642.5,561.706v91.528h8.32a22.189,22.189,0,0,0,22.189-22.189V561.706Z" transform="translate(28.709 148.519)" fill="#fff"/>
    <path id="Path_404" data-name="Path 404" d="M566.01,496.045V426.709a89.214,89.214,0,0,0-30.51,67.254v2.081Z" transform="translate(-12.678 96.303)" fill="#fff"/>
    <rect id="Rectangle_44" data-name="Rectangle 44" width="30.509" height="101.236" transform="translate(671.209 600.668)" fill="#fff"/>
    <circle id="Ellipse_24" data-name="Ellipse 24" cx="18.028" cy="18.028" r="18.028" transform="translate(739.856 699.131)" fill="#3f3d56"/>
    <rect id="Rectangle_45" data-name="Rectangle 45" width="23.946" height="79.458" transform="translate(165.57 544.134)" fill="#f2f2f2"/>
    <rect id="Rectangle_46" data-name="Rectangle 46" width="79.458" height="79.458" transform="translate(196.046 544.134)" fill="#f2f2f2"/>
    <rect id="Rectangle_47" data-name="Rectangle 47" width="23.946" height="79.458" transform="translate(282.036 544.134)" fill="#f2f2f2"/>
    <path id="Path_405" data-name="Path 405" d="M361.872,452.408h23.946v-1.633a70.02,70.02,0,0,0-23.946-52.786Z" transform="translate(-79.836 85.194)" fill="#f2f2f2"/>
    <rect id="Rectangle_48" data-name="Rectangle 48" width="79.458" height="71.838" transform="translate(196.046 630.122)" fill="#f2f2f2"/>
    <path id="Path_406" data-name="Path 406" d="M301.836,503.945H277.89v54.422a17.415,17.415,0,0,0,17.415,17.415h6.531Z" transform="translate(-112.32 126.177)" fill="#f2f2f2"/>
    <path id="Path_407" data-name="Path 407" d="M361.872,503.945v71.838H368.4a17.415,17.415,0,0,0,17.416-17.416V503.945Z" transform="translate(-79.836 126.177)" fill="#f2f2f2"/>
    <path id="Path_408" data-name="Path 408" d="M301.836,452.408V397.989a70.021,70.021,0,0,0-23.946,52.787v1.633Z" transform="translate(-112.32 85.194)" fill="#f2f2f2"/>
    <path id="Path_409" data-name="Path 409" d="M299.866,457.267h79.458v-59.51a69.868,69.868,0,0,0-39.729-12.328h0a69.867,69.867,0,0,0-39.729,12.328Z" transform="translate(-103.82 80.336)" fill="#f2f2f2"/>
    <path id="Path_410" data-name="Path 410" d="M459.523,568.382H257.069a4.9,4.9,0,0,1-4.9-4.9V550.423a4.9,4.9,0,0,1,4.9-4.9H459.523a4.9,4.9,0,0,1,4.9,4.9v13.062A4.9,4.9,0,0,1,459.523,568.382Z" transform="translate(-122.268 142.26)" fill="#e6e6e6"/>
    <rect id="Rectangle_49" data-name="Rectangle 49" width="23.946" height="79.458" transform="translate(918.6 544.134)" fill="#f2f2f2"/>
    <rect id="Rectangle_50" data-name="Rectangle 50" width="79.458" height="79.458" transform="translate(949.076 544.134)" fill="#f2f2f2"/>
    <rect id="Rectangle_51" data-name="Rectangle 51" width="23.946" height="79.458" transform="translate(1035.066 544.134)" fill="#f2f2f2"/>
    <path id="Path_411" data-name="Path 411" d="M904.872,452.408h23.947v-1.633a70.022,70.022,0,0,0-23.947-52.786Z" transform="translate(130.194 85.194)" fill="#f2f2f2"/>
    <rect id="Rectangle_52" data-name="Rectangle 52" width="79.458" height="71.838" transform="translate(949.076 630.122)" fill="#f2f2f2"/>
    <path id="Path_412" data-name="Path 412" d="M844.836,503.945H820.89v54.422a17.415,17.415,0,0,0,17.415,17.415h6.531Z" transform="translate(97.71 126.177)" fill="#f2f2f2"/>
    <path id="Path_413" data-name="Path 413" d="M904.872,503.945v71.838H911.4a17.416,17.416,0,0,0,17.416-17.416V503.945Z" transform="translate(130.194 126.177)" fill="#f2f2f2"/>
    <path id="Path_414" data-name="Path 414" d="M844.836,452.408V397.989a70.02,70.02,0,0,0-23.946,52.786v1.634Z" transform="translate(97.71 85.194)" fill="#f2f2f2"/>
    <path id="Path_415" data-name="Path 415" d="M842.866,457.267h79.458v-59.51a69.869,69.869,0,0,0-39.729-12.328h0a69.865,69.865,0,0,0-39.729,12.328Z" transform="translate(106.21 80.336)" fill="#f2f2f2"/>
    <path id="Path_416" data-name="Path 416" d="M1002.523,568.383H800.069a4.9,4.9,0,0,1-4.9-4.9V550.423a4.9,4.9,0,0,1,4.9-4.9h202.454a4.9,4.9,0,0,1,4.9,4.9v13.062A4.9,4.9,0,0,1,1002.523,568.383Z" transform="translate(87.762 142.26)" fill="#e6e6e6"/>
    <path id="Path_417" data-name="Path 417" d="M1300.917,972.514H224.764A45.816,45.816,0,0,1,179,926.75V229.192a45.816,45.816,0,0,1,45.764-45.764H1300.917a45.816,45.816,0,0,1,45.764,45.764V926.75A45.816,45.816,0,0,1,1300.917,972.514ZM224.764,186.2a43.039,43.039,0,0,0-42.991,42.991V926.75a43.039,43.039,0,0,0,42.991,42.99H1300.917a43.039,43.039,0,0,0,42.99-42.99V229.192a43.04,43.04,0,0,0-42.99-42.991Z" transform="translate(-150.57 2.203)" fill="#ccc"/>
    <path id="Path_418" data-name="Path 418" d="M204.331,326.412a45.866,45.866,0,0,1-7.345-91.135L759.407,50.485a68.181,68.181,0,0,1,22.076-.027l563.169,184.849a45.857,45.857,0,0,1-14.839,90.505c-6.067-.867-554.055-79.112-559.053-79.317-4.978.206-553.5,78.527-559.041,79.319A45.941,45.941,0,0,1,204.331,326.412Z" transform="translate(-158.5 -49.572)" fill="#ccc"/>
    <path id="Path_419" data-name="Path 419" d="M780.485,688.326a13,13,0,0,0-4.3-19.471l2.571-29.6L761.148,633.3l-3.043,41.859a13.074,13.074,0,0,0,22.381,13.167Z" transform="translate(72.998 176.211)" fill="#ffb8b8"/>
    <path id="Path_420" data-name="Path 420" d="M685.329,806.436H669.473l-7.538-61.152,23.4,0Z" transform="translate(256.034 288.272)" fill="#ffb8b8"/>
    <path id="Path_421" data-name="Path 421" d="M664.574,786.112h30.576v19.251H645.323a19.251,19.251,0,0,1,19.252-19.251Z" transform="translate(249.608 304.064)" fill="#2f2e41"/>
    <path id="Path_422" data-name="Path 422" d="M663.261,776.683l-15.4,3.783-21.92-57.584,22.724-5.583Z" transform="translate(242.113 277.448)" fill="#ffb8b8"/>
    <path id="Path_423" data-name="Path 423" d="M19.251,0H49.828V19.251H0A19.251,19.251,0,0,1,19.252,0Z" transform="matrix(0.971, -0.239, 0.239, 0.971, 859.198, 1060.812)" fill="#2f2e41"/>
    <path id="Path_424" data-name="Path 424" d="M845.7,887a5.838,5.838,0,0,1-5.819-5.24L821.639,711.807l-15.875,51.97,22.485,81.173a5.86,5.86,0,0,1-3.474,7.012l-17.876,7.15a5.866,5.866,0,0,1-7.719-3.516l-27.556-79.06a71.571,71.571,0,0,1-3.932-26.9l3.846-85.321,101.3,4.289L871.252,879.7a5.9,5.9,0,0,1-5.425,5.806l-19.671,1.481C846,887,845.852,887,845.7,887Z" transform="translate(77.104 188.21)" fill="#2f2e41"/>
    <circle id="Ellipse_25" data-name="Ellipse 25" cx="34.061" cy="34.061" r="34.061" transform="translate(871.969 595.587)" fill="#ffb8b8"/>
    <path id="Path_425" data-name="Path 425" d="M854.629,723.925c-8.97,0-20.114-.734-31.643-1.492-15.754-1.037-32.045-2.108-44.2-1.4a9.664,9.664,0,0,1-8.643-3.763c-12.535-16.051,6.8-78.642,7.629-81.3L793.5,565.977l.677.153-.677-.153c3.461-15.393,14.521-26.748,28.863-29.633,13.424-2.7,26.409,2.678,34.736,14.388q.663.931,1.325,1.912C885.543,592.8,870.207,692.566,869.179,699c1.432,1.715,9.177,11.416,7.048,18.155-.865,2.741-3.218,4.609-6.992,5.552a65.218,65.218,0,0,1-14.606,1.213Z" transform="translate(76.45 138.444)" fill="#ccc"/>
    <path id="Path_426" data-name="Path 426" d="M780.61,723.317c-3.085,0-7.246-1.138-12.858-3.473-2.412-1-9.75-4.058-.841-81.922,4.376-38.247,10.646-76.228,10.708-76.608l.061-.365.337-.153c.162-.073,16.173-7.414,18.958-16.844q.146-.491.324-.949a8.658,8.658,0,0,1,10.753-5.282,9.1,9.1,0,0,1,6.854,10.385,63.831,63.831,0,0,1-5.534,17.739c-7.534,15.546-12.639,56.758-12.689,57.173-.288,3.52-7.126,86.913-8.444,93.241-.46,2.21-1.307,4.915-3.791,6.227a8.1,8.1,0,0,1-3.837.831Z" transform="translate(75.17 139.084)" fill="#2f2e41"/>
    <path id="Path_427" data-name="Path 427" d="M803.783,719.595a2.8,2.8,0,0,1-1.718-.589c-10.021-7.616,6.2-99.922,15.815-131.769,1.926-6.376,3.641-11.838,5.1-16.233h0a123.817,123.817,0,0,0,5.532-24.278c.529-4.474,1.68-7.028,3.519-7.812,1.277-.545,2.78-.175,4.465,1.1,8.883-.437,17.516,3.192,25.52,7.185l7.2,3.593,8.08,143.047c-.228,9.128-18.224,15.573-26.077,15.986-12.6.66-35.236,2.712-45.21,9.027A4.163,4.163,0,0,1,803.783,719.595Z" transform="translate(89.208 139.609)" fill="#2f2e41"/>
    <path id="Path_428" data-name="Path 428" d="M776.153,687.484c-.119,0-.238,0-.358-.011l-16.319-1a5.866,5.866,0,0,1-5.44-6.731l7.385-48.924,13.9-68.643a12.313,12.313,0,0,1,15.757-9.3h0a12.381,12.381,0,0,1,8.469,13.7L788.5,635.348l-6.538,47.078A5.9,5.9,0,0,1,776.153,687.484Z" transform="translate(71.825 144.882)" fill="#2f2e41"/>
    <path id="Path_429" data-name="Path 429" d="M831.256,549.544a36.341,36.341,0,1,0-6.81-71.871c-7.49-4.548-16.2-7.608-24.927-6.83s-17.36,5.96-20.624,14.093.243,18.852,8.358,22.157c5.2,2.119,11.078,1.091,16.631.237s11.61-1.412,16.442,1.453,7,10.547,2.677,14.129a14.891,14.891,0,0,0-4.277,16.392C820.9,544.931,826.837,549.45,831.256,549.544Z" transform="translate(80.997 113.327)" fill="#2f2e41"/>
    <path id="Path_430" data-name="Path 430" d="M771.209,529.751a33.485,33.485,0,0,0,0,66.97h0a33.485,33.485,0,1,0,0-66.97Z" transform="translate(65.541 136.159)" fill="#36d678"/>
    <path id="Path_395" data-name="Path 395" d="M763.289,572.235a4.061,4.061,0,0,1-2.445-.813l-.044-.033-9.208-7.044a4.092,4.092,0,0,1,4.979-6.5l5.965,4.575,14.094-18.388a4.09,4.09,0,0,1,5.735-.757h0l-.087.122.09-.122a4.1,4.1,0,0,1,.756,5.736l-16.578,21.618a4.09,4.09,0,0,1-3.254,1.6Z" transform="translate(70.285 141.066)" fill="#fff"/>
    <path id="Path_431" data-name="Path 431" d="M848.833,596.706H731.308a11.9,11.9,0,0,0-11.9,11.9V726.13a11.9,11.9,0,0,0,11.9,11.9H848.832a11.9,11.9,0,0,0,11.9-11.9V608.606a11.9,11.9,0,0,0-11.9-11.9Z" transform="translate(58.457 162.057)" fill="#36d678"/>
    <path id="Path_432" data-name="Path 432" d="M814.515,673.172l-55.488,10.806a12.659,12.659,0,0,1-14.829-9.995l-4.265-21.9a12.659,12.659,0,0,1,9.995-14.829l55.488-10.806a12.659,12.659,0,0,1,14.829,9.995l4.266,21.9A12.659,12.659,0,0,1,814.515,673.172Z" transform="translate(66.306 173.47)" fill="#fff"/>
    <path id="Path_433" data-name="Path 433" d="M798.443,643.059,756.1,651.306a2.976,2.976,0,0,1-1.137-5.841l42.347-8.246a2.975,2.975,0,0,1,1.137,5.841Z" transform="translate(71.277 177.706)" fill="#36d678"/>
    <path id="Path_434" data-name="Path 434" d="M786.805,651.865l-21.9,4.266a2.976,2.976,0,0,1-1.137-5.841l21.9-4.265a2.975,2.975,0,1,1,1.137,5.841Z" transform="translate(74.683 181.112)" fill="#36d678"/>
    <path id="Path_435" data-name="Path 435" d="M860.732,608.606v15.62H719.407v-15.62a11.9,11.9,0,0,1,11.9-11.9H848.831A11.9,11.9,0,0,1,860.732,608.606Z" transform="translate(58.456 162.057)" fill="#3f3d56"/>
    <path id="Path_436" data-name="Path 436" d="M810.721,615.578a13,13,0,0,1,19.727-2.9l26.758-12.925L869.028,614.1l-38.044,17.721a13.074,13.074,0,0,1-20.262-16.239Z" transform="translate(93.011 163.235)" fill="#ffb8b8"/>
    <path id="Path_437" data-name="Path 437" d="M839.694,650.125a5.871,5.871,0,0,1-5.706-4.494L830.1,629.474a5.843,5.843,0,0,1,2.691-6.406l23.44-14.028L844.25,565.17a15.007,15.007,0,0,1,.525-9.432h0a14.913,14.913,0,0,1,28.032.861l13.229,40.39a24.374,24.374,0,0,1-8.9,27.422l-34,24.6A5.861,5.861,0,0,1,839.694,650.125Z" transform="translate(101.208 142.57)" fill="#2f2e41"/>
    <path id="Path_438" data-name="Path 438" d="M904.741,851.2H763.288a1.387,1.387,0,0,1,0-2.774H904.741a1.387,1.387,0,0,1,0,2.774Z" transform="translate(74.893 259.422)" fill="#ccc"/>
  </g>
</svg>
