<svg xmlns="http://www.w3.org/2000/svg" width="1240.688" height="919.68" viewBox="0 0 1240.688 919.68">
  <g id="splash_1" transform="translate(0 0.098)">
    <path id="Path_708" data-name="Path 708" d="M834.7,643.72l9.762-6.024c.928-.588,1.842-1.215,2.783-1.8a93.242,93.242,0,0,1-77.338-87.558,92.276,92.276,0,0,1,8.05-42.472,93.4,93.4,0,0,1,59.866-51.646l-.484,38.421,21.105-41.818a.835.835,0,0,1,.261,0,93.229,93.229,0,0,1,97.476,88.786c.079,1.777,0,3.529,0,5.227,7.345-8.377,14.01-17.355,18.426-27.2,8.939-19.929,9.148-42.5,8.4-69.928-1.411-54.364-3.751-109.134-6.809-163.746a93.177,93.177,0,0,1-82.788-88.2c-.131-2.862-.091-5.672,0-8.468a13.986,13.986,0,0,1,.1-2.091c.183-2.705.431-5.384.849-8.024a7.657,7.657,0,0,1,.235-1.307q.575-3.359,1.372-6.639c.209-.81.405-1.634.627-2.444a70.506,70.506,0,0,1,2.208-7.031c.274-.771.6-1.516.889-2.274.666-1.7,1.385-3.372,2.143-5.031.405-.876.8-1.738,1.229-2.614.1-.222.2-.444.313-.666h0a93.164,93.164,0,0,1,109.46-47.281l-.627,50,20.909-41.3a92.654,92.654,0,0,1,44.432,100.456h.1c-.144.667-.353,1.307-.51,1.96-.288,1.228-.6,2.444-.941,3.659-.444,1.555-.941,3.084-1.45,4.613-.392,1.137-.771,2.3-1.2,3.424-.627,1.647-1.307,3.254-2.065,4.861-.418.941-.8,1.895-1.306,2.823q-1.79,3.607-3.921,7.057c-.484.8-1.032,1.555-1.542,2.352-.993,1.542-2,3.071-3.084,4.561-.667.915-1.385,1.79-2.091,2.692-1.019,1.307-2.065,2.614-3.149,3.8-.771.876-1.555,1.738-2.365,2.614-1.137,1.2-2.313,2.365-3.529,3.515-.8.771-1.608,1.542-2.444,2.274-1.372,1.215-2.81,2.378-4.26,3.515-.732.575-1.437,1.176-2.2,1.725q-3.306,2.457-6.834,4.613c-.444.261-.915.483-1.307.745-1.96,1.163-3.92,2.248-6.025,3.267-.875.431-1.79.81-2.692,1.215-1.686.758-3.384,1.49-5.123,2.156-1.007.379-2.039.732-3.071,1.085-1.711.588-3.45,1.124-5.227,1.607-1.045.288-2.078.575-3.136.823-1.908.457-3.855.836-5.815,1.163a.666.666,0,0,0-.379.078q1.935,34.553,3.437,69.144a93.177,93.177,0,0,1,129.376-40.446l-16.479,45.151,33.9-32.553a92.967,92.967,0,0,1,30.057,64.375,91.236,91.236,0,0,1-2.366,25.679A93.19,93.19,0,0,1,1008.508,440c0,2.339.17,4.692.235,7.031.614,24.2,1.385,54.312-10.677,81.206-8.168,18.23-21.328,33.037-34.331,46.3-8.455,8.638-17.224,16.989-26.215,25.078a93.231,93.231,0,0,1-33.664,27.992q-22.151,17.067-45.87,31.965l-9.605,6.194c-8.873,5.5-17.969,11.147-26.894,16.989,1.568-.157,3.123-.327,4.718-.392A93.268,93.268,0,0,1,918,743.04l-58.258,47.425,64.035-14.859A93.269,93.269,0,0,1,790.111,859.57c1.438,1.8,2.888,3.594,4.326,5.384,2.862,3.568,5.711,7.109,8.494,10.624,37.9,48,48.457,93.582,29.678,128.331l-22.817-12.337c18.3-33.821-9.148-77.1-27.222-99.92-2.731-3.45-5.528-6.926-8.351-10.455C750,851.141,722.561,817.006,723.253,775.174,724.233,712.185,785.51,674.2,834.7,643.72Z" transform="translate(58.283 -98.18)" fill="#f2f2f2"/>
    <ellipse id="Ellipse_64" data-name="Ellipse 64" cx="595.261" cy="27.443" rx="595.261" ry="27.443" transform="translate(0 864.694)" fill="#3f3d56"/>
    <path id="Path_709" data-name="Path 709" d="M952.625,810.225c3.921-7.2-.523-16.021-5.593-22.451s-11.252-13.069-11.121-21.289c.183-11.761,12.663-18.7,22.647-24.934A110.846,110.846,0,0,0,978.879,725.2a29.778,29.778,0,0,0,6.26-8.364c2.051-4.6,2-9.827,1.868-14.872q-.653-25.17-2.483-50.287" transform="translate(123.537 71.681)" fill="none" stroke="#3f3d56" stroke-miterlimit="10" stroke-width="4"/>
    <path id="Path_710" data-name="Path 710" d="M996.232,655.108a18.373,18.373,0,0,0-9.148-15.029l-4.1,8.128.118-9.827a18.337,18.337,0,1,0,13.068,16.727Z" transform="translate(130.791 67.364)" fill="#57b793"/>
    <path id="Path_711" data-name="Path 711" d="M970.7,752.262a18.3,18.3,0,1,1,.876-14.767l-11.448,9.318,12.6-2.927A18.29,18.29,0,0,1,970.7,752.262Z" transform="translate(123.609 94.359)" fill="#57b793"/>
    <path id="Path_712" data-name="Path 712" d="M960.164,727.322a18.3,18.3,0,0,1-19.158-17.472,18.037,18.037,0,0,1,1.581-8.351,18.375,18.375,0,0,1,11.762-10.167l-.092,7.566,4.156-8.233h0a18.348,18.348,0,0,1,1.712,36.657Z" transform="translate(125.093 83.636)" fill="#57b793"/>
    <path id="Path_713" data-name="Path 713" d="M994.233,704.6a18.316,18.316,0,1,1,8.1-34.265l-3.241,8.887,6.665-6.4a18.3,18.3,0,0,1,5.933,12.663,17.881,17.881,0,0,1-.471,5.044A18.3,18.3,0,0,1,994.233,704.6Z" transform="translate(135.548 76.683)" fill="#57b793"/>
    <path id="Path_714" data-name="Path 714" d="M993.714,657.594c-4.234.47-8.351,1.79-12.6,2.052s-8.913-.758-11.6-4.065c-1.45-1.777-2.169-4.025-3.4-5.959a13.071,13.071,0,0,0-4.613-4.352,18.3,18.3,0,1,0,34.291,12.179C995.087,657.476,994.394,657.528,993.714,657.594Z" transform="translate(130.839 69.714)" opacity="0.1"/>
    <path id="Path_715" data-name="Path 715" d="M994.243,702.136A18.3,18.3,0,0,1,976.8,676a13.593,13.593,0,0,1,3.685,3.7c1.307,1.973,2.091,4.247,3.634,6.063,2.848,3.359,7.736,4.457,12.166,4.248s8.691-1.451,13.068-1.856c.6,0,1.229-.1,1.843-.118a18.3,18.3,0,0,1-16.95,14.1Z" transform="translate(135.538 79.143)" opacity="0.1"/>
    <path id="Path_716" data-name="Path 716" d="M960.164,724.773A18.3,18.3,0,0,1,941.006,707.3a18.039,18.039,0,0,1,1.581-8.351,15.067,15.067,0,0,1,3.921,3.724c1.425,2.013,2.313,4.326,3.92,6.182,3.1,3.45,8.3,4.665,12.99,4.548s8.913-1.216,13.434-1.555A18.373,18.373,0,0,1,960.164,724.773Z" transform="translate(125.093 86.185)" opacity="0.1"/>
    <path id="Path_717" data-name="Path 717" d="M970.821,749.529A18.332,18.332,0,0,1,937.379,734.5a19.023,19.023,0,0,1,4.025,3.594c1.738,2.13,2.888,4.534,4.913,6.534,3.75,3.673,9.8,5.227,15.186,5.332A78.66,78.66,0,0,0,970.821,749.529Z" transform="translate(123.493 97.092)" opacity="0.1"/>
    <path id="Path_718" data-name="Path 718" d="M927.54,768.488s14.467-.445,18.831-3.554,22.216-6.822,23.353-1.83,21.759,24.83,5.41,24.908-37.976-2.614-42.328-5.227S927.54,768.488,927.54,768.488Z" transform="translate(120.969 105.119)" fill="#656380"/>
    <path id="Path_719" data-name="Path 719" d="M975.422,784.448c-16.336.131-37.977-2.614-42.329-5.228-3.306-2.012-4.639-9.265-5.07-12.611h-.484s.915,11.67,5.227,14.375,25.979,5.332,42.328,5.228c4.718,0,6.351-1.725,6.259-4.208C980.741,783.481,978.937,784.422,975.422,784.448Z" transform="translate(120.969 106.945)" opacity="0.2"/>
    <path id="Path_720" data-name="Path 720" d="M339.328,832.9c-9.488-17.563,1.307-39.074,13.643-54.73s27.443-31.939,27.117-51.894c-.471-28.672-30.893-45.6-55.2-60.794a269.59,269.59,0,0,1-49.568-39.845c-5.972-6.1-11.761-12.611-15.238-20.4-5.018-11.213-4.888-23.954-4.561-36.238q1.568-61.421,6.064-122.607" transform="translate(-85.268 8.691)" fill="none" stroke="#3f3d56" stroke-miterlimit="10" stroke-width="4"/>
    <path id="Path_721" data-name="Path 721" d="M224.772,454.679a44.706,44.706,0,0,1,22.321-36.591l10.01,19.8-.3-23.967a44.72,44.72,0,1,1-32.03,40.8Z" transform="translate(-94.677 -1.832)" fill="#57b793"/>
    <path id="Path_722" data-name="Path 722" d="M286.94,691.518a44.694,44.694,0,0,0,84.408-18.3,44.119,44.119,0,0,0-2.914-18.139,44.72,44.72,0,0,0-83.637.483l27.927,22.713L282,671.131A44.212,44.212,0,0,0,286.94,691.518Z" transform="translate(-77.102 63.939)" fill="#57b793"/>
    <path id="Path_723" data-name="Path 723" d="M312.666,630.807a44.72,44.72,0,0,0,14.179-87.715l.235,18.414-10.063-20.034H316.9a44.723,44.723,0,0,0-4.169,89.348Z" transform="translate(-80.756 37.85)" fill="#57b793"/>
    <path id="Path_724" data-name="Path 724" d="M229.629,575.537A44.72,44.72,0,1,0,209.869,491.9l7.841,21.654-16.192-15.643a44.511,44.511,0,0,0-14.506,30.868,43.6,43.6,0,0,0,1.137,12.31,44.707,44.707,0,0,0,41.479,34.448Z" transform="translate(-106.264 20.891)" fill="#57b793"/>
    <path id="Path_725" data-name="Path 725" d="M230.56,460.857c10.324,1.137,20.36,4.339,30.71,4.979s21.733-1.83,28.28-9.88c3.528-4.339,5.293-9.827,8.272-14.558a31.73,31.73,0,0,1,11.265-10.6,44.72,44.72,0,1,1-83.637,29.678C227.188,460.557,228.887,460.674,230.56,460.857Z" transform="translate(-94.453 3.908)" opacity="0.1"/>
    <path id="Path_726" data-name="Path 726" d="M229.337,569.523a44.746,44.746,0,0,0,42.537-63.773,33.074,33.074,0,0,0-8.991,8.991c-3.189,4.809-5.11,10.363-8.86,14.78-6.966,8.181-18.858,10.86-29.652,10.376s-21.21-3.567-31.952-4.548c-1.49-.131-3.006-.235-4.509-.275A44.706,44.706,0,0,0,229.337,569.523Z" transform="translate(-105.972 26.905)" opacity="0.1"/>
    <path id="Path_727" data-name="Path 727" d="M312.216,624.6a44.707,44.707,0,0,0,42.89-62.95,36.155,36.155,0,0,0-9.448,9.148c-3.476,4.9-5.646,10.546-9.71,15.068-7.54,8.4-20.217,11.37-31.651,11.095-11.069-.235-21.733-2.953-32.736-3.8A44.746,44.746,0,0,0,312.216,624.6Z" transform="translate(-80.305 44.057)" opacity="0.1"/>
    <path id="Path_728" data-name="Path 728" d="M285.78,684.794a44.694,44.694,0,0,0,84.408-18.3,44.115,44.115,0,0,0-2.914-18.138,44.757,44.757,0,0,0-9.8,8.743c-4.247,5.227-7.057,11.056-11.971,15.891-9.148,8.965-23.9,12.677-37.035,13.068A191.786,191.786,0,0,1,285.78,684.794Z" transform="translate(-75.942 70.662)" opacity="0.1"/>
    <path id="Path_729" data-name="Path 729" d="M508.234,711.816,335.733,747.1l-3.921-.392L180.22,731.418v-192.1L365.79,507.95l134.6,15.682.039.849.013.418Z" transform="translate(55.297 155.885)" fill="#36d678"/>
    <path id="Path_730" data-name="Path 730" d="M472.642,707.934l-172.5,35.284-3.921-.392V545.887L464.84,520.6Z" transform="translate(90.889 159.766)" opacity="0.1"/>
    <path id="Path_731" data-name="Path 731" d="M500.446,524.9l-.052.039-168.581,24.83L180.22,539.314,365.79,507.95l134.6,15.682.039.849Z" transform="translate(55.297 155.885)" opacity="0.05"/>
    <path id="Path_732" data-name="Path 732" d="M653.234,717.816,480.733,753.1l-3.921-.392L325.22,737.418v-192.1L510.79,513.95l134.6,15.682.039.849.013.418Z" transform="translate(99.787 157.726)" fill="#3f3d56"/>
    <path id="Path_733" data-name="Path 733" d="M617.642,713.934l-172.5,35.284-3.921-.392V551.887L609.84,526.6Z" transform="translate(135.38 161.607)" opacity="0.1"/>
    <path id="Path_734" data-name="Path 734" d="M645.446,530.9l-.052.039-168.581,24.83L325.22,545.314,510.79,513.95l134.6,15.682.039.849Z" transform="translate(99.787 157.726)" opacity="0.05"/>
    <path id="Path_735" data-name="Path 735" d="M562.235,573.815,389.733,609.1l-3.921-.392L234.22,593.418v-192.1L419.79,369.95l134.6,15.682.039.849.013.418Z" transform="translate(71.866 113.542)" fill="#3f3d56"/>
    <path id="Path_736" data-name="Path 736" d="M526.642,569.934l-172.5,35.284-3.921-.392V407.887L518.84,382.6Z" transform="translate(107.458 117.423)" opacity="0.1"/>
    <path id="Path_737" data-name="Path 737" d="M554.446,386.9l-.052.039-168.581,24.83L234.22,401.314,419.79,369.95l134.6,15.682.039.849Z" transform="translate(71.866 113.542)" opacity="0.05"/>
    <path id="Path_738" data-name="Path 738" d="M600.415,557.092l-90.027,18.426-2.052-.209-79.116-7.985V467.065l96.849-16.375,70.255,8.194.026.444v.209Z" transform="translate(131.698 138.316)" fill="#3f3d56"/>
    <path id="Path_739" data-name="Path 739" d="M581.839,555.064,491.812,573.49l-2.052-.209V470.5l88.015-13.2Z" transform="translate(150.273 140.344)" opacity="0.1"/>
    <path id="Path_740" data-name="Path 740" d="M596.35,459.537l-.026.026-87.989,12.964-79.116-5.463,96.849-16.375,70.255,8.194.026.444Z" transform="translate(131.698 138.316)" opacity="0.05"/>
    <path id="Path_741" data-name="Path 741" d="M415.415,408.092l-90.027,18.413-2.052-.2-79.115-7.985V318.065l96.849-16.375,70.255,8.194.026.444v.209Z" transform="translate(74.934 92.598)" fill="#3f3d56"/>
    <path id="Path_742" data-name="Path 742" d="M396.839,406.064l-90.027,18.413-2.052-.2V321.5l88.015-13.2Z" transform="translate(93.51 94.626)" opacity="0.1"/>
    <path id="Path_743" data-name="Path 743" d="M411.35,310.537l-.026.026-87.989,12.964-79.115-5.463,96.849-16.375,70.255,8.194.026.444Z" transform="translate(74.934 92.598)" opacity="0.05"/>
    <path id="Path_744" data-name="Path 744" d="M536.415,405.092l-90.028,18.413-2.052-.2-79.115-7.984V315.064l96.849-16.374,70.255,8.194.026.445v.209Z" transform="translate(112.061 91.677)" fill="#36d678"/>
    <path id="Path_745" data-name="Path 745" d="M517.839,403.064l-90.028,18.413-2.052-.2V318.5l88.015-13.2Z" transform="translate(130.636 93.705)" opacity="0.1"/>
    <path id="Path_746" data-name="Path 746" d="M532.35,307.537l-.026.026-87.989,12.964-79.115-5.463,96.849-16.374,70.255,8.194.026.445Z" transform="translate(112.061 91.677)" opacity="0.05"/>
    <path id="Path_747" data-name="Path 747" d="M572.415,328.092l-90.028,18.413-2.052-.2-79.115-7.985V238.064l96.849-16.374,70.255,8.194.026.444v.209Z" transform="translate(123.107 68.051)" fill="#3f3d56"/>
    <path id="Path_748" data-name="Path 748" d="M553.839,326.064l-90.028,18.413-2.052-.2V241.5l88.015-13.2Z" transform="translate(141.682 70.08)" opacity="0.1"/>
    <path id="Path_749" data-name="Path 749" d="M568.35,230.537l-.026.026-87.989,12.964-79.115-5.463,96.849-16.374,70.255,8.194.026.444Z" transform="translate(123.107 68.051)" opacity="0.05"/>
    <path id="Path_750" data-name="Path 750" d="M706.906,250.694c-.954,8.494-7.436,15.342-9.84,23.523-3.607,12.35,2.614,25.614,11.186,35.284a78.108,78.108,0,0,0,54.39,25.8,23.4,23.4,0,0,0,8.991-.98,19.523,19.523,0,0,0,6.835-4.679c6.43-6.469,9.893-15.421,11.265-24.451s.85-18.217.313-27.326a15.462,15.462,0,0,0-1.019-5.515A14.02,14.02,0,0,0,785.485,268a82.344,82.344,0,0,0-15.224-11.069c-2.353-1.307-4.875-2.614-6.377-4.874a15.94,15.94,0,0,1-1.973-5.842l-1.686-8.573a16.8,16.8,0,0,0-2.47-6.952c-2.966-4-8.651-4.548-13.63-4.744l-18.3-.719c-5.684-.222-13.16-1.856-18.714-.732-5.227,1.032-3.463,5.815-2.522,10.154A73.442,73.442,0,0,1,706.906,250.694Z" transform="translate(49.932 -59.514)" fill="#ffc0c6"/>
    <path id="Path_751" data-name="Path 751" d="M706.906,250.694c-.954,8.494-7.436,15.342-9.84,23.523-3.607,12.35,2.614,25.614,11.186,35.284a78.108,78.108,0,0,0,54.39,25.8,23.4,23.4,0,0,0,8.991-.98,19.523,19.523,0,0,0,6.835-4.679c6.43-6.469,9.893-15.421,11.265-24.451s.85-18.217.313-27.326a15.462,15.462,0,0,0-1.019-5.515A14.02,14.02,0,0,0,785.485,268a82.344,82.344,0,0,0-15.224-11.069c-2.353-1.307-4.875-2.614-6.377-4.874a15.94,15.94,0,0,1-1.973-5.842l-1.686-8.573a16.8,16.8,0,0,0-2.47-6.952c-2.966-4-8.651-4.548-13.63-4.744l-18.3-.719c-5.684-.222-13.16-1.856-18.714-.732-5.227,1.032-3.463,5.815-2.522,10.154A73.442,73.442,0,0,1,706.906,250.694Z" transform="translate(49.932 -59.514)" opacity="0.1"/>
    <path id="Path_752" data-name="Path 752" d="M815.549,547.091l-7.762,85.1c-2.026,22.32-4.09,44.733-8.063,66.766-1.307,7.593-2.979,15.146-4.887,22.634-5.306,20.792-13,41.113-15.486,62.427-.079.614-.144,1.307-.209,1.869-.51,4.7-.954,9.462-2.614,13.853-1.307,3.254-3.149,6.22-4.5,9.435-2.614,6.429-3.032,13.539-3.359,20.5a88.4,88.4,0,0,0-30.436-10.455c-5.227-.771-10.912-1.307-14.375-5.227-3.92-4.26-3.463-10.781-2.81-16.505q3.084-26.659,6.142-53.292a138.936,138.936,0,0,1,3.921-22.634c.706-2.47,1.555-4.9,2.418-7.332,1.189-3.345,2.391-6.691,3.293-10.128a122,122,0,0,0,2.587-16.766c2.1-17.878,4.639-35.716,6.861-53.58l.118-.941c3.333-27.077,5.867-54.286,5.136-81.56-.1-4.038-.275-8.076-.536-12.127-.365-5.868-.9-8.978,3.92-12.65,5.371-4.051,12.442-6.887,18.583-9.54,3.306-1.437,39.715-14.375,40.512-11.526A70.931,70.931,0,0,1,816.62,524,206.743,206.743,0,0,1,815.549,547.091Z" transform="translate(57.479 26.677)" fill="#605d82"/>
    <path id="Path_753" data-name="Path 753" d="M796.722,668.949c-1.307,7.593-2.979,15.146-4.887,22.634-5.306,20.792-13,41.113-15.486,62.427-.078.614-.144,1.307-.209,1.869-16.231-23.183-29.9-48.118-45.739-71.549,1.189-3.345,2.392-6.691,3.293-10.128a122.013,122.013,0,0,0,2.718-16.871c2.1-17.877,4.639-35.716,6.861-53.58l.118-.941a55.488,55.488,0,0,0,3.921,10.99c10.638,21.615,35.912,32.54,48.274,53.227Q796.2,667.994,796.722,668.949Z" transform="translate(60.481 56.686)" opacity="0.1"/>
    <path id="Path_754" data-name="Path 754" d="M680.387,532.71c.536,17.328,3.306,34.513,6.077,51.633l5.711,35.284c3.123,19.341,6.39,39.061,15.538,56.377,6.848,12.963,16.7,24.019,25.627,35.637,21.929,28.567,38.408,60.938,59.2,90.341,6.051,8.547,14.689,17.8,25,16.009,6.77-1.163,11.684-6.808,16.989-11.147,6.273-5.123,13.827-8.873,18.766-15.3s5.907-17.094-.784-21.667c-2.287-1.555-5.071-2.143-7.658-3.137-10.363-3.92-17.081-14.062-21.341-24.307s-6.861-21.236-12.545-30.763c-12.363-20.687-37.65-31.612-48.288-53.24-5.959-12.1-6.534-26.137-6.978-39.558l-1.163-34.383c-.131-3.764-.222-7.671,1.307-11.108,4.064-9.148,16.348-10.01,26.307-11.173a89.852,89.852,0,0,0,32.24-10.167c5.737-3.1,11.33-7.044,14.375-12.794,2.8-5.227,3.175-11.382,3.5-17.315l3.45-62.323c.3-5.358.562-10.912-1.307-15.93-4.744-12.624-20.687-16.754-34.16-16.152-25.065,1.124-48.2,11.905-71.876,19.2a183.776,183.776,0,0,1-17.812,4.639c-5.228,1.059-11.761.627-16.78,2.326-8.991,3.032-8.769,22.713-10.037,30.867A259.113,259.113,0,0,0,680.387,532.71Z" transform="translate(45.113 2.885)" fill="#605d82"/>
    <path id="Path_755" data-name="Path 755" d="M783.892,737.779c2.208,2.235,2.927,5.5,3.5,8.586a292.914,292.914,0,0,1,4.966,51.894,8.6,8.6,0,0,0,.928,4.7,6,6,0,0,0,2.444,1.96c6.39,3.045,13.8-1.2,19.132-5.868,9.867-8.638,18.218-20.243,18.779-33.35.144-3.372-.235-6.782.353-10.115.863-4.94,3.751-9.239,6.286-13.552a115.08,115.08,0,0,0,10.455-23.287c.967-3.058,1.62-6.9-.784-9.031a8.4,8.4,0,0,0-2.836-1.476l-28.881-10.716c-2.509-.928-8.73,15.055-9.709,16.806-2.418,4.273-4.823,6.691-9.671,7.684s-10.834-.445-15.46,2.026C775.554,728.213,779.461,733.323,783.892,737.779Z" transform="translate(75.362 85.737)" fill="#535070"/>
    <path id="Path_756" data-name="Path 756" d="M756.348,737.039a8.8,8.8,0,0,0-2.2-2.784,9.842,9.842,0,0,0-4.43-1.5c-5.489-.941-12-1.555-15.8,2.536-3.554,3.829-2.94,10.062-5.906,14.375a44.759,44.759,0,0,0-3.032,3.921,14.718,14.718,0,0,0-1.307,7.031c-.157,6.652-.314,13.33.157,19.969.379,5.567,1.307,11.409,4.8,15.773,5.593,7,15.682,8.011,24.621,8.455l7.253.379a14.381,14.381,0,0,0,5.933-.549,9.737,9.737,0,0,0,5.123-5.633c3.777-9.383-2.2-19.485-5.881-28.894C761.431,759.281,762.189,747.271,756.348,737.039Z" transform="translate(58.369 96.344)" fill="#535070"/>
    <path id="Path_757" data-name="Path 757" d="M708.578,219.881a5.921,5.921,0,0,1,.405-2.8c1.058-1.869,3.829-1.307,5.92-.836,8.4,2.117,17.263.2,25.927.693s18.413,4.822,20.151,13.317a63,63,0,0,0,15.983-16.414c2.4-3.594,4.5-7.71,4.169-12.023-.47-6.22-5.685-10.873-10.455-14.819L756.3,175.239a21.83,21.83,0,0,0-6.456-4.1c-3.319-1.137-6.952-.588-10.455-.588-10.455,0-21.667-4.77-30.985,0-3.92,2-6.835,5.436-9.657,8.782L685.9,194.541a8.116,8.116,0,0,0-2.065,3.489c-.366,1.856.588,3.685.928,5.554.6,3.4-.862,7.031.262,10.3,1.868,5.41,8.455,6.181,12.48,9.292,1.49,1.15,3.842,5.084,5.633,5.031C706.291,228.14,708.486,222.39,708.578,219.881Z" transform="translate(46.169 -76.596)" fill="#3f3d56"/>
    <circle id="Ellipse_65" data-name="Ellipse 65" cx="41.165" cy="41.165" r="41.165" transform="translate(735.38 105.818)" fill="#ffc0c6"/>
    <path id="Path_758" data-name="Path 758" d="M750.071,289.962a19.943,19.943,0,0,0-19.354-13.356,5.816,5.816,0,0,1-3.581-.458,4.956,4.956,0,0,1-1.477-1.829,72.831,72.831,0,0,1-6-14.192c-.654-2.183-1.556-4.757-3.764-5.319-1.777-.457-3.594.693-4.783,2.091a45.814,45.814,0,0,1-3.424,4.3c-5.228,4.626-14.375.4-19.851,4.652-.9.693-1.647,1.581-2.614,2.222a11.885,11.885,0,0,1-3.019,1.307A289.364,289.364,0,0,0,651,281.573c3.659,22.007,7.4,44.432,15.969,65.015,4.077,9.8,8.691,19.406,11.958,29.508,7.24,22.386,7.553,46.34,7.645,69.876,0,16.1,0,32.54-5.227,47.778-1.176,3.45-2.613,6.874-2.94,10.455s.745,7.632,3.685,9.775a12.427,12.427,0,0,0,5.685,2c9.031,1.307,18.126-1.072,27.012-3.136,23.823-5.515,48.131-8.677,72.373-11.762l40.642-5.227a23.778,23.778,0,0,0,8.416-2.182c7.436-4.064,8.141-15.251,3.515-22.36-2.209-3.411-5.332-6.208-7.2-9.814s-2.012-8.678,1.189-11.173c6.534-5.1,4.574-14.545,4.887-22.8q1.307-34.657-.353-69.262a135.558,135.558,0,0,1-.235-14.375c.458-8.129,2.47-16.087,4.482-23.994l12.35-48.614c-3.228-5.1-9.409-8.338-15.251-9.8s-11.945-1.895-17.708-3.685c-11.761-3.659-22.321-12.938-34.644-12.075a6.34,6.34,0,0,0-2.692.653c-2.771,1.581-2.339,5.58-2.509,8.769-.392,7.07-5.593,12.964-11.317,17.106s-12.284,7.148-17.551,11.866a7.841,7.841,0,0,0-3.111,5.855Z" transform="translate(36.118 -52.899)" fill="#3f3d56"/>
    <path id="Path_759" data-name="Path 759" d="M607.137,318.447a48.32,48.32,0,0,1-8.651,4.456c-2.875,1.137-5.947,2.039-8.3,4.025A13.14,13.14,0,0,0,587.3,330.5,15.852,15.852,0,0,0,601.91,354.11c3.777-.2,7.344-1.725,10.807-3.228l29.038-12.637c4.914-2.13,10.219-4.613,12.546-9.448a2.279,2.279,0,0,0,.287-1.5,2.471,2.471,0,0,0-1.2-1.307,65.041,65.041,0,0,1-16.9-15.943c-1.189-1.621-2.614-5.436-4.339-6.417C626.008,300.217,612.064,315.258,607.137,318.447Z" transform="translate(15.946 -35.266)" fill="#ffc0c6"/>
    <path id="Path_760" data-name="Path 760" d="M855.791,307l10.7,12.232c2.3,2.614,4.6,5.227,6.691,8.05a93.664,93.664,0,0,1,12.258,23.092c2.326,6.1,4.26,12.611,3.45,19.093a47.02,47.02,0,0,1-2.679,9.71,120.044,120.044,0,0,1-7.279,17.511,99.642,99.642,0,0,1-8.141,12.245A286.332,286.332,0,0,1,843.65,439.97c-3.659,3.62-5.227,9.488-6.782,14.375-2.94,9.03-9.932,16.074-16.688,22.739A46.005,46.005,0,0,1,813,483.252a23.264,23.264,0,0,1-13.068,3.711,14.373,14.373,0,0,1-5.867-1.215c-4.626-2.2-6.979-7.54-7.462-12.637a27.051,27.051,0,0,1,2.248-13.539c6.142-13.6,21.915-19.5,33.063-29.43,6.534-5.815,11.539-13.134,16.479-20.36a70.633,70.633,0,0,0,8.325-14.6c2.483-6.652,1.516-14.519,3.7-21.262.915-2.862,2.614-5.436,3.542-8.272s1.241-6.195-.5-8.638a12.477,12.477,0,0,0-4.848-3.555c-7.122-3.607-15.094-8.259-16.453-16.139a17.279,17.279,0,0,1,3.188-12.324,50.989,50.989,0,0,1,8.978-9.409C847.427,312.789,852.667,309.692,855.791,307Z" transform="translate(77.691 -34.078)" fill="#ffc0c6"/>
    <path id="Path_761" data-name="Path 761" d="M608.355,330.45c-1.882-3.816-4.248-7.71-8.063-9.605a14.846,14.846,0,0,0-11.762,0,44.582,44.582,0,0,0-10.3,6.221l-9.226,6.808a22.725,22.725,0,0,0-5.476,5.057,21.053,21.053,0,0,0-2.848,7.841c-1.307,6.364-2.366,12.912-1.45,19.354,1.463,10.455,7.736,19.5,14.636,27.443,4.312,4.94,9.644,9.932,16.2,10.154,2.836.091,5.985-1.033,7.161-3.607a8.925,8.925,0,0,0,.64-3.215c.706-11.6-3.45-22.935-8.285-33.507-1.307-2.875-2.718-5.855-2.614-9a2.432,2.432,0,0,1,.392-1.516,2.534,2.534,0,0,1,1.568-.771c6.625-1.307,18.048,3.842,22.687-3.515C614.627,343.728,610.5,334.776,608.355,330.45Z" transform="translate(7.855 -30.202)" fill="#ffc0c6"/>
    <path id="Path_762" data-name="Path 762" d="M706.912,209.971a6.085,6.085,0,0,1,.418-2.8c1.058-1.882,3.829-1.307,5.92-.836,8.4,2.117,17.263.2,25.927.693s18.4,4.822,20.151,13.317a63.417,63.417,0,0,0,15.982-16.414c2.4-3.607,4.5-7.723,4.169-12.036-.47-6.22-5.7-10.873-10.455-14.806L754.65,165.329a21.773,21.773,0,0,0-6.443-4.1c-3.333-1.137-6.952-.588-10.455-.588-10.455,0-21.667-4.77-30.985,0-3.921,2-6.835,5.436-9.658,8.782l-12.859,15.211a8.143,8.143,0,0,0-2.052,3.489c-.366,1.856.588,3.685.928,5.554.6,3.4-.863,7.031.261,10.285,1.869,5.423,8.455,6.194,12.48,9.3,1.49,1.15,3.842,5.083,5.632,5.031C704.6,218.23,706.794,212.48,706.912,209.971Z" transform="translate(45.666 -79.636)" fill="#3f3d56"/>
    <path id="Path_763" data-name="Path 763" d="M639.364,287.422a17.068,17.068,0,0,0-4.312,4.012c-1.5,2.287-1.816,5.227-3.11,7.58-2.771,5.149-9.266,6.992-13.3,11.213a4.169,4.169,0,0,0-1.307,2.2,4.848,4.848,0,0,0,1.084,3.163l19.524,30.684c6.534.575,12.729-3.5,19.237-2.953,2.417.2,4.914,1.032,7.24.314a21.038,21.038,0,0,0,4.639-2.836c3.921-2.457,9.043-2.744,12.3-5.972s3.529-7.972,3.49-12.376a48.866,48.866,0,0,0-1.163-11.369c-2.875-11.762-11.879-20.831-17.525-31.259-2.757-5.084-4.247-8.05-10.062-4.561S644.865,283.4,639.364,287.422Z" transform="translate(25.787 -44.282)" fill="#3f3d56"/>
    <path id="Path_764" data-name="Path 764" d="M823.469,274.774a45.825,45.825,0,0,1,9.827,8.6c2.967,3.829,4.652,8.534,7.514,12.454s6.534,6.743,9.671,10.246c4.77,5.306,8,11.761,11.16,18.178a272.587,272.587,0,0,1-25.248,28.489,8.087,8.087,0,0,1-3.842,2.509,6.156,6.156,0,0,1-5.41-2.208c-1.411-1.464-2.4-3.293-3.75-4.822a19.275,19.275,0,0,0-11.931-5.763,81.965,81.965,0,0,0-13.526-.2,5.227,5.227,0,0,1-2.888-.484,4.774,4.774,0,0,1-1.568-1.8c-5.227-8.991-3.594-20.282-1.725-30.554l4.273-23.523a52.854,52.854,0,0,1,3.568-13.068c1.621-3.463,5.227-9.344,9.7-8.3S819.692,272.056,823.469,274.774Z" transform="translate(78.754 -47.147)" fill="#3f3d56"/>
    <path id="Path_765" data-name="Path 765" d="M445.415,331.092l-90.028,18.413-2.052-.2-79.115-7.985V241.065l96.849-16.375,70.255,8.194.026.444v.209Z" transform="translate(84.139 68.972)" fill="#36d678"/>
    <path id="Path_766" data-name="Path 766" d="M426.839,329.064l-90.027,18.413-2.052-.2V244.5l88.015-13.2Z" transform="translate(102.714 71)" opacity="0.1"/>
    <path id="Path_767" data-name="Path 767" d="M441.35,233.537l-.026.026-87.989,12.964-79.115-5.463,96.849-16.375,70.255,8.194.026.444Z" transform="translate(84.139 68.972)" opacity="0.05"/>
    <path id="Path_768" data-name="Path 768" d="M481.415,255.092l-90.028,18.426-2.052-.209-79.115-7.985V165.065l96.849-16.375,70.255,8.194.026.444v.209Z" transform="translate(95.185 45.653)" fill="#3f3d56"/>
    <path id="Path_769" data-name="Path 769" d="M462.839,253.064,372.812,271.49l-2.052-.209V168.5l88.015-13.2Z" transform="translate(113.76 47.681)" opacity="0.1"/>
    <path id="Path_770" data-name="Path 770" d="M477.351,157.537l-.026.026-87.989,12.964-79.115-5.463,96.849-16.375,70.255,8.194.026.444Z" transform="translate(95.185 45.653)" opacity="0.05"/>
  </g>
</svg>
