<svg xmlns="http://www.w3.org/2000/svg" width="306.538" height="306.538" viewBox="0 0 306.538 306.538">
  <g id="upload_icon" transform="translate(-24 -23.999)">
    <path id="Path_830" data-name="Path 830" d="M168.557,110.861l32.727-32.728V251.26a15.855,15.855,0,0,0,31.711,0V78.133l32.728,32.728a15.855,15.855,0,1,0,22.423-22.423L228.352,28.643a15.855,15.855,0,0,0-22.423,0L146.135,88.438a15.855,15.855,0,1,0,22.423,22.423Z" transform="translate(-39.871 0)" fill="#36d678"/>
    <path id="Path_831" data-name="Path 831" d="M314.682,232a15.855,15.855,0,0,0-15.855,15.855V369.413H55.711V247.855a15.855,15.855,0,0,0-31.711,0V374.7a26.426,26.426,0,0,0,26.426,26.426H304.112A26.426,26.426,0,0,0,330.538,374.7V247.855A15.855,15.855,0,0,0,314.682,232Z" transform="translate(0 -70.587)" fill="#36d678"/>
  </g>
</svg>
