<svg xmlns="http://www.w3.org/2000/svg" width="63.393" height="60.751" viewBox="0 0 63.393 60.751">
  <g id="upvote_icon" transform="translate(0 -10.667)">
    <g id="Group_1091" data-name="Group 1091" transform="translate(0 37.081)">
      <g id="Group_1090" data-name="Group 1090" transform="translate(0 0)">
        <path id="Path_333" data-name="Path 333" d="M6.6,224A6.613,6.613,0,0,0,0,230.6v21.131a6.612,6.612,0,0,0,6.6,6.6h7.924A6.555,6.555,0,0,0,18.49,257V224Z" transform="translate(0 -224)" fill="#ffbd27"/>
      </g>
    </g>
    <g id="Group_1093" data-name="Group 1093" transform="translate(21.131 10.667)">
      <g id="Group_1092" data-name="Group 1092" transform="translate(0 0)">
        <path id="Path_334" data-name="Path 334" d="M212.929,46.986a5.857,5.857,0,0,0-1.72-4.158,6.557,6.557,0,0,0,1.691-5.042,6.827,6.827,0,0,0-6.889-5.988H189.7a37.976,37.976,0,0,0,2.1-10.565c0-5.729-4.868-10.565-7.924-10.565a8.308,8.308,0,0,0-4.789,1.609,1.327,1.327,0,0,0-.494,1.033v8.957l-7.607,16.48-.317.161v28.31a17.306,17.306,0,0,0,6.6,1.561h24.245a6.075,6.075,0,0,0,5.985-4.614,5.942,5.942,0,0,0-.478-3.967,5.916,5.916,0,0,0,2.644-7.927A5.913,5.913,0,0,0,212.929,46.986Z" transform="translate(-170.667 -10.667)" fill="#ffbd27"/>
      </g>
    </g>
  </g>
</svg>
